STARTFONT 2.1
COMMENT
COMMENT Converted from OpenType font "TimesNewRomanPS-ItalicMT.otf" by "otf2bdf 3.0".
COMMENT
FONT -FreeType-Times New Roman-Medium-I-Normal--35-250-100-100-P-178-ISO10646-1
SIZE 25 100 100
FONTBOUNDINGBOX 56 47 -17 -11
STARTPROPERTIES 19
FOUNDRY "FreeType"
FAMILY_NAME "Times New Roman"
WEIGHT_NAME "Medium"
SLANT "I"
SETWIDTH_NAME "Normal"
ADD_STYLE_NAME ""
PIXEL_SIZE 35
POINT_SIZE 250
RESOLUTION_X 100
RESOLUTION_Y 100
SPACING "P"
AVERAGE_WIDTH 178
CHARSET_REGISTRY "ISO10646"
CHARSET_ENCODING "1"
FONT_ASCENT 31
FONT_DESCENT 7
COPYRIGHT "© 2006 The Monotype Corporation. All Rights Reserved."
_OTF_FONTFILE "TimesNewRomanPS-ItalicMT.otf"
_OTF_PSNAME "TimesNewRomanPS-ItalicMT"
ENDPROPERTIES
CHARS 943
STARTCHAR 0020
ENCODING 32
SWIDTH 259 0
DWIDTH 9 0
BBX 0 0 0 0
BITMAP
ENDCHAR
STARTCHAR 0021
ENCODING 33
SWIDTH 345 0
DWIDTH 12 0
BBX 8 24 3 0
BITMAP
07
07
07
06
0E
0E
0C
0C
0C
08
18
10
10
10
20
20
20
00
00
00
C0
E0
E0
40
ENDCHAR
STARTCHAR 0022
ENCODING 34
SWIDTH 432 0
DWIDTH 15 0
BBX 11 9 5 15
BITMAP
70E0
71E0
71C0
61C0
E180
E180
C300
C300
8200
ENDCHAR
STARTCHAR 0023
ENCODING 35
SWIDTH 489 0
DWIDTH 17 0
BBX 17 24 2 0
BITMAP
010200
030200
030600
020600
020400
020400
060400
060C00
FFFF80
FFFF80
040800
0C0800
0C1800
081800
081000
FFFF80
FFFF80
183000
103000
102000
102000
302000
306000
206000
ENDCHAR
STARTCHAR 0024
ENCODING 36
SWIDTH 489 0
DWIDTH 17 0
BBX 15 26 2 -2
BITMAP
0010
03F8
062C
0C26
1C66
1844
1C44
1C40
1E80
0F80
0F80
07C0
01E0
01F0
0178
0238
0238
0218
8418
8418
C430
C430
E860
7F80
0800
1000
ENDCHAR
STARTCHAR 0025
ENCODING 37
SWIDTH 835 0
DWIDTH 29 0
BBX 25 25 3 -1
BITMAP
02000080
1D800100
30C00200
70C00400
E0C00800
E0C01000
C0C02000
C1C04000
C1808000
C3810000
C3020000
46040000
38080000
00101F00
00206180
0040E180
0080C180
0101C180
0201C180
04018380
08018380
10018300
20018600
40008C00
80007800
ENDCHAR
STARTCHAR 0026
ENCODING 38
SWIDTH 777 0
DWIDTH 27 0
BBX 23 24 2 0
BITMAP
000FC0
0018E0
003060
003060
0070E0
0070C0
007180
007700
007C00
00F000
03F000
0E78FE
383838
703830
703C60
E01C40
E01E80
E01F80
E00F00
F00700
F00F80
7C3BC2
3FE1FC
000020
ENDCHAR
STARTCHAR 0027
ENCODING 39
SWIDTH 201 0
DWIDTH 7 0
BBX 4 9 5 15
BITMAP
70
70
F0
E0
E0
C0
C0
80
80
ENDCHAR
STARTCHAR 0028
ENCODING 40
SWIDTH 345 0
DWIDTH 12 0
BBX 13 31 2 -7
BITMAP
0008
0010
0020
0040
0080
0100
0300
0600
0E00
1C00
1C00
3800
3800
7000
7000
7000
7000
6000
E000
E000
E000
E000
6000
6000
6000
6000
2000
2000
1000
1000
1000
ENDCHAR
STARTCHAR 0029
ENCODING 41
SWIDTH 345 0
DWIDTH 12 0
BBX 12 31 -3 -7
BITMAP
0080
0080
0040
0040
0020
0020
0020
0030
0030
0030
0030
0030
0030
0070
0070
0070
0070
00E0
00E0
00E0
01C0
0180
0380
0300
0600
0C00
0800
1000
2000
4000
8000
ENDCHAR
STARTCHAR 002A
ENCODING 42
SWIDTH 489 0
DWIDTH 17 0
BBX 12 14 5 10
BITMAP
0600
0700
0600
E630
F270
7AE0
0F00
0F80
7AF0
F670
E630
0600
0700
0600
ENDCHAR
STARTCHAR 002B
ENCODING 43
SWIDTH 662 0
DWIDTH 23 0
BBX 18 19 3 2
BITMAP
004000
004000
004000
004000
004000
004000
004000
004000
004000
FFFFC0
004000
004000
004000
004000
004000
004000
004000
004000
004000
ENDCHAR
STARTCHAR 002C
ENCODING 44
SWIDTH 259 0
DWIDTH 9 0
BBX 5 7 0 -4
BITMAP
30
78
78
30
30
20
C0
ENDCHAR
STARTCHAR 002D
ENCODING 45
SWIDTH 345 0
DWIDTH 12 0
BBX 9 3 1 6
BITMAP
7F80
FF80
FF80
ENDCHAR
STARTCHAR 002E
ENCODING 46
SWIDTH 259 0
DWIDTH 9 0
BBX 4 3 1 0
BITMAP
60
F0
E0
ENDCHAR
STARTCHAR 002F
ENCODING 47
SWIDTH 288 0
DWIDTH 10 0
BBX 14 25 -1 -1
BITMAP
0004
0008
0018
0010
0030
0020
0060
0040
00C0
0080
0180
0100
0300
0200
0600
0400
0C00
0800
1000
3000
2000
6000
4000
C000
8000
ENDCHAR
STARTCHAR 0030
ENCODING 48
SWIDTH 489 0
DWIDTH 17 0
BBX 15 23 2 0
BITMAP
01F8
030C
060C
0C06
1C06
1806
380E
380E
780E
700E
700E
700E
E01C
E01C
E01C
E038
E038
E038
E070
6060
60E0
60C0
3F00
ENDCHAR
STARTCHAR 0031
ENCODING 49
SWIDTH 489 0
DWIDTH 17 0
BBX 12 23 2 0
BITMAP
00F0
03F0
0070
0060
00E0
00E0
00C0
00C0
01C0
01C0
0180
0380
0380
0300
0300
0700
0700
0600
0E00
0E00
0E00
1E00
FF80
ENDCHAR
STARTCHAR 0032
ENCODING 50
SWIDTH 489 0
DWIDTH 17 0
BBX 15 23 1 0
BITMAP
01F8
03FC
063E
080E
000E
000E
000E
000E
000C
000C
0018
0030
0020
0040
0080
0100
0200
0400
0808
1010
2070
7FF0
FFE0
ENDCHAR
STARTCHAR 0033
ENCODING 51
SWIDTH 489 0
DWIDTH 17 0
BBX 15 23 1 0
BITMAP
01F8
033C
021E
040E
000E
000C
001C
0038
0060
01C0
07F0
00F0
0078
0038
0038
0038
0038
0038
0030
0030
6060
F8C0
7F00
ENDCHAR
STARTCHAR 0034
ENCODING 52
SWIDTH 489 0
DWIDTH 17 0
BBX 16 23 1 0
BITMAP
0003
0006
000E
001E
003E
002C
004C
009C
0118
0218
0638
0C38
1830
3030
6070
7FFC
FFFC
00E0
00C0
00C0
01C0
01C0
0180
ENDCHAR
STARTCHAR 0035
ENCODING 53
SWIDTH 489 0
DWIDTH 17 0
BBX 15 23 1 0
BITMAP
00FE
01FE
01FE
0300
0200
0200
07C0
07E0
03F0
00F8
0078
0038
0018
0018
0018
0018
0018
0010
0030
0020
6040
F980
7E00
ENDCHAR
STARTCHAR 0036
ENCODING 54
SWIDTH 489 0
DWIDTH 17 0
BBX 16 23 2 0
BITMAP
000F
0038
00E0
01C0
0380
0700
0E00
1E00
1FE0
3C78
3838
701C
701C
701C
E01C
E01C
E01C
E038
E038
6070
6060
20C0
1F80
ENDCHAR
STARTCHAR 0037
ENCODING 55
SWIDTH 489 0
DWIDTH 17 0
BBX 14 23 4 0
BITMAP
3FFC
3FFC
7FF8
4018
8030
0020
0060
0040
00C0
0180
0180
0300
0200
0600
0400
0C00
1800
1800
3000
2000
6000
4000
C000
ENDCHAR
STARTCHAR 0038
ENCODING 56
SWIDTH 489 0
DWIDTH 17 0
BBX 16 23 1 0
BITMAP
01FC
0306
0603
0603
0603
0603
0706
0786
038C
03F0
01E0
06F0
1878
3038
703C
601C
601C
E01C
E01C
6018
6018
3030
1FC0
ENDCHAR
STARTCHAR 0039
ENCODING 57
SWIDTH 489 0
DWIDTH 17 0
BBX 16 23 1 0
BITMAP
01FC
0306
0606
0E03
1C03
1C03
1C07
3C07
3807
3807
380E
1C0E
1C0E
0E3C
07FC
0038
0070
00F0
01E0
0380
0700
0C00
F000
ENDCHAR
STARTCHAR 003A
ENCODING 58
SWIDTH 345 0
DWIDTH 12 0
BBX 7 15 2 0
BITMAP
0E
0E
0E
00
00
00
00
00
00
00
00
00
60
E0
E0
ENDCHAR
STARTCHAR 003B
ENCODING 59
SWIDTH 345 0
DWIDTH 12 0
BBX 8 19 1 -4
BITMAP
07
07
07
00
00
00
00
00
00
00
00
00
30
78
78
30
30
20
80
ENDCHAR
STARTCHAR 003C
ENCODING 60
SWIDTH 662 0
DWIDTH 23 0
BBX 18 17 3 3
BITMAP
000040
0001C0
000F00
003800
00E000
078000
1E0000
700000
C00000
780000
1E0000
038000
00E000
003C00
000F00
0001C0
000040
ENDCHAR
STARTCHAR 003D
ENCODING 61
SWIDTH 662 0
DWIDTH 23 0
BBX 19 7 3 8
BITMAP
FFFFE0
000000
000000
000000
000000
000000
FFFFE0
ENDCHAR
STARTCHAR 003E
ENCODING 62
SWIDTH 662 0
DWIDTH 23 0
BBX 18 15 3 4
BITMAP
E00000
780000
0E0000
03C000
00F000
001C00
000700
0001C0
000700
001C00
00F000
03C000
0E0000
380000
E00000
ENDCHAR
STARTCHAR 003F
ENCODING 63
SWIDTH 489 0
DWIDTH 17 0
BBX 13 24 3 -1
BITMAP
0300
1CE0
3030
3038
3838
3038
0038
0070
00F0
00E0
01C0
0300
0600
0C00
0800
1000
1000
2000
0000
0000
0000
6000
F000
F000
ENDCHAR
STARTCHAR 0040
ENCODING 64
SWIDTH 921 0
DWIDTH 32 0
BBX 29 31 2 -7
BITMAP
001FF000
00600C00
01800300
03000180
040000C0
08000040
18000020
30000020
2007DC20
600C3810
40183810
C0303810
C0603010
C0E03010
80C07020
81C07020
81C06020
8180E040
8381E040
8382E080
C3C6C180
C1FCC308
41F0FC08
60000010
20000030
30000020
18000040
0C000180
06000300
01800C00
007FF000
ENDCHAR
STARTCHAR 0041
ENCODING 65
SWIDTH 604 0
DWIDTH 21 0
BBX 21 24 -2 0
BITMAP
000010
000010
000030
000070
0000F0
0000E0
0001E0
0003E0
0006E0
0004E0
0008E0
0018E0
0030E0
0020E0
0040E0
00FFE0
0081C0
0101C0
0201C0
0601C0
0401C0
0801C0
1C01C0
FE0FF8
ENDCHAR
STARTCHAR 0042
ENCODING 66
SWIDTH 604 0
DWIDTH 21 0
BBX 21 23 -1 0
BITMAP
03FFC0
0070F0
007078
007038
00E038
00E038
00E038
00C078
01C070
01C1E0
01FF80
039F80
0383C0
0381E0
0700E0
0700E0
0700E0
0600E0
0E01E0
0E01C0
0E0780
1C1F00
FFFC00
ENDCHAR
STARTCHAR 0043
ENCODING 67
SWIDTH 662 0
DWIDTH 23 0
BBX 22 24 2 0
BITMAP
003FF4
00E03C
03C01C
070008
0F0008
1E0008
1C0008
3C0000
380000
780000
780000
700000
F00000
F00000
F00000
F00000
700000
700000
780020
380040
3C0080
1F0300
07FE00
004000
ENDCHAR
STARTCHAR 0044
ENCODING 68
SWIDTH 720 0
DWIDTH 25 0
BBX 25 23 -1 0
BITMAP
03FFE000
00707800
00701E00
00E00F00
00E00700
00E00780
00E00380
01C00380
01C00380
01C00380
03800380
03800380
03800380
03800780
07000700
07000700
07000E00
0E001E00
0E001C00
0E003800
1E00E000
1E078000
FFFE0000
ENDCHAR
STARTCHAR 0045
ENCODING 69
SWIDTH 604 0
DWIDTH 21 0
BBX 23 23 -1 0
BITMAP
03FFFE
00703E
00700C
007004
00E004
00E004
00E000
01C000
01C080
01C180
01FF80
03FF00
038100
038100
070200
070000
070000
070010
0E0030
0E0060
0E00E0
1E03C0
FFFFC0
ENDCHAR
STARTCHAR 0046
ENCODING 70
SWIDTH 604 0
DWIDTH 21 0
BBX 24 23 -1 0
BITMAP
03FFFF
00700F
007002
007002
00E002
00E002
00E000
01C040
01C040
01C0C0
01FF80
03FF80
038180
038080
070100
070000
070000
070000
0E0000
0E0000
0E0000
1E0000
FF8000
ENDCHAR
STARTCHAR 0047
ENCODING 71
SWIDTH 720 0
DWIDTH 25 0
BBX 23 25 2 -1
BITMAP
000002
003FF6
00E01E
03800C
07000C
0E0004
1E0004
1C0000
3C0000
380000
780000
700000
7003FE
7000F8
F00070
F00070
7000E0
7000E0
7800E0
7801C0
3801C0
1C01C0
0E03C0
07FF00
002000
ENDCHAR
STARTCHAR 0048
ENCODING 72
SWIDTH 720 0
DWIDTH 25 0
BBX 29 23 -1 0
BITMAP
03FE0FF8
007803C0
007003C0
00700380
00E00380
00E00380
00E00700
01C00700
01C00700
01C00E00
01FFFE00
03800E00
03800E00
03801C00
07001C00
07001C00
07003800
0E003800
0E003800
0E003800
0E007000
1E007000
FF83FE00
ENDCHAR
STARTCHAR 0049
ENCODING 73
SWIDTH 345 0
DWIDTH 12 0
BBX 15 23 -1 0
BITMAP
03FE
0078
0070
0070
00E0
00E0
00E0
01C0
01C0
01C0
01C0
0380
0380
0380
0700
0700
0700
0700
0E00
0E00
0E00
1E00
FFC0
ENDCHAR
STARTCHAR 004A
ENCODING 74
SWIDTH 432 0
DWIDTH 15 0
BBX 20 23 -1 -1
BITMAP
001FF0
000780
000780
000700
000700
000700
000E00
000E00
000E00
001C00
001C00
001C00
001C00
003800
003800
003800
007000
007000
607000
F0E000
E0C000
E18000
7F0000
ENDCHAR
STARTCHAR 004B
ENCODING 75
SWIDTH 662 0
DWIDTH 23 0
BBX 26 23 -1 0
BITMAP
03FE1FC0
00700E00
00700C00
00701800
00E06000
00E0C000
00E18000
01C60000
01CC0000
01D80000
03F00000
03B80000
03BC0000
039C0000
070E0000
070F0000
07070000
0E038000
0E03C000
0E01C000
0E01E000
1E01F000
FF87FE00
ENDCHAR
STARTCHAR 004C
ENCODING 76
SWIDTH 547 0
DWIDTH 19 0
BBX 19 23 -1 0
BITMAP
03FE00
007000
007000
00E000
00E000
00E000
00E000
01C000
01C000
01C000
038000
038000
038000
038000
070000
070000
070020
0E0020
0E0040
0E0040
1E00C0
1E0780
FFFF80
ENDCHAR
STARTCHAR 004D
ENCODING 77
SWIDTH 835 0
DWIDTH 29 0
BBX 33 23 -1 0
BITMAP
03F0001F80
0070003C00
0070003C00
0070007800
00F800F800
00B800F800
00B8017000
01B8037000
0138067000
013804E000
013808E000
023818E000
023831C000
021C21C000
061C61C000
041CC1C000
041C838000
0C1D038000
081F038000
081E070000
081C070000
1808070000
FF087FE000
ENDCHAR
STARTCHAR 004E
ENCODING 78
SWIDTH 662 0
DWIDTH 23 0
BBX 27 24 -1 -1
BITMAP
07E00FE0
00F00380
00700300
00F00300
00B80200
00B80200
00BC0600
019C0400
011C0400
010E0C00
030E0C00
020E0800
02070800
02071800
06039000
04039000
0403B000
0C01F000
0801E000
0800E000
0800E000
1800C000
FE004000
00004000
ENDCHAR
STARTCHAR 004F
ENCODING 79
SWIDTH 720 0
DWIDTH 25 0
BBX 23 23 2 0
BITMAP
003FE0
00E078
01C038
03801C
07001C
0E001E
1C001E
1C001E
38001E
78001E
78001E
70001C
F0003C
F0003C
F00038
F00078
F00070
F000E0
7001E0
7003C0
380700
3C0E00
0FF800
ENDCHAR
STARTCHAR 0050
ENCODING 80
SWIDTH 604 0
DWIDTH 21 0
BBX 23 23 -1 0
BITMAP
03FFE0
0078F8
00703C
00701C
00E01E
00E01E
00E01C
00E01C
01C03C
01C078
01C0F0
03FFC0
038000
038000
078000
070000
070000
070000
0E0000
0E0000
0E0000
1E0000
FF8000
ENDCHAR
STARTCHAR 0051
ENCODING 81
SWIDTH 720 0
DWIDTH 25 0
BBX 23 30 2 -6
BITMAP
003FE0
00E078
01C038
03801C
07001C
0E001E
1C001E
1C001E
38001E
78001E
78001E
70001C
F0003C
F0003C
F00038
F00078
F00070
F000E0
7001C0
7003C0
380700
3C0E00
0FF800
010000
060000
0C0008
100010
7FC020
FFFFC0
03FF00
ENDCHAR
STARTCHAR 0052
ENCODING 82
SWIDTH 604 0
DWIDTH 21 0
BBX 21 23 -1 0
BITMAP
03FFC0
00F1E0
007070
006078
00E038
00E038
00E078
01C070
01C070
01C0E0
0187C0
03FE00
038E00
038E00
070700
070700
070700
060380
0E0380
0E0380
0E01C0
1E01C0
FF81F8
ENDCHAR
STARTCHAR 0053
ENCODING 83
SWIDTH 489 0
DWIDTH 17 0
BBX 19 25 0 -1
BITMAP
000020
00FE60
0383C0
0300C0
0700C0
0700C0
070080
070080
078000
03C000
01E000
01F000
00F800
007C00
003E00
001E00
200F00
200F00
200F00
600E00
600E00
700C00
781C00
CFF000
808000
ENDCHAR
STARTCHAR 0054
ENCODING 84
SWIDTH 547 0
DWIDTH 19 0
BBX 19 23 3 0
BITMAP
3FFFE0
3C73E0
606060
40E040
40E040
80E040
01C000
01C000
01C000
038000
038000
038000
038000
070000
070000
070000
0E0000
0E0000
0E0000
0E0000
1C0000
1E0000
FFC000
ENDCHAR
STARTCHAR 0055
ENCODING 85
SWIDTH 720 0
DWIDTH 25 0
BBX 24 24 4 -1
BITMAP
FFC07F
1E0018
1C0018
1C0018
1C0010
1C0010
380030
380020
380020
700060
700040
700040
700040
E000C0
E00080
E00080
E00180
E00100
E00300
E00200
700400
3C1800
1FF000
010000
ENDCHAR
STARTCHAR 0056
ENCODING 86
SWIDTH 604 0
DWIDTH 21 0
BBX 21 24 4 -1
BITMAP
FF83F8
1E00E0
1C00C0
1C0180
1C0100
1C0200
1C0400
1C0C00
1C0800
1C1000
182000
386000
384000
388000
398000
3B0000
3A0000
3C0000
3C0000
380000
300000
600000
600000
400000
ENDCHAR
STARTCHAR 0057
ENCODING 87
SWIDTH 835 0
DWIDTH 29 0
BBX 29 24 4 -1
BITMAP
FFBFE3F8
3C0781C0
1C070080
1C070180
1C0F0100
180F0200
38170600
38370400
38270800
384E1800
38CE1000
388E2000
390E6000
3B0E4000
3A0E8000
340F8000
7C0F0000
780E0000
781E0000
701C0000
601C0000
60180000
40100000
00100000
ENDCHAR
STARTCHAR 0058
ENCODING 88
SWIDTH 604 0
DWIDTH 21 0
BBX 28 23 -2 0
BITMAP
01FE0FF0
00780380
00380700
00380400
001C0800
001C1000
001C2000
001C6000
000EC000
000F8000
000F0000
000F0000
000F0000
001F0000
00370000
00638000
00C38000
01838000
0303C000
0601C000
0C01C000
1C01E000
FE07FC00
ENDCHAR
STARTCHAR 0059
ENCODING 89
SWIDTH 547 0
DWIDTH 19 0
BBX 20 23 3 0
BITMAP
7F87F0
1E01C0
0E0180
0E0300
0E0200
070400
070C00
071800
031000
03A000
03E000
03C000
038000
038000
038000
070000
070000
070000
070000
0E0000
0E0000
1E0000
FFC000
ENDCHAR
STARTCHAR 005A
ENCODING 90
SWIDTH 547 0
DWIDTH 19 0
BBX 21 23 0 0
BITMAP
07FFF8
070078
0C00F0
0801E0
1003C0
000380
000700
000F00
001E00
003C00
003800
007000
00F000
01E000
03C000
038000
070000
0F0000
1E0040
3C00C0
380180
700780
FFFF80
ENDCHAR
STARTCHAR 005B
ENCODING 91
SWIDTH 403 0
DWIDTH 14 0
BBX 16 31 0 -7
BITMAP
007F
007F
0060
00E0
00C0
00C0
01C0
01C0
0180
0380
0380
0300
0300
0700
0600
0600
0E00
0E00
0C00
0C00
1C00
1800
1800
3800
3800
3000
3000
7000
6000
6000
FF00
ENDCHAR
STARTCHAR 005C
ENCODING 92
SWIDTH 288 0
DWIDTH 10 0
BBX 4 25 4 -1
BITMAP
80
80
80
80
80
C0
40
40
40
40
40
40
60
60
20
20
20
20
20
20
30
30
10
10
10
ENDCHAR
STARTCHAR 005D
ENCODING 93
SWIDTH 403 0
DWIDTH 14 0
BBX 16 31 -3 -7
BITMAP
00FF
00FE
0006
000E
000C
000C
001C
001C
0018
0018
0038
0030
0030
0070
0070
0060
00E0
00E0
00C0
00C0
01C0
0180
0180
0380
0380
0300
0300
0700
0600
0600
FE00
ENDCHAR
STARTCHAR 005E
ENCODING 94
SWIDTH 432 0
DWIDTH 15 0
BBX 15 13 1 11
BITMAP
0100
0100
0380
06C0
0440
0C60
0820
1830
3018
2008
600C
4004
C006
ENDCHAR
STARTCHAR 005F
ENCODING 95
SWIDTH 489 0
DWIDTH 17 0
BBX 18 1 0 -7
BITMAP
FFFFC0
ENDCHAR
STARTCHAR 0060
ENCODING 96
SWIDTH 345 0
DWIDTH 12 0
BBX 6 6 6 18
BITMAP
F0
70
38
18
08
04
ENDCHAR
STARTCHAR 0061
ENCODING 97
SWIDTH 489 0
DWIDTH 17 0
BBX 15 15 1 0
BITMAP
03EE
061E
0C1C
181C
381C
301C
7018
6038
E038
E070
E070
E0F2
E174
FE74
7C78
ENDCHAR
STARTCHAR 0062
ENCODING 98
SWIDTH 489 0
DWIDTH 17 0
BBX 15 24 1 0
BITMAP
0780
0F80
0300
0700
0700
0600
0600
0E00
0E00
0CFC
1D9E
1E0E
1C0E
180E
380E
380E
300E
700C
701C
6018
E030
E030
E040
3F80
ENDCHAR
STARTCHAR 0063
ENCODING 99
SWIDTH 432 0
DWIDTH 15 0
BBX 14 15 1 0
BITMAP
01F8
060C
0C1C
181C
3018
7000
6000
E000
E000
E000
E000
E010
F020
7840
3F80
ENDCHAR
STARTCHAR 0064
ENCODING 100
SWIDTH 489 0
DWIDTH 17 0
BBX 18 24 1 0
BITMAP
0003C0
000F80
000380
000380
000300
000300
000700
000700
000600
01FE00
061E00
0C1C00
181C00
381C00
701C00
601800
E03800
E03800
E07000
E0B000
E17200
E37400
FE7800
787000
ENDCHAR
STARTCHAR 0065
ENCODING 101
SWIDTH 432 0
DWIDTH 15 0
BBX 14 15 1 0
BITMAP
01F8
061C
0C1C
181C
3818
3030
70E0
6780
F800
E000
E000
E008
7030
7CC0
3F80
ENDCHAR
STARTCHAR 0066
ENCODING 102
SWIDTH 288 0
DWIDTH 10 0
BBX 22 31 -6 -7
BITMAP
00007C
00008C
00010C
000300
000600
000600
000E00
000C00
001C00
00FF00
001800
001800
003800
003800
003000
007000
007000
007000
006000
00E000
00E000
00E000
00C000
01C000
018000
018000
010000
030000
420000
C40000
F80000
ENDCHAR
STARTCHAR 0067
ENCODING 103
SWIDTH 489 0
DWIDTH 17 0
BBX 19 22 -1 -7
BITMAP
01FC00
0707E0
0E0700
0E0700
1C0700
1C0700
1C0F00
1C0E00
0E1C00
07F000
030000
040000
0C0000
0F8000
0FF800
11FE00
601E00
E00700
C00600
E00600
700C00
3FF000
ENDCHAR
STARTCHAR 0068
ENCODING 104
SWIDTH 489 0
DWIDTH 17 0
BBX 15 24 1 0
BITMAP
0380
1F80
0300
0300
0700
0700
0600
0E00
0E00
0C3C
0C7C
1C8C
1D0C
1A1C
3A1C
3C18
3838
3838
7030
7030
6072
E074
E078
C070
ENDCHAR
STARTCHAR 0069
ENCODING 105
SWIDTH 288 0
DWIDTH 10 0
BBX 7 22 2 0
BITMAP
0E
0E
0E
00
00
00
00
7C
38
18
38
38
30
70
70
60
60
E0
E4
C8
F0
E0
ENDCHAR
STARTCHAR 006A
ENCODING 106
SWIDTH 288 0
DWIDTH 10 0
BBX 16 29 -6 -7
BITMAP
0006
000F
000E
0000
0000
0000
0000
003C
007C
0018
0018
0038
0038
0030
0070
0070
0060
00E0
00E0
00E0
00C0
01C0
01C0
0180
0380
0300
0300
E600
FC00
ENDCHAR
STARTCHAR 006B
ENCODING 107
SWIDTH 432 0
DWIDTH 15 0
BBX 17 24 0 0
BITMAP
03C000
078000
018000
038000
038000
030000
070000
070000
060000
067F80
0E1C00
0E1000
0C2000
1C4000
1C8000
1B8000
1DC000
39C000
38C000
30E000
70E200
70E400
607800
E07000
ENDCHAR
STARTCHAR 006C
ENCODING 108
SWIDTH 288 0
DWIDTH 10 0
BBX 9 24 1 0
BITMAP
0380
0F80
0380
0300
0700
0700
0600
0600
0E00
0E00
0C00
1C00
1C00
1800
1800
3800
3800
3000
7000
7000
6200
6400
F800
F000
ENDCHAR
STARTCHAR 006D
ENCODING 109
SWIDTH 720 0
DWIDTH 25 0
BBX 23 15 1 0
BITMAP
3C3C3C
5CFC7C
1D9C9C
19191C
1A1A18
3C3A18
383C38
383838
703830
707070
707070
606072
E0E064
E0E0F8
C0C0F0
ENDCHAR
STARTCHAR 006E
ENCODING 110
SWIDTH 489 0
DWIDTH 17 0
BBX 15 15 1 0
BITMAP
3C3C
5C7C
1C8C
1D0C
1A1C
3A1C
3C18
3838
3838
7030
7030
6072
E074
E078
C070
ENDCHAR
STARTCHAR 006F
ENCODING 111
SWIDTH 489 0
DWIDTH 17 0
BBX 15 15 1 0
BITMAP
01F8
060C
0C0E
180E
380E
700E
700E
E00E
E01C
E01C
E038
E038
E070
70E0
3F80
ENDCHAR
STARTCHAR 0070
ENCODING 112
SWIDTH 489 0
DWIDTH 17 0
BBX 19 22 -3 -7
BITMAP
07C7C0
01C9E0
01E0E0
01E0E0
01C0E0
0380E0
0380E0
0300E0
0300C0
0701C0
070180
060300
0E0700
0E0C00
0FF800
0C0000
1C0000
1C0000
180000
380000
380000
FE0000
ENDCHAR
STARTCHAR 0071
ENCODING 113
SWIDTH 489 0
DWIDTH 17 0
BBX 15 22 1 -7
BITMAP
03E6
061E
0C0E
180C
381C
701C
7018
6038
E038
E078
E070
E0F0
E170
FE60
7C60
00E0
00E0
00C0
00C0
01C0
01C0
0FE0
ENDCHAR
STARTCHAR 0072
ENCODING 114
SWIDTH 403 0
DWIDTH 14 0
BBX 13 15 1 0
BITMAP
7C38
1C78
1CB8
1D10
1A00
1A00
3C00
3800
3800
7000
7000
6000
E000
E000
C000
ENDCHAR
STARTCHAR 0073
ENCODING 115
SWIDTH 403 0
DWIDTH 14 0
BBX 12 15 0 0
BITMAP
07F0
0C30
1810
1C10
1C10
0E00
0F00
0780
03C0
01C0
81C0
C0C0
C0C0
C180
FF00
ENDCHAR
STARTCHAR 0074
ENCODING 116
SWIDTH 288 0
DWIDTH 10 0
BBX 9 20 1 0
BITMAP
0100
0100
0200
0600
0E00
7F80
0C00
1C00
1C00
1800
1800
3800
3800
3000
7000
7000
6200
6400
E800
7000
ENDCHAR
STARTCHAR 0075
ENCODING 117
SWIDTH 489 0
DWIDTH 17 0
BBX 15 15 1 0
BITMAP
1C06
7C0E
9C0E
9C0C
181C
381C
3838
3838
3078
70B8
70B0
6132
6274
7C7C
7878
ENDCHAR
STARTCHAR 0076
ENCODING 118
SWIDTH 432 0
DWIDTH 15 0
BBX 14 15 1 0
BITMAP
781C
B81C
1C0C
1C04
1C0C
1C08
0C10
0C10
0C20
0C40
0E80
0F80
0F00
0E00
0C00
ENDCHAR
STARTCHAR 0077
ENCODING 119
SWIDTH 662 0
DWIDTH 23 0
BBX 22 15 1 0
BITMAP
780C1C
F80C1C
181C0C
181C0C
182C08
1C4C08
1C4C10
1C8C20
1C8C20
0D0C40
0E0E80
0E0F00
0C0F00
0C0E00
080C00
ENDCHAR
STARTCHAR 0078
ENCODING 120
SWIDTH 432 0
DWIDTH 15 0
BBX 16 15 -1 0
BITMAP
3F07
070F
0390
03A0
01C0
01C0
01C0
01C0
01C0
02C0
02E0
04E2
0864
F078
E070
ENDCHAR
STARTCHAR 0079
ENCODING 121
SWIDTH 432 0
DWIDTH 15 0
BBX 18 22 -3 -7
BITMAP
0781C0
0B81C0
01C0C0
01C040
01C040
01C080
01C100
01C100
00C200
00C400
00C400
00C800
00D000
00E000
00E000
00C000
008000
010000
020000
040000
E80000
F00000
ENDCHAR
STARTCHAR 007A
ENCODING 122
SWIDTH 403 0
DWIDTH 14 0
BBX 15 15 -1 0
BITMAP
0FFE
1FFC
1808
1010
0020
0040
0080
0100
0200
0400
0808
1010
2030
7FF0
FFE0
ENDCHAR
STARTCHAR 007B
ENCODING 123
SWIDTH 403 0
DWIDTH 14 0
BBX 13 31 3 -7
BITMAP
0018
0060
0080
0180
0300
0300
0700
0700
0700
0700
0600
0600
0C00
1800
3000
C000
4000
2000
3000
3000
3000
7000
7000
E000
E000
C000
C000
C000
C000
4000
3000
ENDCHAR
STARTCHAR 007C
ENCODING 124
SWIDTH 288 0
DWIDTH 10 0
BBX 1 31 4 -7
BITMAP
80
80
80
80
80
80
80
80
80
80
80
80
80
80
80
80
80
80
80
80
80
80
80
80
80
80
80
80
80
80
80
ENDCHAR
STARTCHAR 007D
ENCODING 125
SWIDTH 403 0
DWIDTH 14 0
BBX 13 31 -2 -7
BITMAP
00E0
0030
0018
0018
0018
0018
0038
0038
0070
0070
0060
0060
0060
0060
0020
0018
0030
00C0
0180
0300
0300
0700
0700
0700
0700
0600
0600
0C00
0800
1000
E000
ENDCHAR
STARTCHAR 007E
ENCODING 126
SWIDTH 547 0
DWIDTH 19 0
BBX 18 4 0 7
BITMAP
3F0040
63E040
4078C0
801F80
ENDCHAR
STARTCHAR 00A0
ENCODING 160
SWIDTH 259 0
DWIDTH 9 0
BBX 0 0 0 0
BITMAP
ENDCHAR
STARTCHAR 00A1
ENCODING 161
SWIDTH 403 0
DWIDTH 14 0
BBX 9 24 2 -7
BITMAP
0100
0780
0780
0300
0000
0000
0000
0400
0400
0400
0400
0800
0800
0800
1800
1800
3800
3000
3000
7000
7000
7000
6000
E000
ENDCHAR
STARTCHAR 00A2
ENCODING 162
SWIDTH 489 0
DWIDTH 17 0
BBX 14 28 2 -6
BITMAP
0010
0010
0020
0020
0020
0040
0040
03F8
068C
0C9C
189C
3098
7100
6100
E100
E200
E200
E200
E410
E420
7CC0
3F80
0800
0800
0800
1000
1000
1000
ENDCHAR
STARTCHAR 00A3
ENCODING 163
SWIDTH 489 0
DWIDTH 17 0
BBX 17 24 1 -1
BITMAP
001F00
006380
006380
00C100
01C000
01C000
01C000
038000
038000
038000
3FF800
3FF800
070000
070000
070000
060000
060000
060000
040000
7E0000
8F8600
8FFC00
B1F800
400000
ENDCHAR
STARTCHAR 00A4
ENCODING 164
SWIDTH 489 0
DWIDTH 17 0
BBX 16 17 2 3
BITMAP
8000
C7C3
7E76
301C
600C
4006
4002
C002
C002
C002
4002
4006
600C
301C
7EF6
C7C3
8000
ENDCHAR
STARTCHAR 00A5
ENCODING 165
SWIDTH 489 0
DWIDTH 17 0
BBX 21 23 0 0
BITMAP
0FE1F8
078060
038040
0380C0
038080
018100
01C200
01C600
01C400
00E800
00F800
7FFFE0
00E000
00E000
00E000
FFC000
FFFFC0
01C000
018000
038000
038000
078000
1FE000
ENDCHAR
STARTCHAR 00A6
ENCODING 166
SWIDTH 288 0
DWIDTH 10 0
BBX 1 31 4 -7
BITMAP
80
80
80
80
80
80
80
80
80
80
80
80
00
00
00
00
00
00
00
80
80
80
80
80
80
80
80
80
80
80
80
ENDCHAR
STARTCHAR 00A7
ENCODING 167
SWIDTH 489 0
DWIDTH 17 0
BBX 18 31 0 -7
BITMAP
001C00
002300
004180
0081C0
0081C0
018000
018000
01C000
00C000
00E000
007000
07F800
0C3C00
081C00
080C00
080600
0C0600
0C0600
060400
078800
03F000
01C000
00C000
00E000
006000
006000
C06000
E04000
E04000
608000
3F0000
ENDCHAR
STARTCHAR 00A8
ENCODING 168
SWIDTH 345 0
DWIDTH 12 0
BBX 9 4 5 19
BITMAP
4100
E380
E380
E380
ENDCHAR
STARTCHAR 00A9
ENCODING 169
SWIDTH 748 0
DWIDTH 26 0
BBX 24 24 2 0
BITMAP
00FF80
030060
0C0010
180008
107FC4
20C0C2
618062
430021
470021
470001
860001
860001
870001
470001
470001
430021
638042
21C082
107F04
180008
0C0010
030060
01FF80
000800
ENDCHAR
STARTCHAR 00AA
ENCODING 170
SWIDTH 288 0
DWIDTH 10 0
BBX 10 9 3 15
BITMAP
1FC0
3080
2180
4180
C180
C300
C700
CB80
7300
ENDCHAR
STARTCHAR 00AB
ENCODING 171
SWIDTH 489 0
DWIDTH 17 0
BBX 16 17 1 -1
BITMAP
0081
0102
0304
060C
0C18
1C30
3860
70E0
F1C0
71C0
70C0
30E0
3060
1820
0820
0810
0010
ENDCHAR
STARTCHAR 00AC
ENCODING 172
SWIDTH 662 0
DWIDTH 23 0
BBX 18 7 3 8
BITMAP
FFFFC0
0000C0
0000C0
0000C0
0000C0
0000C0
0000C0
ENDCHAR
STARTCHAR 00AD
ENCODING 173
SWIDTH 345 0
DWIDTH 12 0
BBX 9 3 1 6
BITMAP
7F80
FF80
FF80
ENDCHAR
STARTCHAR 00AE
ENCODING 174
SWIDTH 748 0
DWIDTH 26 0
BBX 24 24 2 0
BITMAP
00FF80
030060
0C0010
180008
13FE04
21C702
61C382
41C181
41C181
41C381
81C701
81FC01
81DC01
41CE01
41C701
41C301
61C382
21C1C2
13F0E4
180008
0C0010
030060
01FF80
000800
ENDCHAR
STARTCHAR 00AF
ENCODING 175
SWIDTH 489 0
DWIDTH 17 0
BBX 18 1 3 25
BITMAP
FFFFC0
ENDCHAR
STARTCHAR 00B0
ENCODING 176
SWIDTH 403 0
DWIDTH 14 0
BBX 10 10 4 13
BITMAP
3F00
6180
C0C0
80C0
8040
8040
C0C0
C180
7F00
1E00
ENDCHAR
STARTCHAR 00B1
ENCODING 177
SWIDTH 547 0
DWIDTH 19 0
BBX 18 19 1 2
BITMAP
00C000
00C000
00C000
00C000
00C000
00C000
00C000
00C000
00C000
FFFFC0
00C000
00C000
00C000
00C000
00C000
00C000
00C000
FFFFC0
FFFFC0
ENDCHAR
STARTCHAR 00B2
ENCODING 178
SWIDTH 288 0
DWIDTH 10 0
BBX 10 12 2 11
BITMAP
0F80
1180
01C0
0180
0180
0100
0200
0400
1800
2100
7F00
FE00
ENDCHAR
STARTCHAR 00B3
ENCODING 179
SWIDTH 288 0
DWIDTH 10 0
BBX 9 12 2 11
BITMAP
0F80
1180
0180
0100
0600
1F00
0300
0300
0300
0300
E600
7800
ENDCHAR
STARTCHAR 00B4
ENCODING 180
SWIDTH 345 0
DWIDTH 12 0
BBX 5 6 7 18
BITMAP
38
70
70
60
C0
80
ENDCHAR
STARTCHAR 00B5
ENCODING 181
SWIDTH 576 0
DWIDTH 20 0
BBX 19 22 -1 -7
BITMAP
01C0C0
0180C0
0381C0
038180
030180
030380
070380
070300
060700
0E0700
0E0E00
0E0E20
0E1640
1E6740
17C780
100000
300000
300000
600000
600000
E00000
E00000
ENDCHAR
STARTCHAR 00B6
ENCODING 182
SWIDTH 518 0
DWIDTH 18 0
BBX 16 30 2 -7
BITMAP
0FFF
3F8C
7F8C
FF8C
FF8C
FF8C
FF8C
FF8C
FF8C
7F8C
7F8C
3F8C
078C
008C
008C
008C
008C
008C
008C
008C
008C
008C
008C
008C
008C
008C
008C
008C
008C
008C
ENDCHAR
STARTCHAR 00B7
ENCODING 183
SWIDTH 259 0
DWIDTH 9 0
BBX 4 3 2 10
BITMAP
70
F0
70
ENDCHAR
STARTCHAR 00B8
ENCODING 184
SWIDTH 345 0
DWIDTH 12 0
BBX 7 7 -1 -6
BITMAP
08
08
1C
1E
0E
0C
F8
ENDCHAR
STARTCHAR 00B9
ENCODING 185
SWIDTH 288 0
DWIDTH 10 0
BBX 7 12 3 11
BITMAP
1E
06
06
0C
0C
0C
18
18
18
30
30
F8
ENDCHAR
STARTCHAR 00BA
ENCODING 186
SWIDTH 316 0
DWIDTH 11 0
BBX 10 10 4 14
BITMAP
0200
1D80
3080
60C0
C0C0
C180
C180
C300
C200
7800
ENDCHAR
STARTCHAR 00BB
ENCODING 187
SWIDTH 489 0
DWIDTH 17 0
BBX 15 17 1 -1
BITMAP
0020
0820
0830
0C10
0C18
0618
061C
070C
070E
061C
0C38
1830
3060
20C0
6080
C100
8200
ENDCHAR
STARTCHAR 00BC
ENCODING 188
SWIDTH 748 0
DWIDTH 26 0
BBX 21 24 3 -1
BITMAP
1E0060
060040
0600C0
0C0180
0C0100
0C0300
180600
180400
180C00
300800
301000
F83000
002018
004038
00C070
0080F0
010130
030220
020460
060860
0C0FF0
0800C0
1800C0
300080
ENDCHAR
STARTCHAR 00BD
ENCODING 189
SWIDTH 748 0
DWIDTH 26 0
BBX 21 24 3 -1
BITMAP
1E0040
060080
060180
0C0100
0C0200
0C0600
180400
180C00
181800
301000
303000
F86000
0041F0
00C238
018018
010018
030030
020020
040040
0C0080
080100
100200
300FE0
201FC0
ENDCHAR
STARTCHAR 00BE
ENCODING 190
SWIDTH 748 0
DWIDTH 26 0
BBX 22 24 2 -1
BITMAP
0F8030
118020
018040
0100C0
060080
1F0100
030300
030200
030400
030C00
E60800
781800
00300C
00201C
006038
00C078
008098
018110
030230
020430
0607F8
040060
080060
180040
ENDCHAR
STARTCHAR 00BF
ENCODING 191
SWIDTH 489 0
DWIDTH 17 0
BBX 13 23 1 -6
BITMAP
0078
0078
0030
0000
0000
0000
0020
0040
0040
00C0
0080
0300
0600
0C00
3C00
7800
7000
E000
E060
E060
6060
7060
3FC0
ENDCHAR
STARTCHAR 00C0
ENCODING 192
SWIDTH 604 0
DWIDTH 21 0
BBX 22 31 -2 0
BITMAP
000070
000038
000038
000018
00000C
000004
000000
000010
000010
000030
000070
0000F0
0000E0
0001E0
0003E0
0006E0
0004E0
0008E0
0018E0
0030E0
0020E0
0040E0
00FFE0
0081C0
0101C0
0201C0
0601C0
0401C0
0801C0
1C01C0
FE0FF8
ENDCHAR
STARTCHAR 00C1
ENCODING 193
SWIDTH 604 0
DWIDTH 21 0
BBX 23 31 -2 0
BITMAP
00000E
00001E
00001C
000018
000030
000020
000000
000010
000010
000030
000070
0000F0
0000E0
0001E0
0003E0
0006E0
0004E0
0008E0
0018E0
0030E0
0020E0
0040E0
00FFE0
0081C0
0101C0
0201C0
0601C0
0401C0
0801C0
1C01C0
FE0FF8
ENDCHAR
STARTCHAR 00C2
ENCODING 194
SWIDTH 604 0
DWIDTH 21 0
BBX 23 30 -2 0
BITMAP
00001C
00003E
000066
0000C2
000102
000000
000010
000010
000030
000070
0000F0
0000E0
0001E0
0003E0
0006E0
0004E0
0008E0
0018E0
0030E0
0020E0
0040E0
00FFE0
0081C0
0101C0
0201C0
0601C0
0401C0
0801C0
1C01C0
FE0FF8
ENDCHAR
STARTCHAR 00C3
ENCODING 195
SWIDTH 604 0
DWIDTH 21 0
BBX 25 29 -2 0
BITMAP
0001F080
0001FC80
00023F80
00020F00
00000000
00001000
00001000
00003000
00007000
0000F000
0000E000
0001E000
0003E000
0006E000
0004E000
0008E000
0018E000
0030E000
0020E000
0040E000
00FFE000
0081C000
0101C000
0201C000
0601C000
0401C000
0801C000
1C01C000
FE0FF800
ENDCHAR
STARTCHAR 00C4
ENCODING 196
SWIDTH 604 0
DWIDTH 21 0
BBX 25 29 -2 0
BITMAP
0000E380
0000E380
0000E380
00004100
00000000
00001000
00001000
00003000
00007000
0000F000
0000E000
0001E000
0003E000
0006E000
0004E000
0008E000
0018E000
0030E000
0020E000
0040E000
00FFE000
0081C000
0101C000
0201C000
0601C000
0401C000
0801C000
1C01C000
FE0FF800
ENDCHAR
STARTCHAR 00C5
ENCODING 197
SWIDTH 604 0
DWIDTH 21 0
BBX 23 29 -2 0
BITMAP
00003C
000046
000042
000042
000046
00003C
000010
000030
000070
0000F0
0000E0
0001E0
0003E0
0006E0
0004E0
0008E0
0018E0
0030E0
0020E0
0040E0
00FFE0
0081C0
0101C0
0201C0
0601C0
0401C0
0801C0
1C01C0
FE0FF8
ENDCHAR
STARTCHAR 00C6
ENCODING 198
SWIDTH 892 0
DWIDTH 31 0
BBX 33 23 -2 0
BITMAP
00007FFF80
0000360780
00003E0180
00006E0080
00004E0100
00009C0100
00011C0000
00031C1000
0006181000
000C383000
00083FE000
00103BE000
0020706000
0060702000
00FFF04000
0080E00000
0100E00000
0200E00400
0600E00400
0401C00C00
0801C01800
1803C0F800
FE0FFFF800
ENDCHAR
STARTCHAR 00C7
ENCODING 199
SWIDTH 662 0
DWIDTH 23 0
BBX 22 29 2 -5
BITMAP
003FF4
00E03C
03C01C
070008
0F0008
1E0008
1C0008
3C0000
380000
780000
780000
700000
F00000
F00000
F00000
F00000
700000
700000
780020
380040
3C0080
1F0300
07FE00
004000
00E000
00F000
007000
006000
03C000
ENDCHAR
STARTCHAR 00C8
ENCODING 200
SWIDTH 604 0
DWIDTH 21 0
BBX 23 31 -1 0
BITMAP
000F00
000700
000380
000180
000080
000040
000000
000000
03FFFE
00703E
00700C
007004
00E004
00E004
00E000
01C000
01C080
01C180
01FF80
03FF00
038100
038100
070200
070000
070000
070010
0E0030
0E0060
0E00E0
1E03C0
FFFFC0
ENDCHAR
STARTCHAR 00C9
ENCODING 201
SWIDTH 604 0
DWIDTH 21 0
BBX 23 31 -1 0
BITMAP
0001C0
000380
000380
000300
000600
000400
000000
000000
03FFFE
00703E
00700C
007004
00E004
00E004
00E000
01C000
01C080
01C180
01FF80
03FF00
038100
038100
070200
070000
070000
070010
0E0030
0E0060
0E00E0
1E03C0
FFFFC0
ENDCHAR
STARTCHAR 00CA
ENCODING 202
SWIDTH 604 0
DWIDTH 21 0
BBX 23 30 -1 0
BITMAP
0000E0
0001E0
000360
000430
000810
000000
000000
03FFFE
00703E
00700C
007004
00E004
00E004
00E000
01C000
01C080
01C180
01FF80
03FF00
038100
038100
070200
070000
070000
070010
0E0030
0E0060
0E00E0
1E03C0
FFFFC0
ENDCHAR
STARTCHAR 00CB
ENCODING 203
SWIDTH 604 0
DWIDTH 21 0
BBX 23 29 -1 0
BITMAP
000C30
001E78
001E78
000C30
000000
000000
03FFFE
00703E
00700C
007004
00E004
00E004
00E000
01C000
01C080
01C180
01FF80
03FF00
038100
038100
070200
070000
070000
070010
0E0030
0E0060
0E00E0
1E03C0
FFFFC0
ENDCHAR
STARTCHAR 00CC
ENCODING 204
SWIDTH 345 0
DWIDTH 12 0
BBX 15 31 -1 0
BITMAP
0070
0078
0038
0018
000C
0004
0000
0000
03FE
0078
0070
0070
00E0
00E0
00E0
01C0
01C0
01C0
01C0
0380
0380
0380
0700
0700
0700
0700
0E00
0E00
0E00
1E00
FFC0
ENDCHAR
STARTCHAR 00CD
ENCODING 205
SWIDTH 345 0
DWIDTH 12 0
BBX 15 31 -1 0
BITMAP
001E
001C
0018
0038
0030
0020
0000
0000
03FE
0078
0070
0070
00E0
00E0
00E0
01C0
01C0
01C0
01C0
0380
0380
0380
0700
0700
0700
0700
0E00
0E00
0E00
1E00
FFC0
ENDCHAR
STARTCHAR 00CE
ENCODING 206
SWIDTH 345 0
DWIDTH 12 0
BBX 15 30 -1 0
BITMAP
001C
003E
0076
00C2
0102
0000
0000
03FE
0078
0070
0070
00E0
00E0
00E0
01C0
01C0
01C0
01C0
0380
0380
0380
0700
0700
0700
0700
0E00
0E00
0E00
1E00
FFC0
ENDCHAR
STARTCHAR 00CF
ENCODING 207
SWIDTH 345 0
DWIDTH 12 0
BBX 16 29 -1 0
BITMAP
01C7
01C7
01C7
0082
0000
0000
03FE
0078
0070
0070
00E0
00E0
00E0
01C0
01C0
01C0
01C0
0380
0380
0380
0700
0700
0700
0700
0E00
0E00
0E00
1E00
FFC0
ENDCHAR
STARTCHAR 00D0
ENCODING 208
SWIDTH 720 0
DWIDTH 25 0
BBX 26 23 -1 0
BITMAP
03FFE000
00707C00
00701E00
00700F00
00E00700
00E00780
00E00380
01C003C0
01C003C0
01C003C0
0FFF03C0
1FFF03C0
03800380
03800380
07000780
07000700
07000F00
07000E00
0E001C00
0E003800
0E00E000
1E07C000
FFFE0000
ENDCHAR
STARTCHAR 00D1
ENCODING 209
SWIDTH 662 0
DWIDTH 23 0
BBX 27 30 -1 -1
BITMAP
0007C200
0007E200
0008FC00
00083800
00000000
00000000
07E00FE0
00F00380
00700300
00F00300
00B80200
00B80200
00BC0600
019C0400
011C0400
010E0C00
030E0C00
020E0800
02070800
02071800
06039000
04039000
0403B000
0C01F000
0801E000
0800E000
0800E000
1800C000
FE004000
00004000
ENDCHAR
STARTCHAR 00D2
ENCODING 210
SWIDTH 720 0
DWIDTH 25 0
BBX 23 31 2 -1
BITMAP
000780
000380
000180
0000C0
000040
000040
000000
000000
003FE0
00E078
01C038
03801C
07001C
0E001E
1C001E
1C001E
38001E
78001E
78001E
70001C
F0003C
F0003C
F00038
F00078
F00070
F000E0
7001E0
7003C0
380700
3C0E00
0FF800
ENDCHAR
STARTCHAR 00D3
ENCODING 211
SWIDTH 720 0
DWIDTH 25 0
BBX 23 31 2 -1
BITMAP
0000F0
0000E0
0000C0
000180
000180
000100
000000
000000
003FE0
00E078
01C038
03801C
07001C
0E001E
1C001E
1C001E
38001E
78001E
78001E
70001C
F0003C
F0003C
F00038
F00078
F00070
F000E0
7001E0
7003C0
380700
3C0E00
0FF800
ENDCHAR
STARTCHAR 00D4
ENCODING 212
SWIDTH 720 0
DWIDTH 25 0
BBX 23 30 2 -1
BITMAP
0000E0
0001E0
000360
000420
000810
001000
000000
003FE0
00E078
01C038
03801C
07001C
0E001E
1C001E
1C001E
38001E
78001E
78001E
70001C
F0003C
F0003C
F00038
F00078
F00070
F000E0
7001E0
7003C0
380700
3C0E00
0FF800
ENDCHAR
STARTCHAR 00D5
ENCODING 213
SWIDTH 720 0
DWIDTH 25 0
BBX 23 29 2 -1
BITMAP
000F08
001FC8
0023F8
0020F0
000000
000000
003FE0
00E078
01C038
03801C
07001C
0E001E
1C001E
1C001E
38001E
78001E
78001E
70001C
F0003C
F0003C
F00038
F00078
F00070
F000E0
7001E0
7003C0
380700
3C0E00
0FF800
ENDCHAR
STARTCHAR 00D6
ENCODING 214
SWIDTH 720 0
DWIDTH 25 0
BBX 23 29 2 -1
BITMAP
000E38
000E38
000E38
000410
000000
000000
003FE0
00E078
01C038
03801C
07001C
0E001E
1C001E
1C001E
38001E
78001E
78001E
70001C
F0003C
F0003C
F00038
F00078
F00070
F000E0
7001E0
7003C0
380700
3C0E00
0FF800
ENDCHAR
STARTCHAR 00D7
ENCODING 215
SWIDTH 662 0
DWIDTH 23 0
BBX 14 13 6 5
BITMAP
C00C
6018
3030
1860
0CC0
0780
0300
0780
0CC0
1860
3030
6018
C00C
ENDCHAR
STARTCHAR 00D8
ENCODING 216
SWIDTH 720 0
DWIDTH 25 0
BBX 24 25 1 -1
BITMAP
000001
001FF3
00703E
00E01C
01C01E
03803E
07002F
0E004F
1E008F
1C010F
3C020F
3C040F
38080E
78181E
78301E
78601C
78C03C
798038
7B0070
3E00E0
3C01C0
1C0380
3E0700
67FC00
C00000
ENDCHAR
STARTCHAR 00D9
ENCODING 217
SWIDTH 720 0
DWIDTH 25 0
BBX 24 32 4 -1
BITMAP
001E00
000E00
000600
000300
000100
000100
000000
000000
FFC07F
1E0018
1C0018
1C0018
1C0010
1C0010
380030
380020
380020
700060
700040
700040
700040
E000C0
E00080
E00080
E00180
E00100
E00300
E00200
700400
3C1800
1FF000
010000
ENDCHAR
STARTCHAR 00DA
ENCODING 218
SWIDTH 720 0
DWIDTH 25 0
BBX 24 32 4 -1
BITMAP
000780
000700
000E00
000C00
000800
000800
000000
000000
FFC07F
1E0018
1C0018
1C0018
1C0010
1C0010
380030
380020
380020
700060
700040
700040
700040
E000C0
E00080
E00080
E00180
E00100
E00300
E00200
700400
3C1800
1FF000
010000
ENDCHAR
STARTCHAR 00DB
ENCODING 219
SWIDTH 720 0
DWIDTH 25 0
BBX 24 31 4 -1
BITMAP
000700
000F00
001980
003180
004080
000000
000000
FFC07F
1E0018
1C0018
1C0018
1C0010
1C0010
380030
380020
380020
700060
700040
700040
700040
E000C0
E00080
E00080
E00180
E00100
E00300
E00200
700400
3C1800
1FF000
010000
ENDCHAR
STARTCHAR 00DC
ENCODING 220
SWIDTH 720 0
DWIDTH 25 0
BBX 24 30 4 -1
BITMAP
0071C0
0071C0
0071C0
002080
000000
000000
FFC07F
1E0018
1C0018
1C0018
1C0010
1C0010
380030
380020
380020
700060
700040
700040
700040
E000C0
E00080
E00080
E00180
E00100
E00300
E00200
700400
3C1800
1FF000
010000
ENDCHAR
STARTCHAR 00DD
ENCODING 221
SWIDTH 547 0
DWIDTH 19 0
BBX 20 31 3 0
BITMAP
000F00
000E00
001C00
001800
001000
002000
000000
000000
7F87F0
1E01C0
0E0180
0E0300
0E0200
070400
070C00
071800
031000
03A000
03E000
03C000
038000
038000
038000
070000
070000
070000
070000
0E0000
0E0000
1E0000
FFC000
ENDCHAR
STARTCHAR 00DE
ENCODING 222
SWIDTH 604 0
DWIDTH 21 0
BBX 22 23 -1 0
BITMAP
03FE00
007800
007000
007000
00E000
00FFC0
00E1F0
01C078
01C03C
01C03C
01C03C
03803C
03803C
038038
070078
0700F0
070FC0
07FE00
0E0000
0E0000
0E0000
1E0000
FF8000
ENDCHAR
STARTCHAR 00DF
ENCODING 223
SWIDTH 489 0
DWIDTH 17 0
BBX 23 31 -6 -7
BITMAP
0000F8
00030C
000606
000606
000E06
000C06
001C0E
001C0C
001818
003870
003980
003060
003030
007038
007038
006018
00E038
00E038
00C038
00C038
01CC70
018C60
018CC0
038D80
030200
030000
030000
060000
060000
EC0000
580000
ENDCHAR
STARTCHAR 00E0
ENCODING 224
SWIDTH 489 0
DWIDTH 17 0
BBX 15 24 1 0
BITMAP
00E0
0070
0030
0030
0018
0008
0000
0000
0000
03EE
061E
0C1C
181C
381C
301C
7018
6038
E038
E070
E070
E0F2
E174
FE74
7C78
ENDCHAR
STARTCHAR 00E1
ENCODING 225
SWIDTH 489 0
DWIDTH 17 0
BBX 15 24 1 0
BITMAP
003C
0038
0030
0030
0060
0040
0000
0000
0000
03EE
061E
0C1C
181C
381C
301C
7018
6038
E038
E070
E070
E0F2
E174
FE74
7C78
ENDCHAR
STARTCHAR 00E2
ENCODING 226
SWIDTH 489 0
DWIDTH 17 0
BBX 15 24 1 0
BITMAP
001C
003C
007C
0046
0082
0100
0000
0000
0000
03EE
061E
0C1C
181C
381C
301C
7018
6038
E038
E070
E070
E0F2
E174
FE74
7C78
ENDCHAR
STARTCHAR 00E3
ENCODING 227
SWIDTH 489 0
DWIDTH 17 0
BBX 16 23 1 0
BITMAP
01E1
03F1
047F
043E
0000
0000
0000
0000
03EE
061E
0C1C
181C
381C
301C
7018
6038
E038
E070
E070
E0F2
E174
FE74
7C78
ENDCHAR
STARTCHAR 00E4
ENCODING 228
SWIDTH 489 0
DWIDTH 17 0
BBX 16 23 1 0
BITMAP
0082
01C7
01C7
0186
0000
0000
0000
0000
03EE
061E
0C1C
181C
381C
301C
7018
6038
E038
E070
E070
E0F2
E174
FE74
7C78
ENDCHAR
STARTCHAR 00E5
ENCODING 229
SWIDTH 489 0
DWIDTH 17 0
BBX 15 24 1 0
BITMAP
0038
0044
00C2
0082
0044
007C
0000
0000
0000
03EE
061E
0C1C
181C
381C
301C
7018
6038
E038
E070
E070
E0F2
E174
FE74
7C78
ENDCHAR
STARTCHAR 00E6
ENCODING 230
SWIDTH 662 0
DWIDTH 23 0
BBX 22 15 1 0
BITMAP
03ECF8
061F1C
0C1E1C
181C18
381C18
301830
7038E0
603F00
E07800
E07000
C0B000
E13010
E33820
FE3CC0
7C1F80
ENDCHAR
STARTCHAR 00E7
ENCODING 231
SWIDTH 432 0
DWIDTH 15 0
BBX 14 21 1 -6
BITMAP
01F8
060C
0C1C
181C
3018
7000
6000
E000
E000
E000
E000
E010
F020
7840
3F80
0400
0E00
0F00
0300
0700
3E00
ENDCHAR
STARTCHAR 00E8
ENCODING 232
SWIDTH 432 0
DWIDTH 15 0
BBX 14 24 1 0
BITMAP
01E0
00E0
0060
0030
0030
0010
0000
0000
0000
01F8
061C
0C1C
181C
3818
3030
70E0
6780
F800
E000
E000
E008
7030
7CC0
3F80
ENDCHAR
STARTCHAR 00E9
ENCODING 233
SWIDTH 432 0
DWIDTH 15 0
BBX 14 24 1 0
BITMAP
0038
0070
0070
0060
00C0
0080
0000
0000
0000
01F8
061C
0C1C
181C
3818
3030
70E0
6780
F800
E000
E000
E008
7030
7CC0
3F80
ENDCHAR
STARTCHAR 00EA
ENCODING 234
SWIDTH 432 0
DWIDTH 15 0
BBX 14 24 1 0
BITMAP
0018
0038
007C
008C
0104
0200
0000
0000
0000
01F8
061C
0C1C
181C
3818
3030
70E0
6780
F800
E000
E000
E008
7030
7CC0
3F80
ENDCHAR
STARTCHAR 00EB
ENCODING 235
SWIDTH 432 0
DWIDTH 15 0
BBX 15 23 1 0
BITMAP
0104
038E
038E
038E
0000
0000
0000
0000
01F8
061C
0C1C
181C
3818
3030
70E0
6780
F800
E000
E000
E008
7030
7CC0
3F80
ENDCHAR
STARTCHAR 00EC
ENCODING 236
SWIDTH 288 0
DWIDTH 10 0
BBX 7 24 2 0
BITMAP
3C
1C
0C
06
02
02
00
00
00
7C
38
18
38
38
30
70
70
60
60
E0
E4
C8
F0
E0
ENDCHAR
STARTCHAR 00ED
ENCODING 237
SWIDTH 288 0
DWIDTH 10 0
BBX 9 24 2 0
BITMAP
0380
0780
0700
0600
0C00
0800
0000
0000
0000
7C00
3800
1800
3800
3800
3000
7000
7000
6000
6000
E000
E400
C800
F000
E000
ENDCHAR
STARTCHAR 00EE
ENCODING 238
SWIDTH 288 0
DWIDTH 10 0
BBX 10 24 2 0
BITMAP
0380
0780
0F80
1880
20C0
4040
0000
0000
0000
7C00
3800
1800
3800
3800
3000
7000
7000
6000
6000
E000
E400
C800
F000
E000
ENDCHAR
STARTCHAR 00EF
ENCODING 239
SWIDTH 288 0
DWIDTH 10 0
BBX 11 23 2 0
BITMAP
30C0
79E0
79E0
30C0
0000
0000
0000
0000
7C00
3800
1800
3800
3800
3000
7000
7000
6000
6000
E000
E400
C800
F000
E000
ENDCHAR
STARTCHAR 00F0
ENCODING 240
SWIDTH 489 0
DWIDTH 17 0
BBX 15 24 1 0
BITMAP
0040
0066
002C
0030
00D8
0118
000C
000C
000E
03FE
061E
0C0E
180E
380E
700E
700E
E00E
E01C
E01C
E038
E038
E070
60E0
3F80
ENDCHAR
STARTCHAR 00F1
ENCODING 241
SWIDTH 489 0
DWIDTH 17 0
BBX 16 23 1 0
BITMAP
01E1
03F1
047F
043E
0000
0000
0000
0000
3C3C
5C7C
1C8C
1D0C
1A1C
3A1C
3C18
3838
3838
7030
7030
6072
E074
E078
C070
ENDCHAR
STARTCHAR 00F2
ENCODING 242
SWIDTH 489 0
DWIDTH 17 0
BBX 15 24 1 0
BITMAP
0070
0078
0038
0018
0008
0004
0000
0000
0000
01F8
060C
0C0E
180E
380E
700E
700E
E00E
E01C
E01C
E038
E038
E070
70E0
3F80
ENDCHAR
STARTCHAR 00F3
ENCODING 243
SWIDTH 489 0
DWIDTH 17 0
BBX 15 24 1 0
BITMAP
003C
0038
0030
0030
0060
0040
0000
0000
0000
01F8
060C
0C0E
180E
380E
700E
700E
E00E
E01C
E01C
E038
E038
E070
70E0
3F80
ENDCHAR
STARTCHAR 00F4
ENCODING 244
SWIDTH 489 0
DWIDTH 17 0
BBX 15 24 1 0
BITMAP
001C
003C
007C
0046
0082
0100
0000
0000
0000
01F8
060C
0C0E
180E
380E
700E
700E
E00E
E01C
E01C
E038
E038
E070
70E0
3F80
ENDCHAR
STARTCHAR 00F5
ENCODING 245
SWIDTH 489 0
DWIDTH 17 0
BBX 16 23 1 0
BITMAP
01E1
03F1
047F
043E
0000
0000
0000
0000
01F8
060C
0C0E
180E
380E
700E
700E
E00E
E01C
E01C
E038
E038
E070
70E0
3F80
ENDCHAR
STARTCHAR 00F6
ENCODING 246
SWIDTH 489 0
DWIDTH 17 0
BBX 16 23 1 0
BITMAP
0082
01C7
01C7
0186
0000
0000
0000
0000
01F8
060C
0C0E
180E
380E
700E
700E
E00E
E01C
E01C
E038
E038
E070
70E0
3F80
ENDCHAR
STARTCHAR 00F7
ENCODING 247
SWIDTH 547 0
DWIDTH 19 0
BBX 18 13 1 5
BITMAP
00C000
00C000
00C000
000000
000000
000000
FFFFC0
000000
000000
000000
004000
00E000
00C000
ENDCHAR
STARTCHAR 00F8
ENCODING 248
SWIDTH 489 0
DWIDTH 17 0
BBX 17 17 0 -1
BITMAP
000180
00FD00
030E00
060700
0C0F00
1C1700
382700
384700
708700
710E00
720E00
741C00
781C00
303800
387000
5DC000
820000
ENDCHAR
STARTCHAR 00F9
ENCODING 249
SWIDTH 489 0
DWIDTH 17 0
BBX 15 24 1 0
BITMAP
03C0
01C0
00E0
0060
0020
0010
0000
0000
0000
1C06
7C0E
9C0E
9C0C
181C
381C
3838
3838
3078
70B8
70B0
6132
6274
7C7C
7878
ENDCHAR
STARTCHAR 00FA
ENCODING 250
SWIDTH 489 0
DWIDTH 17 0
BBX 15 24 1 0
BITMAP
003C
0038
0030
0030
0060
0040
0000
0000
0000
1C06
7C0E
9C0E
9C0C
181C
381C
3838
3838
3078
70B8
70B0
6132
6274
7C7C
7878
ENDCHAR
STARTCHAR 00FB
ENCODING 251
SWIDTH 489 0
DWIDTH 17 0
BBX 15 24 1 0
BITMAP
0038
0078
00F8
018C
0304
0400
0000
0000
0000
1C06
7C0E
9C0E
9C0C
181C
381C
3838
3838
3078
70B8
70B0
6132
6274
7C7C
7878
ENDCHAR
STARTCHAR 00FC
ENCODING 252
SWIDTH 489 0
DWIDTH 17 0
BBX 16 23 1 0
BITMAP
0186
03CF
03CF
0186
0000
0000
0000
0000
1C06
7C0E
9C0E
9C0C
181C
381C
3838
3838
3078
70B8
70B0
6132
6274
7C7C
7878
ENDCHAR
STARTCHAR 00FD
ENCODING 253
SWIDTH 432 0
DWIDTH 15 0
BBX 18 31 -3 -7
BITMAP
000380
000780
000700
000600
000400
000800
000000
000000
000000
0781C0
0B81C0
01C0C0
01C040
01C040
01C080
01C100
01C100
00C200
00C400
00C400
00C800
00D000
00E000
00E000
00C000
008000
010000
020000
040000
E80000
F00000
ENDCHAR
STARTCHAR 00FE
ENCODING 254
SWIDTH 489 0
DWIDTH 17 0
BBX 18 31 -2 -7
BITMAP
00F000
01F000
006000
006000
00E000
00E000
00C000
01C000
01C000
018F80
0193C0
03E1C0
03C1C0
0381C0
0701C0
0701C0
0601C0
060180
0E0380
0E0300
0C0600
1C0E00
1C1800
1FF000
180000
380000
380000
300000
700000
700000
F00000
ENDCHAR
STARTCHAR 00FF
ENCODING 255
SWIDTH 432 0
DWIDTH 15 0
BBX 19 30 -3 -7
BITMAP
0030C0
0079E0
0079E0
0030C0
000000
000000
000000
000000
0781C0
0B81C0
01C0C0
01C040
01C040
01C080
01C100
01C100
00C200
00C400
00C400
00C800
00D000
00E000
00E000
00C000
008000
010000
020000
040000
E80000
F00000
ENDCHAR
STARTCHAR 0100
ENCODING 256
SWIDTH 604 0
DWIDTH 21 0
BBX 25 28 -2 0
BITMAP
0001FF80
0001FF80
00000000
00000000
00001000
00001000
00003000
00007000
0000F000
0000E000
0001E000
0003E000
0006E000
0004E000
0008E000
0018E000
0030E000
0020E000
0040E000
00FFE000
0081C000
0101C000
0201C000
0601C000
0401C000
0801C000
1C01C000
FE0FF800
ENDCHAR
STARTCHAR 0101
ENCODING 257
SWIDTH 489 0
DWIDTH 17 0
BBX 16 21 1 0
BITMAP
03FF
03FF
0000
0000
0000
0000
03EE
061E
0C1C
181C
381C
301C
7018
6038
E038
E070
E070
E0F2
E174
FE74
7C78
ENDCHAR
STARTCHAR 0102
ENCODING 258
SWIDTH 604 0
DWIDTH 21 0
BBX 26 30 -2 0
BITMAP
00008040
0000C080
00007700
00007E00
00003C00
00000000
00001000
00001000
00003000
00007000
0000F000
0000E000
0001E000
0003E000
0006E000
0004E000
0008E000
0018E000
0030E000
0020E000
0040E000
00FFE000
0081C000
0101C000
0201C000
0601C000
0401C000
0801C000
1C01C000
FE0FF800
ENDCHAR
STARTCHAR 0103
ENCODING 259
SWIDTH 489 0
DWIDTH 17 0
BBX 16 24 1 0
BITMAP
0201
0202
038C
01F8
00F0
0000
0000
0000
0000
03EE
061E
0C1C
181C
381C
301C
7018
6038
E038
E070
E070
E0F2
E174
FE74
7C78
ENDCHAR
STARTCHAR 0104
ENCODING 260
SWIDTH 604 0
DWIDTH 21 0
BBX 21 30 -2 -6
BITMAP
000010
000010
000030
000070
0000F0
0000E0
0001E0
0003E0
0006E0
0004E0
0008E0
0018E0
0030E0
0020E0
0040E0
00FFE0
0081C0
0101C0
0201C0
0601C0
0401C0
0801C0
1C01C0
FE0FF8
000200
000200
000600
000700
000380
0003F8
ENDCHAR
STARTCHAR 0105
ENCODING 261
SWIDTH 489 0
DWIDTH 17 0
BBX 15 21 1 -6
BITMAP
03EE
061E
0C1C
181C
381C
301C
7018
6038
E038
E070
E070
E0F2
E174
FE74
7C78
0040
0040
00C0
00E0
0070
007E
ENDCHAR
STARTCHAR 0106
ENCODING 262
SWIDTH 662 0
DWIDTH 23 0
BBX 22 32 2 -1
BITMAP
0000E0
0001C0
0001C0
000180
000300
000200
000000
000000
003FF4
00E03C
03C01C
070008
0F0008
1E0008
1C0008
3C0000
380000
780000
780000
700000
F00000
F00000
F00000
F00000
700000
700000
780020
380040
3C0080
1F0300
07FE00
004000
ENDCHAR
STARTCHAR 0107
ENCODING 263
SWIDTH 432 0
DWIDTH 15 0
BBX 14 24 1 0
BITMAP
003C
0038
0070
0060
0040
0080
0000
0000
0000
01F8
060C
0C1C
181C
3018
7000
6000
E000
E000
E000
E000
E010
F020
7840
3F80
ENDCHAR
STARTCHAR 0108
ENCODING 264
SWIDTH 662 0
DWIDTH 23 0
BBX 22 31 2 -1
BITMAP
0001C0
0003C0
0006E0
000C60
001020
000000
000000
003FF4
00E03C
03C01C
070008
0F0008
1E0008
1C0008
3C0000
380000
780000
780000
700000
F00000
F00000
F00000
F00000
700000
700000
780020
380040
3C0080
1F0300
07FE00
004000
ENDCHAR
STARTCHAR 0109
ENCODING 265
SWIDTH 432 0
DWIDTH 15 0
BBX 14 24 1 0
BITMAP
0038
0038
007C
008C
0104
0200
0000
0000
0000
01F8
060C
0C1C
181C
3018
7000
6000
E000
E000
E000
E000
E010
F020
7840
3F80
ENDCHAR
STARTCHAR 010A
ENCODING 266
SWIDTH 662 0
DWIDTH 23 0
BBX 22 30 2 -1
BITMAP
000380
000380
000380
000000
000000
000000
003FF4
00E03C
03C01C
070008
0F0008
1E0008
1C0008
3C0000
380000
780000
780000
700000
F00000
F00000
F00000
F00000
700000
700000
780020
380040
3C0080
1F0300
07FE00
004000
ENDCHAR
STARTCHAR 010B
ENCODING 267
SWIDTH 432 0
DWIDTH 15 0
BBX 14 21 1 0
BITMAP
0070
0070
0070
0000
0000
0000
01F8
060C
0C1C
181C
3018
7000
6000
E000
E000
E000
E000
E010
F020
7840
3F80
ENDCHAR
STARTCHAR 010C
ENCODING 268
SWIDTH 662 0
DWIDTH 23 0
BBX 22 31 2 -1
BITMAP
000008
000410
000660
0007C0
000380
000000
000000
003FF4
00E03C
03C01C
070008
0F0008
1E0008
1C0008
3C0000
380000
780000
780000
700000
F00000
F00000
F00000
F00000
700000
700000
780020
380040
3C0080
1F0300
07FE00
004000
ENDCHAR
STARTCHAR 010D
ENCODING 269
SWIDTH 432 0
DWIDTH 15 0
BBX 17 24 1 0
BITMAP
000080
008100
00C600
00EC00
007800
007000
000000
000000
000000
01F800
060C00
0C1C00
181C00
301800
700000
600000
E00000
E00000
E00000
E00000
E01000
F02000
784000
3F8000
ENDCHAR
STARTCHAR 010E
ENCODING 270
SWIDTH 720 0
DWIDTH 25 0
BBX 25 30 -1 0
BITMAP
00000800
00041000
00066000
0007C000
00078000
00000000
00000000
03FFE000
00707800
00701E00
00E00F00
00E00700
00E00780
00E00380
01C00380
01C00380
01C00380
03800380
03800380
03800380
03800780
07000700
07000700
07000E00
0E001E00
0E001C00
0E003800
1E00E000
1E078000
FFFE0000
ENDCHAR
STARTCHAR 010F
ENCODING 271
SWIDTH 604 0
DWIDTH 21 0
BBX 23 24 1 0
BITMAP
0003CE
000F8E
00038E
000386
000304
000308
000710
000700
000600
01FE00
061E00
0C1C00
181C00
381C00
701C00
601800
E03800
E03800
E07000
E0B000
E17200
E37400
FE7800
787000
ENDCHAR
STARTCHAR 0110
ENCODING 272
SWIDTH 720 0
DWIDTH 25 0
BBX 26 23 -1 0
BITMAP
03FFE000
00707C00
00701E00
00700F00
00E00700
00E00780
00E00380
01C003C0
01C003C0
01C003C0
0FFF03C0
1FFF03C0
03800380
03800380
07000780
07000700
07000F00
07000E00
0E001C00
0E003800
0E00E000
1E07C000
FFFE0000
ENDCHAR
STARTCHAR 0111
ENCODING 273
SWIDTH 489 0
DWIDTH 17 0
BBX 19 24 1 0
BITMAP
0003C0
000F80
000380
000380
00FFE0
01FFE0
000700
000700
000600
01FE00
061E00
0C1C00
181C00
381C00
701C00
601800
E03800
E03800
E07000
E0B000
E17200
E37400
FE7800
787000
ENDCHAR
STARTCHAR 0112
ENCODING 274
SWIDTH 604 0
DWIDTH 21 0
BBX 23 28 -1 0
BITMAP
000FFC
001FFC
000000
000000
000000
03FFFE
00703E
00700C
007004
00E004
00E004
00E000
01C000
01C080
01C180
01FF80
03FF00
038100
038100
070200
070000
070000
070010
0E0030
0E0060
0E00E0
1E03C0
FFFFC0
ENDCHAR
STARTCHAR 0113
ENCODING 275
SWIDTH 432 0
DWIDTH 15 0
BBX 15 21 1 0
BITMAP
07FE
07FE
0000
0000
0000
0000
01F8
061C
0C1C
181C
3818
3030
70E0
6780
F800
E000
E000
E008
7030
7CC0
3F80
ENDCHAR
STARTCHAR 0114
ENCODING 276
SWIDTH 604 0
DWIDTH 21 0
BBX 23 30 -1 0
BITMAP
000804
000418
0007F0
0003E0
000180
000000
000000
03FFFE
00703E
00700C
007004
00E004
00E004
00E000
01C000
01C080
01C180
01FF80
03FF00
038100
038100
070200
070000
070000
070010
0E0030
0E0060
0E00E0
1E03C0
FFFFC0
ENDCHAR
STARTCHAR 0115
ENCODING 277
SWIDTH 432 0
DWIDTH 15 0
BBX 16 24 1 0
BITMAP
0201
0102
018E
01FC
00F0
0000
0000
0000
0000
01F8
061C
0C1C
181C
3818
3030
70E0
6780
F800
E000
E000
E008
7030
7CC0
3F80
ENDCHAR
STARTCHAR 0116
ENCODING 278
SWIDTH 604 0
DWIDTH 21 0
BBX 23 29 -1 0
BITMAP
000380
0003C0
000380
000000
000000
000000
03FFFE
00703E
00700C
007004
00E004
00E004
00E000
01C000
01C080
01C180
01FF80
03FF00
038100
038100
070200
070000
070000
070010
0E0030
0E0060
0E00E0
1E03C0
FFFFC0
ENDCHAR
STARTCHAR 0117
ENCODING 279
SWIDTH 432 0
DWIDTH 15 0
BBX 14 23 1 0
BITMAP
0020
0070
0070
0060
0000
0000
0000
0000
01F8
061C
0C1C
181C
3818
3030
70E0
6780
F800
E000
E000
E008
7030
7CC0
3F80
ENDCHAR
STARTCHAR 0118
ENCODING 280
SWIDTH 604 0
DWIDTH 21 0
BBX 23 29 -1 -6
BITMAP
03FFFE
00703E
00700C
007004
00E004
00E004
00E000
01C000
01C080
01C180
01FF80
03FF00
038100
038100
070200
070000
070000
070010
0E0030
0E0060
0E00E0
1E03C0
FFFFC0
000400
000800
000C00
000C00
000E00
0007E0
ENDCHAR
STARTCHAR 0119
ENCODING 281
SWIDTH 432 0
DWIDTH 15 0
BBX 14 21 1 -6
BITMAP
01F8
061C
0C1C
181C
3818
3030
70E0
6780
F800
E000
E000
E008
7030
7CC0
3F80
0400
0400
0C00
0E00
0700
07E0
ENDCHAR
STARTCHAR 011A
ENCODING 282
SWIDTH 604 0
DWIDTH 21 0
BBX 23 30 -1 0
BITMAP
000808
000410
000660
0007C0
000780
000000
000000
03FFFE
00703E
00700C
007004
00E004
00E004
00E000
01C000
01C080
01C180
01FF80
03FF00
038100
038100
070200
070000
070000
070010
0E0030
0E0060
0E00E0
1E03C0
FFFFC0
ENDCHAR
STARTCHAR 011B
ENCODING 283
SWIDTH 432 0
DWIDTH 15 0
BBX 17 24 1 0
BITMAP
000080
008100
00C600
00DC00
00F800
007000
000000
000000
000000
01F800
061C00
0C1C00
181C00
381800
303000
70E000
678000
F80000
E00000
E00000
E00800
703000
7CC000
3F8000
ENDCHAR
STARTCHAR 011C
ENCODING 284
SWIDTH 720 0
DWIDTH 25 0
BBX 23 31 2 -1
BITMAP
0000E0
0001E0
000360
000430
000810
001000
000002
003FF6
00E01E
03800C
07000C
0E0004
1E0004
1C0000
3C0000
380000
780000
700000
7003FE
7000F8
F00070
F00070
7000E0
7000E0
7800E0
7801C0
3801C0
1C01C0
0E03C0
07FF00
002000
ENDCHAR
STARTCHAR 011D
ENCODING 285
SWIDTH 489 0
DWIDTH 17 0
BBX 19 31 -1 -7
BITMAP
000700
000F00
001F00
003100
004180
008080
000000
000000
000000
01FC00
0707E0
0E0700
0E0700
1C0700
1C0700
1C0F00
1C0E00
0E1C00
07F000
030000
040000
0C0000
0F8000
0FF800
11FE00
601E00
E00700
C00600
E00600
700C00
3FF000
ENDCHAR
STARTCHAR 011E
ENCODING 286
SWIDTH 720 0
DWIDTH 25 0
BBX 23 31 2 -1
BITMAP
000804
000C08
000770
0007F0
0003C0
000000
000002
003FF6
00E01E
03800C
07000C
0E0004
1E0004
1C0000
3C0000
380000
780000
700000
7003FE
7000F8
F00070
F00070
7000E0
7000E0
7800E0
7801C0
3801C0
1C01C0
0E03C0
07FF00
002000
ENDCHAR
STARTCHAR 011F
ENCODING 287
SWIDTH 489 0
DWIDTH 17 0
BBX 19 31 -1 -7
BITMAP
008040
008080
00E300
007E00
003C00
000000
000000
000000
000000
01FC00
0707E0
0E0700
0E0700
1C0700
1C0700
1C0F00
1C0E00
0E1C00
07F000
030000
040000
0C0000
0F8000
0FF800
11FE00
601E00
E00700
C00600
E00600
700C00
3FF000
ENDCHAR
STARTCHAR 0120
ENCODING 288
SWIDTH 720 0
DWIDTH 25 0
BBX 23 30 2 -1
BITMAP
000380
0003C0
000380
000000
000000
000002
003FF6
00E01E
03800C
07000C
0E0004
1E0004
1C0000
3C0000
380000
780000
700000
7003FE
7000F8
F00070
F00070
7000E0
7000E0
7800E0
7801C0
3801C0
1C01C0
0E03C0
07FF00
002000
ENDCHAR
STARTCHAR 0121
ENCODING 289
SWIDTH 489 0
DWIDTH 17 0
BBX 19 30 -1 -7
BITMAP
001800
003C00
003C00
001800
000000
000000
000000
000000
01FC00
0707E0
0E0700
0E0700
1C0700
1C0700
1C0F00
1C0E00
0E1C00
07F000
030000
040000
0C0000
0F8000
0FF800
11FE00
601E00
E00700
C00600
E00600
700C00
3FF000
ENDCHAR
STARTCHAR 0122
ENCODING 290
SWIDTH 720 0
DWIDTH 25 0
BBX 23 30 2 -6
BITMAP
000002
003FF6
00E01E
03800C
07000C
0E0004
1E0004
1C0000
3C0000
380000
780000
700000
7003FE
7000F8
F00070
F00070
7000E0
7000E0
7800E0
7801C0
3801C0
1C01C0
0E03C0
07FF00
00E000
00E000
01E000
006000
006000
07C000
ENDCHAR
STARTCHAR 0123
ENCODING 291
SWIDTH 489 0
DWIDTH 17 0
BBX 19 32 -1 -7
BITMAP
000C00
003000
006000
006000
007000
007000
000000
000000
000000
000000
01FC00
0707E0
0E0700
0E0700
1C0700
1C0700
1C0F00
1C0E00
0E1C00
07F000
030000
040000
0C0000
0F8000
0FF800
11FE00
601E00
E00700
C00600
E00600
700C00
3FF000
ENDCHAR
STARTCHAR 0124
ENCODING 292
SWIDTH 720 0
DWIDTH 25 0
BBX 29 30 -1 0
BITMAP
00003800
00007C00
0000EC00
00018400
00020400
00000000
00000000
03FE0FF8
007803C0
007003C0
00700380
00E00380
00E00380
00E00700
01C00700
01C00700
01C00E00
01FFFE00
03800E00
03800E00
03801C00
07001C00
07001C00
07003800
0E003800
0E003800
0E003800
0E007000
1E007000
FF83FE00
ENDCHAR
STARTCHAR 0125
ENCODING 293
SWIDTH 489 0
DWIDTH 17 0
BBX 17 30 1 0
BITMAP
000700
000F00
001B00
003180
004080
000000
038000
1F8000
030000
030000
070000
070000
060000
0E0000
0E0000
0C3C00
0C7C00
1C8C00
1D0C00
1A1C00
3A1C00
3C1800
383800
383800
703000
703000
607200
E07400
E07800
C07000
ENDCHAR
STARTCHAR 0126
ENCODING 294
SWIDTH 720 0
DWIDTH 25 0
BBX 29 23 -1 0
BITMAP
03FE0FF8
007803C0
007003C0
03FFFFF0
07FFFFF0
00E00380
00E00700
01C00700
01C00700
01C00E00
03FFFE00
03800E00
03800E00
03801C00
07001C00
07001C00
07003800
0E003800
0E003800
0E003800
1E007000
1E007000
FF83FE00
ENDCHAR
STARTCHAR 0127
ENCODING 295
SWIDTH 489 0
DWIDTH 17 0
BBX 15 24 1 0
BITMAP
0780
1F80
0300
0300
3FF8
3FF8
0600
0E00
0E00
0C3C
0C7C
1C8C
1D0C
1A1C
3A1C
3C18
3838
3838
7030
7030
6072
E074
E078
C070
ENDCHAR
STARTCHAR 0128
ENCODING 296
SWIDTH 345 0
DWIDTH 12 0
BBX 17 30 -1 0
BITMAP
004000
01F880
01FC80
021F00
020E00
000000
000000
03FE00
007800
007000
007000
00E000
00E000
00E000
01C000
01C000
01C000
01C000
038000
038000
038000
070000
070000
070000
070000
0E0000
0E0000
0E0000
1E0000
FFC000
ENDCHAR
STARTCHAR 0129
ENCODING 297
SWIDTH 288 0
DWIDTH 10 0
BBX 11 23 2 0
BITMAP
3C20
7F20
4FE0
83C0
0000
0000
0000
0000
7C00
3800
1800
3800
3800
3000
7000
7000
6000
6000
E000
E400
C800
F000
E000
ENDCHAR
STARTCHAR 012A
ENCODING 298
SWIDTH 345 0
DWIDTH 12 0
BBX 17 28 -1 0
BITMAP
01FF80
01FF80
000000
000000
000000
03FE00
007800
007000
007000
00E000
00E000
00E000
01C000
01C000
01C000
01C000
038000
038000
038000
070000
070000
070000
070000
0E0000
0E0000
0E0000
1E0000
FFC000
ENDCHAR
STARTCHAR 012B
ENCODING 299
SWIDTH 288 0
DWIDTH 10 0
BBX 11 21 2 0
BITMAP
FFE0
FFC0
0000
0000
0000
0000
7C00
3800
1800
3800
3800
3000
7000
7000
6000
6000
E000
E400
C800
F000
E000
ENDCHAR
STARTCHAR 012C
ENCODING 300
SWIDTH 345 0
DWIDTH 12 0
BBX 17 30 -1 0
BITMAP
008080
00C180
007F00
007E00
001800
000000
000000
03FE00
007800
007000
007000
00E000
00E000
00E000
01C000
01C000
01C000
01C000
038000
038000
038000
070000
070000
070000
070000
0E0000
0E0000
0E0000
1E0000
FFC000
ENDCHAR
STARTCHAR 012D
ENCODING 301
SWIDTH 288 0
DWIDTH 10 0
BBX 11 23 2 1
BITMAP
2060
31C0
1F80
1F00
0000
0000
0000
0000
7C00
3800
1800
3800
3800
3000
7000
7000
6000
6000
E000
E400
C800
F000
E000
ENDCHAR
STARTCHAR 012E
ENCODING 302
SWIDTH 345 0
DWIDTH 12 0
BBX 15 29 -1 -6
BITMAP
03FE
0078
0070
0070
00E0
00E0
00E0
01C0
01C0
01C0
01C0
0380
0380
0380
0700
0700
0700
0700
0E00
0E00
0E00
1E00
FFC0
0800
1800
1800
1C00
1E00
0FC0
ENDCHAR
STARTCHAR 012F
ENCODING 303
SWIDTH 288 0
DWIDTH 10 0
BBX 8 28 1 -6
BITMAP
07
07
07
00
00
00
00
3E
1C
0C
1C
1C
18
38
38
30
30
70
72
64
78
70
40
C0
C0
C0
E0
7E
ENDCHAR
STARTCHAR 0130
ENCODING 304
SWIDTH 345 0
DWIDTH 12 0
BBX 15 29 -1 0
BITMAP
001C
001C
001C
0000
0000
0000
03FE
0078
0070
0070
00E0
00E0
00E0
01C0
01C0
01C0
01C0
0380
0380
0380
0700
0700
0700
0700
0E00
0E00
0E00
1E00
FFC0
ENDCHAR
STARTCHAR 0131
ENCODING 305
SWIDTH 288 0
DWIDTH 10 0
BBX 6 15 2 0
BITMAP
7C
38
18
38
38
30
70
70
60
60
E0
E4
C8
F0
E0
ENDCHAR
STARTCHAR 0132
ENCODING 306
SWIDTH 748 0
DWIDTH 26 0
BBX 30 24 -1 -1
BITMAP
03FE07FC
007801E0
007001C0
007001C0
00E001C0
00E00380
00E00380
01C00380
01C00700
01C00700
01C00700
03800700
03800E00
03800E00
07000E00
07001C00
07001C00
07001C00
0E383800
0E383800
0E387000
1E30E000
FFFFC000
00040000
ENDCHAR
STARTCHAR 0133
ENCODING 307
SWIDTH 489 0
DWIDTH 17 0
BBX 16 29 1 -7
BITMAP
0707
0707
0707
0000
0000
0000
0000
3E3E
5C1C
1C1C
1C1C
1818
1818
3838
3838
3030
7070
7070
6260
6460
E8E0
F0E0
00C0
01C0
01C0
0180
0300
6200
7C00
ENDCHAR
STARTCHAR 0134
ENCODING 308
SWIDTH 432 0
DWIDTH 15 0
BBX 20 30 -1 -1
BITMAP
0000F0
0001F0
0003B0
000610
000810
000000
000000
001FF0
000780
000780
000700
000700
000700
000E00
000E00
000E00
001C00
001C00
001C00
001C00
003800
003800
003800
007000
007000
607000
F0E000
E0C000
E18000
7F0000
ENDCHAR
STARTCHAR 0135
ENCODING 309
SWIDTH 288 0
DWIDTH 10 0
BBX 17 31 -6 -7
BITMAP
000300
000780
000F80
001980
002080
004000
000000
000000
000000
007C00
001C00
001800
001800
003800
003800
003000
007000
007000
006000
00E000
00E000
00E000
00C000
01C000
01C000
018000
038000
030000
030000
E60000
FC0000
ENDCHAR
STARTCHAR 0136
ENCODING 310
SWIDTH 662 0
DWIDTH 23 0
BBX 26 29 -1 -6
BITMAP
03FE1FC0
00700E00
00700C00
00701800
00E06000
00E0C000
00E18000
01C60000
01CC0000
01D80000
03F00000
03B80000
03BC0000
039C0000
070E0000
070F0000
07070000
0E038000
0E03C000
0E01C000
0E01E000
1E01F000
FF87FE00
00000000
00700000
00700000
00380000
00300000
03E00000
ENDCHAR
STARTCHAR 0137
ENCODING 311
SWIDTH 432 0
DWIDTH 15 0
BBX 17 30 0 -6
BITMAP
03C000
078000
018000
038000
038000
030000
070000
070000
060000
067F80
0E1C00
0E1000
0C2000
1C4000
1C8000
1B8000
1DC000
39C000
38C000
30E000
70E200
70E400
607800
E07000
000000
0E0000
0F0000
070000
060000
7C0000
ENDCHAR
STARTCHAR 0138
ENCODING 312
SWIDTH 432 0
DWIDTH 15 0
BBX 17 15 0 0
BITMAP
3E7F80
0E1C00
0E1000
0C2000
1C4000
1C8000
1B8000
1DC000
39C000
38C000
30E000
70E200
70E400
607800
E07000
ENDCHAR
STARTCHAR 0139
ENCODING 313
SWIDTH 547 0
DWIDTH 19 0
BBX 19 31 -1 0
BITMAP
0003C0
000380
000700
000600
000400
000800
000000
000000
03FE00
007000
007000
00E000
00E000
00E000
00E000
01C000
01C000
01C000
038000
038000
038000
038000
070000
070000
070020
0E0020
0E0040
0E0040
1E00C0
1E0780
FFFF80
ENDCHAR
STARTCHAR 013A
ENCODING 314
SWIDTH 288 0
DWIDTH 10 0
BBX 12 31 1 0
BITMAP
00F0
00E0
01C0
0180
0100
0200
0000
0380
0F80
0380
0300
0700
0700
0600
0600
0E00
0E00
0C00
1C00
1C00
1800
1800
3800
3800
3000
7000
7000
6200
6400
F800
F000
ENDCHAR
STARTCHAR 013B
ENCODING 315
SWIDTH 547 0
DWIDTH 19 0
BBX 19 29 -1 -6
BITMAP
03FE00
007000
007000
00E000
00E000
00E000
00E000
01C000
01C000
01C000
038000
038000
038000
038000
070000
070000
070020
0E0020
0E0040
0E0040
1E00C0
1E0780
FFFF80
000000
01C000
01E000
00E000
00C000
0F8000
ENDCHAR
STARTCHAR 013C
ENCODING 316
SWIDTH 288 0
DWIDTH 10 0
BBX 12 30 -2 -6
BITMAP
0070
01F0
0070
0060
00E0
00E0
00C0
00C0
01C0
01C0
0180
0380
0380
0300
0300
0700
0700
0600
0E00
0E00
0C40
0C80
1F00
1E00
0000
1C00
3C00
0C00
0C00
F800
ENDCHAR
STARTCHAR 013D
ENCODING 317
SWIDTH 547 0
DWIDTH 19 0
BBX 22 23 -1 1
BITMAP
03FE1C
00703C
00701C
00E008
00E018
00E030
00E040
01C000
01C000
01C000
038000
038000
038000
038000
070000
070000
070020
0E0020
0E0040
0E0040
1E00C0
1E0780
FFFF80
ENDCHAR
STARTCHAR 013E
ENCODING 318
SWIDTH 374 0
DWIDTH 13 0
BBX 15 24 1 0
BITMAP
038C
1F9E
039E
030C
070C
0708
0630
0600
0E00
0E00
0C00
1C00
1C00
1800
1800
3800
3800
3000
7000
7000
6200
6400
F800
F000
ENDCHAR
STARTCHAR 013F
ENCODING 319
SWIDTH 547 0
DWIDTH 19 0
BBX 19 23 -1 0
BITMAP
03FE00
007000
007000
00E000
00E000
00E000
00E000
01C000
01C000
01C300
038780
038780
038300
038000
070000
070000
070020
0E0020
0E0040
0E0040
1E00C0
1E0780
FFFF80
ENDCHAR
STARTCHAR 0140
ENCODING 320
SWIDTH 316 0
DWIDTH 11 0
BBX 12 24 1 0
BITMAP
0380
0F80
0380
0300
0700
0700
0600
0600
0E00
0E00
0C20
1C70
1C70
1860
1800
3800
3800
3000
7000
7000
6200
6400
F800
F000
ENDCHAR
STARTCHAR 0141
ENCODING 321
SWIDTH 547 0
DWIDTH 19 0
BBX 19 23 -1 0
BITMAP
03FE00
00F000
007000
00E000
00E000
00E000
00E400
01CC00
01D800
01F000
03C000
038000
078000
0F8000
1F0000
270000
470020
0E0020
0E0040
0E0040
1E00C0
1E0780
FFFF80
ENDCHAR
STARTCHAR 0142
ENCODING 322
SWIDTH 288 0
DWIDTH 10 0
BBX 9 24 1 0
BITMAP
0780
0F80
0380
0300
0700
0700
0600
0600
0E00
0E80
0F00
1E00
1C00
3800
D800
3800
3800
3000
7000
7000
6200
6400
F800
F000
ENDCHAR
STARTCHAR 0143
ENCODING 323
SWIDTH 662 0
DWIDTH 23 0
BBX 27 32 -1 -1
BITMAP
00003800
00007000
00007000
00006000
0000C000
00008000
00000000
00000000
07E00FE0
00F00380
00700300
00F00300
00B80200
00B80200
00BC0600
019C0400
011C0400
010E0C00
030E0C00
020E0800
02070800
02071800
06039000
04039000
0403B000
0C01F000
0801E000
0800E000
0800E000
1800C000
FE004000
00004000
ENDCHAR
STARTCHAR 0144
ENCODING 324
SWIDTH 489 0
DWIDTH 17 0
BBX 15 24 1 0
BITMAP
003C
0038
0030
0060
0060
0040
0000
0000
0000
3C3C
5C7C
1C8C
1D0C
1A1C
3A1C
3C18
3838
3838
7030
7030
6072
E074
E078
C070
ENDCHAR
STARTCHAR 0145
ENCODING 325
SWIDTH 662 0
DWIDTH 23 0
BBX 27 29 -1 -6
BITMAP
07E00FE0
00F00380
00700300
00F00300
00B80200
00B80200
00BC0600
019C0400
011C0400
010E0C00
030E0C00
020E0800
02070800
02071800
06039000
04039000
0403B000
0C01F000
0801E000
0800E000
0800E000
1800C000
FE004000
00004000
00700000
00F00000
00380000
00300000
03E00000
ENDCHAR
STARTCHAR 0146
ENCODING 326
SWIDTH 489 0
DWIDTH 17 0
BBX 15 21 1 -6
BITMAP
3C3C
5C7C
1C8C
1D0C
1A1C
3A1C
3C18
3838
3838
7030
7030
6072
E074
E078
C070
0000
0E00
0F00
0700
0600
7C00
ENDCHAR
STARTCHAR 0147
ENCODING 327
SWIDTH 662 0
DWIDTH 23 0
BBX 27 31 -1 -1
BITMAP
00020200
00020C00
00031800
0001F000
0001E000
00000000
00000000
07E00FE0
00F00380
00700300
00F00300
00B80200
00B80200
00BC0600
019C0400
011C0400
010E0C00
030E0C00
020E0800
02070800
02071800
06039000
04039000
0403B000
0C01F000
0801E000
0800E000
0800E000
1800C000
FE004000
00004000
ENDCHAR
STARTCHAR 0148
ENCODING 328
SWIDTH 489 0
DWIDTH 17 0
BBX 15 24 1 0
BITMAP
0002
0204
0318
03B0
01E0
01C0
0000
0000
0000
3C3C
5C7C
1C8C
1D0C
1A1C
3A1C
3C18
3838
3838
7030
7030
6072
E074
E078
C070
ENDCHAR
STARTCHAR 0149
ENCODING 329
SWIDTH 576 0
DWIDTH 20 0
BBX 17 23 2 1
BITMAP
380000
380000
380000
180000
100000
200000
C00000
000000
0F0F00
171F00
072700
064700
0E8700
0F0600
0D0E00
0E0E00
1C0C00
1C0C00
181C00
381C80
381900
301E00
701C00
ENDCHAR
STARTCHAR 014A
ENCODING 330
SWIDTH 691 0
DWIDTH 24 0
BBX 25 24 -1 0
BITMAP
03F0FC00
00731E00
00760700
00740700
00E80780
00F00380
00F00380
01E00780
01E00780
01C00780
01C00780
03800700
03800700
03800F00
07000E00
07040E00
070E0C00
071E1C00
0E1E1800
0E183800
0E103000
1E106000
FFCFC000
00020000
ENDCHAR
STARTCHAR 014B
ENCODING 331
SWIDTH 489 0
DWIDTH 17 0
BBX 14 22 1 -7
BITMAP
3C3C
5C7C
1C8C
1D0C
1A1C
3A1C
3C18
3838
3838
7038
7030
6070
E070
E060
C0E0
00E0
00C0
00C0
0180
0180
7300
6E00
ENDCHAR
STARTCHAR 014C
ENCODING 332
SWIDTH 720 0
DWIDTH 25 0
BBX 23 28 2 -1
BITMAP
001FF8
001FF8
000000
000000
000000
003FE0
00E078
01C038
03801C
07001C
0E001E
1C001E
1C001E
38001E
78001E
78001E
70001C
F0003C
F0003C
F00038
F00078
F00070
F000E0
7001E0
7003C0
380700
3C0E00
0FF800
ENDCHAR
STARTCHAR 014D
ENCODING 333
SWIDTH 489 0
DWIDTH 17 0
BBX 16 21 1 0
BITMAP
03FF
03FF
0000
0000
0000
0000
01F8
060C
0C0E
180E
380E
700E
700E
E00E
E01C
E01C
E038
E038
E070
70E0
3F80
ENDCHAR
STARTCHAR 014E
ENCODING 334
SWIDTH 720 0
DWIDTH 25 0
BBX 23 30 2 -1
BITMAP
000808
000C18
000FF0
0007E0
000180
000000
000000
003FE0
00E078
01C038
03801C
07001C
0E001E
1C001E
1C001E
38001E
78001E
78001E
70001C
F0003C
F0003C
F00038
F00078
F00070
F000E0
7001E0
7003C0
380700
3C0E00
0FF800
ENDCHAR
STARTCHAR 014F
ENCODING 335
SWIDTH 489 0
DWIDTH 17 0
BBX 17 24 1 0
BITMAP
010080
010100
01C600
00FC00
007800
000000
000000
000000
000000
01F800
060C00
0C0E00
180E00
380E00
700E00
700E00
E00E00
E01C00
E01C00
E03800
E03800
E07000
70E000
3F8000
ENDCHAR
STARTCHAR 0150
ENCODING 336
SWIDTH 720 0
DWIDTH 25 0
BBX 23 31 2 -1
BITMAP
0003DE
00039C
000318
000630
000630
000420
000000
000000
003FE0
00E078
01C038
03801C
07001C
0E001E
1C001E
1C001E
38001E
78001E
78001E
70001C
F0003C
F0003C
F00038
F00078
F00070
F000E0
7001E0
7003C0
380700
3C0E00
0FF800
ENDCHAR
STARTCHAR 0151
ENCODING 337
SWIDTH 489 0
DWIDTH 17 0
BBX 18 24 1 0
BITMAP
007BC0
007380
00E700
00C600
008400
010800
000000
000000
000000
01F800
060C00
0C0E00
180E00
380E00
700E00
700E00
E00E00
E01C00
E01C00
E03800
E03800
E07000
70E000
3F8000
ENDCHAR
STARTCHAR 0152
ENCODING 338
SWIDTH 950 0
DWIDTH 33 0
BBX 33 23 1 0
BITMAP
001FFFFF80
00707C1F00
01C03C0300
0380380100
0700380200
0E00380000
1C00380000
3C00702000
3800702000
7800704000
7000FFC000
F000FFC000
F000E0C000
F000C08000
E001C08000
E001C00000
E001C00000
E003800800
F003800800
7003801800
3807803000
1C0F81F000
0FFFFFF000
ENDCHAR
STARTCHAR 0153
ENCODING 339
SWIDTH 662 0
DWIDTH 23 0
BBX 21 15 1 0
BITMAP
03F0F8
061B18
1C1E18
181C18
381C38
701830
7018C0
E03B80
E03C00
E03000
E07000
E07810
E0F820
619FC0
3F1F80
ENDCHAR
STARTCHAR 0154
ENCODING 340
SWIDTH 604 0
DWIDTH 21 0
BBX 21 31 -1 0
BITMAP
0001E0
0001C0
000380
000300
000200
000400
000000
000000
03FFC0
00F1E0
007070
006078
00E038
00E038
00E078
01C070
01C070
01C0E0
0187C0
03FE00
038E00
038E00
070700
070700
070700
060380
0E0380
0E0380
0E01C0
1E01C0
FF81F8
ENDCHAR
STARTCHAR 0155
ENCODING 341
SWIDTH 403 0
DWIDTH 14 0
BBX 13 24 1 0
BITMAP
0070
00F0
00E0
00C0
0080
0100
0000
0000
0000
7C38
1C78
1CB8
1D10
1A00
1A00
3C00
3800
3800
7000
7000
6000
E000
E000
C000
ENDCHAR
STARTCHAR 0156
ENCODING 342
SWIDTH 604 0
DWIDTH 21 0
BBX 21 29 -1 -6
BITMAP
03FFC0
00F1E0
007070
006078
00E038
00E038
00E078
01C070
01C070
01C0E0
0187C0
03FE00
038E00
038E00
070700
070700
070700
060380
0E0380
0E0380
0E01C0
1E01C0
FF81F8
000000
00E000
00E000
007000
006000
07C000
ENDCHAR
STARTCHAR 0157
ENCODING 343
SWIDTH 403 0
DWIDTH 14 0
BBX 14 21 0 -6
BITMAP
3E1C
0E3C
0E5C
0E88
0D00
0D00
1E00
1C00
1C00
3800
3800
3000
7000
7000
6000
0000
3C00
3C00
0C00
0C00
F800
ENDCHAR
STARTCHAR 0158
ENCODING 344
SWIDTH 604 0
DWIDTH 21 0
BBX 21 30 -1 0
BITMAP
001010
001860
0008C0
000F80
000F00
000000
000000
03FFC0
00F1E0
007070
006078
00E038
00E038
00E078
01C070
01C070
01C0E0
0187C0
03FE00
038E00
038E00
070700
070700
070700
060380
0E0380
0E0380
0E01C0
1E01C0
FF81F8
ENDCHAR
STARTCHAR 0159
ENCODING 345
SWIDTH 403 0
DWIDTH 14 0
BBX 14 24 1 0
BITMAP
0004
0408
0630
0760
03C0
0380
0000
0000
0000
7C38
1C78
1CB8
1D10
1A00
1A00
3C00
3800
3800
7000
7000
6000
E000
E000
C000
ENDCHAR
STARTCHAR 015A
ENCODING 346
SWIDTH 489 0
DWIDTH 17 0
BBX 19 32 0 -1
BITMAP
000700
000F00
000E00
000C00
001800
001000
000000
000020
00FE60
0383C0
0300C0
0700C0
0700C0
070080
070080
078000
03C000
01E000
01F000
00F800
007C00
003E00
001E00
200F00
200F00
200F00
600E00
600E00
700C00
781C00
CFF000
808000
ENDCHAR
STARTCHAR 015B
ENCODING 347
SWIDTH 403 0
DWIDTH 14 0
BBX 13 24 0 0
BITMAP
0078
0070
0060
00C0
0080
0080
0000
0000
0000
07F0
0C30
1810
1C10
1C10
0E00
0F00
0780
03C0
01C0
81C0
C0C0
C0C0
C180
FF00
ENDCHAR
STARTCHAR 015C
ENCODING 348
SWIDTH 489 0
DWIDTH 17 0
BBX 19 31 0 -1
BITMAP
000780
000780
000D80
001080
002040
004000
000020
00FE60
0383C0
0300C0
0700C0
0700C0
070080
070080
078000
03C000
01E000
01F000
00F800
007C00
003E00
001E00
200F00
200F00
200F00
600E00
600E00
700C00
781C00
CFF000
808000
ENDCHAR
STARTCHAR 015D
ENCODING 349
SWIDTH 403 0
DWIDTH 14 0
BBX 14 24 0 0
BITMAP
0038
0078
00F8
0188
020C
0404
0000
0000
0000
07F0
0C30
1810
1C10
1C10
0E00
0F00
0780
03C0
01C0
81C0
C0C0
C0C0
C180
FF00
ENDCHAR
STARTCHAR 015E
ENCODING 350
SWIDTH 489 0
DWIDTH 17 0
BBX 19 30 0 -6
BITMAP
000020
00FE60
0383C0
0300C0
0700C0
0700C0
070080
070080
078000
03C000
01E000
01F000
00F800
007C00
003E00
001E00
200F00
200F00
200F00
600E00
600E00
700C00
781C00
CFF000
818000
01C000
03C000
00C000
00C000
0F8000
ENDCHAR
STARTCHAR 015F
ENCODING 351
SWIDTH 403 0
DWIDTH 14 0
BBX 12 21 0 -6
BITMAP
07F0
0C30
1810
1C10
1C10
0E00
0F00
0780
03C0
01C0
81C0
C0C0
C0C0
C180
FB00
0C00
1C00
1E00
0E00
0C00
7800
ENDCHAR
STARTCHAR 0160
ENCODING 352
SWIDTH 489 0
DWIDTH 17 0
BBX 19 31 0 -1
BITMAP
002000
0020C0
003180
001F00
001E00
000000
000020
00FE60
0383C0
0300C0
0700C0
0700C0
070080
070080
078000
03C000
01E000
01F000
00F800
007C00
003E00
001E00
200F00
200F00
200F00
600E00
600E00
700C00
781C00
CFF000
808000
ENDCHAR
STARTCHAR 0161
ENCODING 353
SWIDTH 403 0
DWIDTH 14 0
BBX 14 24 0 0
BITMAP
0400
040C
0210
0360
03C0
0380
0000
0000
0000
07F0
0C30
1810
1C10
1C10
0E00
0F00
0780
03C0
01C0
81C0
C0C0
C0C0
C180
FF00
ENDCHAR
STARTCHAR 0162
ENCODING 354
SWIDTH 547 0
DWIDTH 19 0
BBX 19 30 3 -8
BITMAP
3FFFE0
3C73E0
606060
40E040
40E040
80E040
01C000
01C000
01C000
038000
038000
038000
038000
070000
070000
070000
0E0000
0E0000
0E0000
0E0000
1C0000
1E0000
FFC000
000000
100000
380000
380000
180000
100000
600000
ENDCHAR
STARTCHAR 0163
ENCODING 355
SWIDTH 288 0
DWIDTH 10 0
BBX 10 28 0 -8
BITMAP
0080
0080
0100
0300
0700
3FC0
0600
0E00
0E00
0C00
0C00
1C00
1C00
1800
3800
3800
3100
3200
7600
3800
0000
2000
7000
7000
3000
2000
4000
8000
ENDCHAR
STARTCHAR 0164
ENCODING 356
SWIDTH 547 0
DWIDTH 19 0
BBX 19 30 3 0
BITMAP
000080
004100
006600
007C00
003800
000000
000000
3FFFE0
3C73E0
606060
40E040
40E040
80E040
01C000
01C000
01C000
038000
038000
038000
038000
070000
070000
070000
0E0000
0E0000
0E0000
0E0000
1C0000
1E0000
FFC000
ENDCHAR
STARTCHAR 0165
ENCODING 357
SWIDTH 374 0
DWIDTH 13 0
BBX 15 24 1 0
BITMAP
000C
001E
001E
000C
010C
0108
0230
0600
0E00
7F80
0C00
1C00
1C00
1800
1800
3800
3800
3000
7000
7000
6200
6400
EC00
7000
ENDCHAR
STARTCHAR 0166
ENCODING 358
SWIDTH 547 0
DWIDTH 19 0
BBX 19 23 3 0
BITMAP
3FFFE0
3E71E0
607060
40E060
40E040
80E040
01C000
01C000
01C000
01C000
FFFE00
FFFE00
038000
070000
070000
070000
070000
0E0000
0E0000
0E0000
1C0000
1E0000
FFC000
ENDCHAR
STARTCHAR 0167
ENCODING 359
SWIDTH 288 0
DWIDTH 10 0
BBX 9 20 1 0
BITMAP
0100
0100
0200
0600
0E00
7F80
0C00
1C00
1C00
1800
FF00
3800
3800
3000
7000
7000
6200
6400
E800
7000
ENDCHAR
STARTCHAR 0168
ENCODING 360
SWIDTH 720 0
DWIDTH 25 0
BBX 24 31 4 -1
BITMAP
000810
003E10
007FA0
0047E0
0001C0
000000
000000
FFC07F
1E0018
1C0018
1C0018
1C0010
1C0010
380030
380020
380020
700060
700040
700040
700040
E000C0
E00080
E00080
E00180
E00100
E00300
E00200
700400
3C1800
1FF000
010000
ENDCHAR
STARTCHAR 0169
ENCODING 361
SWIDTH 489 0
DWIDTH 17 0
BBX 16 23 1 0
BITMAP
01E1
03F1
047F
043E
0000
0000
0000
0000
1C06
7C0E
9C0E
9C0C
181C
381C
3838
3838
3078
70B8
70B0
6132
6274
7C7C
7878
ENDCHAR
STARTCHAR 016A
ENCODING 362
SWIDTH 720 0
DWIDTH 25 0
BBX 24 29 4 -1
BITMAP
007FE0
007FE0
000000
000000
000000
FFC07F
1E0018
1C0018
1C0018
1C0010
1C0010
380030
380020
380020
700060
700040
700040
700040
E000C0
E00080
E00080
E00180
E00100
E00300
E00200
700400
3C1800
1FF000
010000
ENDCHAR
STARTCHAR 016B
ENCODING 363
SWIDTH 489 0
DWIDTH 17 0
BBX 16 21 1 0
BITMAP
03FF
07FF
0000
0000
0000
0000
1C06
7C0E
9C0E
9C0C
181C
381C
3838
3838
3078
70B8
70B0
6132
6274
7C7C
7878
ENDCHAR
STARTCHAR 016C
ENCODING 364
SWIDTH 720 0
DWIDTH 25 0
BBX 24 31 4 -1
BITMAP
002020
003060
001FC0
001F80
000600
000000
000000
FFC07F
1E0018
1C0018
1C0018
1C0010
1C0010
380030
380020
380020
700060
700040
700040
700040
E000C0
E00080
E00080
E00180
E00100
E00300
E00200
700400
3C1800
1FF000
010000
ENDCHAR
STARTCHAR 016D
ENCODING 365
SWIDTH 489 0
DWIDTH 17 0
BBX 16 24 1 0
BITMAP
0001
0103
018E
01FC
00F8
0000
0000
0000
0000
1C06
7C0E
9C0E
9C0C
181C
381C
3838
3838
3078
70B8
70B0
6132
6274
7C7C
7878
ENDCHAR
STARTCHAR 016E
ENCODING 366
SWIDTH 720 0
DWIDTH 25 0
BBX 24 32 4 -1
BITMAP
000600
001B00
001080
001080
001080
001900
000600
000000
FFC07F
1E0018
1C0018
1C0018
1C0010
1C0010
380030
380020
380020
700060
700040
700040
700040
E000C0
E00080
E00080
E00180
E00100
E00300
E00200
700400
3C1800
1FF000
010000
ENDCHAR
STARTCHAR 016F
ENCODING 367
SWIDTH 489 0
DWIDTH 17 0
BBX 15 24 1 0
BITMAP
00F0
0088
0108
0108
0188
00F0
0000
0000
0000
1C06
7C0E
9C0E
9C0C
181C
381C
3838
3838
3078
70B8
70B0
6132
6274
7C7C
7878
ENDCHAR
STARTCHAR 0170
ENCODING 368
SWIDTH 720 0
DWIDTH 25 0
BBX 24 32 4 -1
BITMAP
001EF0
001CE0
001CC0
0019C0
003180
002100
000000
000000
FFC07F
1E0018
1C0018
1C0018
1C0010
1C0010
380030
380020
380020
700060
700040
700040
700040
E000C0
E00080
E00080
E00180
E00100
E00300
E00200
700400
3C1800
1FF000
010000
ENDCHAR
STARTCHAR 0171
ENCODING 369
SWIDTH 489 0
DWIDTH 17 0
BBX 17 24 1 0
BITMAP
00F780
00E700
00C600
018C00
018800
010800
000000
000000
000000
1C0600
7C0E00
9C0E00
9C0C00
181C00
381C00
383800
383800
307800
70B800
70B000
613200
627400
7C7C00
787800
ENDCHAR
STARTCHAR 0172
ENCODING 370
SWIDTH 720 0
DWIDTH 25 0
BBX 24 29 4 -6
BITMAP
FFC07F
1E0018
1C0018
1C0018
1C0010
1C0010
380030
380020
380020
700060
700040
700040
700040
E000C0
E00080
E00080
E00180
E00100
E00300
E00200
700400
3C1800
1FF000
030000
020000
020000
030000
038000
01F800
ENDCHAR
STARTCHAR 0173
ENCODING 371
SWIDTH 489 0
DWIDTH 17 0
BBX 17 21 1 -6
BITMAP
1C0600
7C0E00
9C0E00
9C0C00
181C00
381C00
383800
383800
307800
70B800
70B000
613200
627400
7C7C00
787800
001000
002000
002000
003000
003800
001F80
ENDCHAR
STARTCHAR 0174
ENCODING 372
SWIDTH 835 0
DWIDTH 29 0
BBX 29 31 4 -1
BITMAP
0001E000
0003E000
00076000
000C2000
00102000
00000000
00000000
FFBFE3F8
3C0781C0
1C070080
1C070180
1C0F0100
180F0200
38170600
38370400
38270800
384E1800
38CE1000
388E2000
390E6000
3B0E4000
3A0E8000
340F8000
7C0F0000
780E0000
781E0000
701C0000
601C0000
60180000
40100000
00100000
ENDCHAR
STARTCHAR 0175
ENCODING 373
SWIDTH 662 0
DWIDTH 23 0
BBX 22 24 1 0
BITMAP
000380
000780
000F80
0018C0
003040
004000
000000
000000
000000
780C1C
F80C1C
181C0C
181C0C
182C08
1C4C08
1C4C10
1C8C20
1C8C20
0D0C40
0E0E80
0E0F00
0C0F00
0C0E00
080C00
ENDCHAR
STARTCHAR 0176
ENCODING 374
SWIDTH 547 0
DWIDTH 19 0
BBX 20 30 3 0
BITMAP
000E00
001E00
003600
004300
008100
000000
000000
7F87F0
1E01C0
0E0180
0E0300
0E0200
070400
070C00
071800
031000
03A000
03E000
03C000
038000
038000
038000
070000
070000
070000
070000
0E0000
0E0000
1E0000
FFC000
ENDCHAR
STARTCHAR 0177
ENCODING 375
SWIDTH 432 0
DWIDTH 15 0
BBX 18 31 -3 -7
BITMAP
000380
000780
000F80
001880
0020C0
004040
000000
000000
000000
0781C0
0B81C0
01C0C0
01C040
01C040
01C080
01C100
01C100
00C200
00C400
00C400
00C800
00D000
00E000
00E000
00C000
008000
010000
020000
040000
E80000
F00000
ENDCHAR
STARTCHAR 0178
ENCODING 376
SWIDTH 547 0
DWIDTH 19 0
BBX 20 29 3 0
BITMAP
01C700
01C700
01C700
008200
000000
000000
7F87F0
1E01C0
0E0180
0E0300
0E0200
070400
070C00
071800
031000
03A000
03E000
03C000
038000
038000
038000
070000
070000
070000
070000
0E0000
0E0000
1E0000
FFC000
ENDCHAR
STARTCHAR 0179
ENCODING 377
SWIDTH 547 0
DWIDTH 19 0
BBX 21 31 0 0
BITMAP
000380
000780
000700
000600
000C00
000800
000000
000000
07FFF8
070078
0C00F0
0801E0
1003C0
000380
000700
000F00
001E00
003C00
003800
007000
00F000
01E000
03C000
038000
070000
0F0000
1E0040
3C00C0
380180
700780
FFFF80
ENDCHAR
STARTCHAR 017A
ENCODING 378
SWIDTH 403 0
DWIDTH 14 0
BBX 15 24 -1 0
BITMAP
003C
0038
0030
0060
0060
0040
0000
0000
0000
0FFE
1FFC
1808
1010
0020
0040
0080
0100
0200
0400
0808
1010
2030
7FF0
FFE0
ENDCHAR
STARTCHAR 017B
ENCODING 379
SWIDTH 547 0
DWIDTH 19 0
BBX 21 29 0 0
BITMAP
000600
000F00
000E00
000400
000000
000000
07FFF8
070078
0C00F0
0801E0
1003C0
000380
000700
000F00
001E00
003C00
003800
007000
00F000
01E000
03C000
038000
070000
0F0000
1E0040
3C00C0
380180
700780
FFFF80
ENDCHAR
STARTCHAR 017C
ENCODING 380
SWIDTH 403 0
DWIDTH 14 0
BBX 15 23 -1 0
BITMAP
0060
00F0
00F0
0060
0000
0000
0000
0000
0FFE
1FFC
1808
1010
0020
0040
0080
0100
0200
0400
0808
1010
2030
7FF0
FFE0
ENDCHAR
STARTCHAR 017D
ENCODING 381
SWIDTH 547 0
DWIDTH 19 0
BBX 21 30 0 0
BITMAP
002020
0030C0
001180
001F00
001E00
000000
000000
07FFF8
070078
0C00F0
0801E0
1003C0
000380
000700
000F00
001E00
003C00
003800
007000
00F000
01E000
03C000
038000
070000
0F0000
1E0040
3C00C0
380180
700780
FFFF80
ENDCHAR
STARTCHAR 017E
ENCODING 382
SWIDTH 403 0
DWIDTH 14 0
BBX 15 24 -1 0
BITMAP
0200
0206
0108
01B0
01E0
01C0
0000
0000
0000
0FFE
1FFC
1808
1010
0020
0040
0080
0100
0200
0400
0808
1010
2030
7FF0
FFE0
ENDCHAR
STARTCHAR 017F
ENCODING 383
SWIDTH 288 0
DWIDTH 10 0
BBX 22 31 -6 -7
BITMAP
00007C
00008C
00010C
000300
000600
000600
000E00
000C00
001C00
001C00
001800
001800
003800
003800
003000
003000
007000
007000
006000
00E000
00E000
00E000
00C000
01C000
018000
018000
018000
030000
420000
E40000
F80000
ENDCHAR
STARTCHAR 018F
ENCODING 399
SWIDTH 691 0
DWIDTH 24 0
BBX 22 25 2 -1
BITMAP
040000
07FFC0
0701E0
0600F0
0C0078
080038
080038
00003C
00003C
00003C
00003C
00003C
7FFFFC
F0003C
F00038
F00038
F00078
F00070
F000E0
7000E0
7001C0
380380
1C0F00
0FFC00
008000
ENDCHAR
STARTCHAR 0192
ENCODING 402
SWIDTH 489 0
DWIDTH 17 0
BBX 17 31 0 -7
BITMAP
000200
000D80
001980
001900
003000
003000
003000
007000
007000
03FE00
006000
00E000
00E000
00E000
00E000
01C000
01C000
01C000
01C000
038000
038000
038000
030000
030000
070000
070000
060000
060000
CC0000
C80000
F00000
ENDCHAR
STARTCHAR 01A0
ENCODING 416
SWIDTH 720 0
DWIDTH 25 0
BBX 26 24 2 -1
BITMAP
000001C0
003FE1C0
00E071C0
01C03C80
03801F00
07001C00
0E001E00
1C001E00
1C001E00
38001E00
78001E00
78001E00
70001C00
F0003C00
F0003C00
F0003800
F0007800
F0007000
F000E000
7001E000
7003C000
38070000
3C0E0000
0FF80000
ENDCHAR
STARTCHAR 01A1
ENCODING 417
SWIDTH 547 0
DWIDTH 19 0
BBX 19 16 1 0
BITMAP
0000E0
03F8E0
060CE0
0C0FC0
180E00
380E00
700E00
700E00
E00E00
E01C00
E01C00
E03800
E03800
E07000
70E000
3F8000
ENDCHAR
STARTCHAR 01AF
ENCODING 431
SWIDTH 748 0
DWIDTH 26 0
BBX 27 28 4 -1
BITMAP
00000060
000000E0
000000E0
00000060
FFC07F80
1E001800
1C001800
1C001800
1C001000
1C001000
38003000
38002000
38002000
70006000
70004000
70004000
60004000
E000C000
E0008000
E0008000
E0018000
E0010000
E0030000
E0020000
70040000
3C180000
1FF00000
01000000
ENDCHAR
STARTCHAR 01B0
ENCODING 432
SWIDTH 547 0
DWIDTH 19 0
BBX 19 15 1 0
BITMAP
1C06E0
7C0EE0
9C0E60
9C0CC0
181F00
381C00
383800
383800
307800
70B800
70B000
613200
627400
7C7C00
787800
ENDCHAR
STARTCHAR 01CD
ENCODING 461
SWIDTH 604 0
DWIDTH 21 0
BBX 26 30 -2 0
BITMAP
000040C0
00006100
00003600
00003C00
00003800
00000000
00001000
00001000
00003000
00007000
0000F000
0000E000
0001E000
0003E000
0006E000
0004E000
0008E000
0018E000
0030E000
0020E000
0040E000
00FFE000
0081C000
0101C000
0201C000
0601C000
0401C000
0801C000
1C01C000
FE0FF800
ENDCHAR
STARTCHAR 01CE
ENCODING 462
SWIDTH 489 0
DWIDTH 17 0
BBX 17 24 1 0
BITMAP
000080
008100
00C600
00EC00
007800
007000
000000
000000
000000
03EE00
061E00
0C1C00
181C00
381C00
301C00
701800
603800
E03800
E07000
E07000
E0F200
E17400
FE7400
7C7800
ENDCHAR
STARTCHAR 01CF
ENCODING 463
SWIDTH 345 0
DWIDTH 12 0
BBX 17 30 -1 0
BITMAP
004080
006300
007600
003C00
003800
000000
000000
03FE00
007800
007000
007000
00E000
00E000
00E000
01C000
01C000
01C000
01C000
038000
038000
038000
070000
070000
070000
070000
0E0000
0E0000
0E0000
1E0000
FFC000
ENDCHAR
STARTCHAR 01D0
ENCODING 464
SWIDTH 288 0
DWIDTH 10 0
BBX 12 24 2 0
BITMAP
0010
1020
18C0
1B80
1F00
0E00
0000
0000
0000
7C00
3800
1800
3800
3800
3000
7000
7000
6000
6000
E000
E400
C800
F000
E000
ENDCHAR
STARTCHAR 01D1
ENCODING 465
SWIDTH 720 0
DWIDTH 25 0
BBX 23 30 2 -1
BITMAP
00040C
000610
000360
0003C0
000380
000000
000000
003FE0
00E078
01C038
03801C
07001C
0E001E
1C001E
1C001E
38001E
78001E
78001E
70001C
F0003C
F0003C
F00038
F00078
F00070
F000E0
7001E0
7003C0
380700
3C0E00
0FF800
ENDCHAR
STARTCHAR 01D2
ENCODING 466
SWIDTH 489 0
DWIDTH 17 0
BBX 17 23 1 1
BITMAP
008180
00C600
006C00
007800
007000
000000
000000
000000
01F800
060C00
0C0E00
180E00
380E00
700E00
700E00
E00E00
E01C00
E01C00
E03800
E03800
E07000
70E000
3F8000
ENDCHAR
STARTCHAR 01D3
ENCODING 467
SWIDTH 720 0
DWIDTH 25 0
BBX 24 31 4 -1
BITMAP
002060
001080
001B00
001E00
001C00
000000
000000
FFC07F
1E0018
1C0018
1C0018
1C0010
1C0010
380030
380020
380020
700060
700040
700040
700040
E000C0
E00080
E00080
E00180
E00100
E00300
E00200
700400
3C1800
1FF000
010000
ENDCHAR
STARTCHAR 01D4
ENCODING 468
SWIDTH 489 0
DWIDTH 17 0
BBX 16 23 1 1
BITMAP
0103
0084
00D8
00F0
00E0
0000
0000
0000
1C06
7C0E
9C0E
9C0C
181C
381C
3838
3838
3078
70B8
70B0
6132
6274
7C7C
7878
ENDCHAR
STARTCHAR 01D5
ENCODING 469
SWIDTH 720 0
DWIDTH 25 0
BBX 24 32 4 -1
BITMAP
001FE0
003FE0
000000
000000
0031C0
0071C0
000000
000000
FFC07F
1E0018
1C0018
1C0018
1C0010
1C0010
380030
380020
380020
700060
700040
700040
700040
E000C0
E00080
E00080
E00180
E00100
E00300
E00200
700400
3C1800
1FF000
010000
ENDCHAR
STARTCHAR 01D6
ENCODING 470
SWIDTH 489 0
DWIDTH 17 0
BBX 17 26 1 0
BITMAP
01FF80
03FF80
000000
000000
000000
038E00
038E00
038E00
000000
000000
000000
1C0600
7C0E00
9C0E00
9C0C00
181C00
381C00
383800
383800
307800
70B800
70B000
613200
627400
7C7C00
787800
ENDCHAR
STARTCHAR 01D7
ENCODING 471
SWIDTH 720 0
DWIDTH 25 0
BBX 24 32 4 -1
BITMAP
000380
000200
000400
000000
0031C0
0071C0
000000
000000
FFC07F
1E0018
1C0018
1C0018
1C0010
1C0010
380030
380020
380020
700060
700040
700040
700040
E000C0
E00080
E00080
E00180
E00100
E00300
E00200
700400
3C1800
1FF000
010000
ENDCHAR
STARTCHAR 01D8
ENCODING 472
SWIDTH 489 0
DWIDTH 17 0
BBX 16 29 1 0
BITMAP
000F
001E
001C
0018
0010
0020
0000
0000
038E
038E
038E
0000
0000
0000
1C06
7C0E
9C0E
9C0C
181C
381C
3838
3838
3078
70B8
70B0
6132
6274
7C7C
7878
ENDCHAR
STARTCHAR 01D9
ENCODING 473
SWIDTH 720 0
DWIDTH 25 0
BBX 24 32 4 -1
BITMAP
000840
000D80
000700
000000
0031C0
0071C0
000000
000000
FFC07F
1E0018
1C0018
1C0018
1C0010
1C0010
380030
380020
380020
700060
700040
700040
700040
E000C0
E00080
E00080
E00180
E00100
E00300
E00200
700400
3C1800
1FF000
010000
ENDCHAR
STARTCHAR 01DA
ENCODING 474
SWIDTH 489 0
DWIDTH 17 0
BBX 17 28 1 0
BITMAP
008080
00C300
006600
007C00
007800
000000
000000
038E00
038E00
038E00
000000
000000
000000
1C0600
7C0E00
9C0E00
9C0C00
181C00
381C00
383800
383800
307800
70B800
70B000
613200
627400
7C7C00
787800
ENDCHAR
STARTCHAR 01DB
ENCODING 475
SWIDTH 720 0
DWIDTH 25 0
BBX 24 32 4 -1
BITMAP
000E00
000600
000200
000000
0031C0
0071C0
000000
000000
FFC07F
1E0018
1C0018
1C0018
1C0010
1C0010
380030
380020
380020
700060
700040
700040
700040
E000C0
E00080
E00080
E00180
E00100
E00300
E00200
700400
3C1800
1FF000
010000
ENDCHAR
STARTCHAR 01DC
ENCODING 476
SWIDTH 489 0
DWIDTH 17 0
BBX 15 29 1 0
BITMAP
01E0
00E0
0060
0070
0030
0010
0000
0000
038E
038E
038E
0000
0000
0000
1C06
7C0E
9C0E
9C0C
181C
381C
3838
3838
3078
70B8
70B0
6132
6274
7C7C
7878
ENDCHAR
STARTCHAR 01FA
ENCODING 506
SWIDTH 604 0
DWIDTH 21 0
BBX 26 36 -2 0
BITMAP
000003C0
00000780
00000700
00000600
00000400
00000800
00000000
00003C00
00004600
00004200
00004200
00004600
00003C00
00001000
00003000
00007000
0000F000
0000E000
0001E000
0003E000
0006E000
0004E000
0008E000
0018E000
0030E000
0020E000
0040E000
00FFE000
0081C000
0101C000
0201C000
0601C000
0401C000
0801C000
1C01C000
FE0FF800
ENDCHAR
STARTCHAR 01FB
ENCODING 507
SWIDTH 489 0
DWIDTH 17 0
BBX 16 31 1 0
BITMAP
0007
0007
000E
000C
0008
0010
0000
0038
0044
00C2
0082
0044
007C
0000
0000
0000
03EE
061E
0C1C
181C
381C
301C
7018
6038
E038
E070
E070
E0F2
E174
FE74
7C78
ENDCHAR
STARTCHAR 01FC
ENCODING 508
SWIDTH 892 0
DWIDTH 31 0
BBX 33 30 -2 0
BITMAP
000000F000
000000E000
000000C000
0000018000
0000010000
0000000000
0000000000
00007FFF80
0000360780
00003E0180
00006E0080
00004E0100
00009C0100
00011C0000
00031C1000
0006181000
000C383000
00083FE000
00103BE000
0020706000
0060702000
00FFF04000
0080E00000
0100E00000
0200E00400
0600E00400
0401C00C00
0801C01800
1803C0F800
FE0FFFF800
ENDCHAR
STARTCHAR 01FD
ENCODING 509
SWIDTH 662 0
DWIDTH 23 0
BBX 22 24 1 0
BITMAP
0003C0
000380
000700
000600
000400
000800
000000
000000
000000
03ECF8
061F1C
0C1E1C
181C18
381C18
301830
7038E0
603F00
E07800
E07000
C0B000
E13010
E33820
FE3CC0
7C1F80
ENDCHAR
STARTCHAR 01FE
ENCODING 510
SWIDTH 720 0
DWIDTH 25 0
BBX 24 31 1 -1
BITMAP
0000F0
0000E0
0000C0
000180
000100
000000
000001
001FF3
00703E
00E01C
01C01E
03803E
07002F
0E004F
1E008F
1C010F
3C020F
3C040F
38080E
78181E
78301E
78601C
78C03C
798038
7B0070
3E00E0
3C01C0
1C0380
3E0700
67FC00
C00000
ENDCHAR
STARTCHAR 01FF
ENCODING 511
SWIDTH 489 0
DWIDTH 17 0
BBX 17 25 0 -1
BITMAP
001E00
001C00
001800
001800
003000
002000
000000
000000
000180
00FD00
030E00
060700
0C0F00
1C1700
382700
384700
708700
710E00
720E00
741C00
781C00
303800
387000
5DC000
820000
ENDCHAR
STARTCHAR 0218
ENCODING 536
SWIDTH 489 0
DWIDTH 17 0
BBX 19 31 0 -8
BITMAP
000020
00FE60
0383C0
0300C0
0700C0
0700C0
070080
070080
078000
03C000
01E000
01F000
00F800
007C00
003E00
001E00
200F00
200F00
200F00
600E00
600E00
700C00
781C00
CFF000
808000
010000
038000
038000
018000
010000
060000
ENDCHAR
STARTCHAR 0219
ENCODING 537
SWIDTH 403 0
DWIDTH 14 0
BBX 12 22 0 -8
BITMAP
07F0
0C30
1810
1C10
1C10
0E00
0F00
0780
03C0
01C0
81C0
C0C0
C0C0
C180
F300
0C00
0800
1C00
1C00
0C00
0800
3000
ENDCHAR
STARTCHAR 021A
ENCODING 538
SWIDTH 547 0
DWIDTH 19 0
BBX 19 30 3 -8
BITMAP
3FFFE0
3C73E0
606060
40E040
40E040
80E040
01C000
01C000
01C000
038000
038000
038000
038000
070000
070000
070000
0E0000
0E0000
0E0000
0E0000
1C0000
1E0000
FFC000
000000
100000
380000
380000
180000
100000
600000
ENDCHAR
STARTCHAR 021B
ENCODING 539
SWIDTH 288 0
DWIDTH 10 0
BBX 10 27 0 -8
BITMAP
0080
0080
0100
0300
0700
3FC0
0600
0E00
0E00
0C00
0C00
1C00
1C00
1800
3800
3800
3100
3200
7400
3800
0000
2000
7000
7000
3000
2000
C000
ENDCHAR
STARTCHAR 0259
ENCODING 601
SWIDTH 432 0
DWIDTH 15 0
BBX 13 15 1 0
BITMAP
07E0
1DF0
2078
4038
0038
0038
0038
07F8
1C30
7070
E060
C0E0
C0C0
C100
FE00
ENDCHAR
STARTCHAR 02C6
ENCODING 710
SWIDTH 345 0
DWIDTH 12 0
BBX 8 6 5 18
BITMAP
06
0E
1F
23
41
80
ENDCHAR
STARTCHAR 02C7
ENCODING 711
SWIDTH 345 0
DWIDTH 12 0
BBX 9 6 6 18
BITMAP
0080
8100
C600
EC00
7800
7000
ENDCHAR
STARTCHAR 02C9
ENCODING 713
SWIDTH 345 0
DWIDTH 12 0
BBX 11 2 4 21
BITMAP
7FE0
FFE0
ENDCHAR
STARTCHAR 02D8
ENCODING 728
SWIDTH 345 0
DWIDTH 12 0
BBX 9 5 5 19
BITMAP
8000
8080
E700
7E00
3C00
ENDCHAR
STARTCHAR 02D9
ENCODING 729
SWIDTH 345 0
DWIDTH 12 0
BBX 3 4 8 19
BITMAP
40
E0
E0
E0
ENDCHAR
STARTCHAR 02DA
ENCODING 730
SWIDTH 345 0
DWIDTH 12 0
BBX 7 6 6 18
BITMAP
3C
44
42
C2
46
3C
ENDCHAR
STARTCHAR 02DB
ENCODING 731
SWIDTH 345 0
DWIDTH 12 0
BBX 8 6 1 -6
BITMAP
40
40
C0
E0
70
7F
ENDCHAR
STARTCHAR 02DC
ENCODING 732
SWIDTH 345 0
DWIDTH 12 0
BBX 11 4 3 19
BITMAP
3C20
7E20
8FE0
83C0
ENDCHAR
STARTCHAR 02DD
ENCODING 733
SWIDTH 345 0
DWIDTH 12 0
BBX 10 6 5 18
BITMAP
3DC0
3BC0
7380
6300
4600
8400
ENDCHAR
STARTCHAR 0300
ENCODING 768
SWIDTH 0 0
DWIDTH 0 0
BBX 6 6 -4 25
BITMAP
F0
70
38
18
08
04
ENDCHAR
STARTCHAR 0301
ENCODING 769
SWIDTH 0 0
DWIDTH 0 0
BBX 6 6 -2 25
BITMAP
3C
38
70
60
40
80
ENDCHAR
STARTCHAR 0303
ENCODING 771
SWIDTH 0 0
DWIDTH 0 0
BBX 11 5 -9 25
BITMAP
1020
7C20
DF60
8FC0
8380
ENDCHAR
STARTCHAR 0309
ENCODING 777
SWIDTH 0 0
DWIDTH 0 0
BBX 5 5 -2 25
BITMAP
70
98
90
20
40
ENDCHAR
STARTCHAR 0323
ENCODING 803
SWIDTH 0 0
DWIDTH 0 0
BBX 4 3 -16 -5
BITMAP
60
F0
E0
ENDCHAR
STARTCHAR 037E
ENCODING 894
SWIDTH 345 0
DWIDTH 12 0
BBX 8 19 1 -4
BITMAP
07
07
07
00
00
00
00
00
00
00
00
00
30
78
78
30
30
20
80
ENDCHAR
STARTCHAR 0384
ENCODING 900
SWIDTH 345 0
DWIDTH 12 0
BBX 5 6 7 18
BITMAP
38
70
70
60
C0
80
ENDCHAR
STARTCHAR 0385
ENCODING 901
SWIDTH 345 0
DWIDTH 12 0
BBX 12 6 3 18
BITMAP
03C0
0380
4720
F670
F470
6870
ENDCHAR
STARTCHAR 0386
ENCODING 902
SWIDTH 604 0
DWIDTH 21 0
BBX 21 24 -2 0
BITMAP
001C10
003C10
003830
003070
0020F0
0040E0
0001E0
0003E0
0006E0
0004E0
0008E0
0018E0
0030E0
0020E0
0040E0
00FFE0
0081C0
0101C0
0201C0
0601C0
0401C0
0801C0
1C01C0
FE0FF8
ENDCHAR
STARTCHAR 0387
ENCODING 903
SWIDTH 345 0
DWIDTH 12 0
BBX 3 3 6 12
BITMAP
E0
E0
E0
ENDCHAR
STARTCHAR 0388
ENCODING 904
SWIDTH 691 0
DWIDTH 24 0
BBX 22 24 2 0
BITMAP
780000
73FFFC
60F03C
C0E00C
80E008
80E008
01C008
01C000
01C080
018100
038100
03FF00
03FF00
070200
070200
070200
060000
0E0000
0E0020
0E0020
1C0060
1C00C0
3C07C0
FFFFC0
ENDCHAR
STARTCHAR 0389
ENCODING 905
SWIDTH 806 0
DWIDTH 28 0
BBX 28 24 2 0
BITMAP
78000000
73FE1FF0
60F003C0
C0E00380
80E00380
80E00700
01C00700
01C00700
01C00E00
01800E00
03800E00
03FFFE00
03801C00
07001C00
07001C00
07003800
0E003800
0E003800
0E003800
0E007000
1C007000
1C007000
3C00F000
FF87FC00
ENDCHAR
STARTCHAR 038A
ENCODING 906
SWIDTH 403 0
DWIDTH 14 0
BBX 15 24 1 0
BITMAP
3C00
39FE
3078
6070
4070
4070
00E0
00E0
00E0
00E0
01C0
01C0
01C0
0380
0380
0380
0380
0700
0700
0700
0E00
0E00
1E00
FFC0
ENDCHAR
STARTCHAR 038C
ENCODING 908
SWIDTH 720 0
DWIDTH 25 0
BBX 23 24 2 -1
BITMAP
3C0000
383FE0
30E078
61C038
43801C
47001C
0E001E
1C001E
1C001E
38001E
78001E
78001E
70001C
F0003C
F0003C
F00038
F00078
F00070
F000E0
7001C0
7003C0
380700
3C0E00
0FF800
ENDCHAR
STARTCHAR 038E
ENCODING 910
SWIDTH 662 0
DWIDTH 23 0
BBX 25 24 2 0
BITMAP
78000000
73FC7F80
60F00C00
C0E00800
80701000
80703000
00706000
00704000
0038C000
00398000
00390000
001E0000
001E0000
001C0000
001C0000
00380000
00380000
00380000
00700000
00700000
00700000
00F00000
00F00000
07FE0000
ENDCHAR
STARTCHAR 038F
ENCODING 911
SWIDTH 720 0
DWIDTH 25 0
BBX 24 24 1 0
BITMAP
3C0000
383FF0
30F03C
61C00E
43800E
470007
0F0007
0E0007
1E0007
1C0007
1C000F
3C000F
3C000E
3C001E
1C001C
1C0038
0E0070
0700E0
43C780
808C08
C08818
FF8FF0
FF1FF0
FF1FF0
ENDCHAR
STARTCHAR 0390
ENCODING 912
SWIDTH 288 0
DWIDTH 10 0
BBX 13 24 1 0
BITMAP
03C0
0380
2300
7678
F678
7430
0000
0000
0000
3E00
1C00
0C00
1C00
1C00
1800
3800
3800
3000
3000
7000
7200
6400
F800
7000
ENDCHAR
STARTCHAR 0391
ENCODING 913
SWIDTH 604 0
DWIDTH 21 0
BBX 21 24 -2 0
BITMAP
000010
000010
000030
000070
0000F0
0000E0
0001E0
0003E0
0006E0
0004E0
0008E0
0018E0
0030E0
0020E0
0040E0
00FFE0
0081C0
0101C0
0201C0
0601C0
0401C0
0801C0
1C01C0
FE0FF8
ENDCHAR
STARTCHAR 0392
ENCODING 914
SWIDTH 604 0
DWIDTH 21 0
BBX 21 23 -1 0
BITMAP
03FFC0
0070F0
007078
007038
00E038
00E038
00E038
00C078
01C070
01C1E0
01FF80
039F80
0383C0
0381E0
0700E0
0700E0
0700E0
0600E0
0E01E0
0E01C0
0E0780
1C1F00
FFFC00
ENDCHAR
STARTCHAR 0393
ENCODING 915
SWIDTH 576 0
DWIDTH 20 0
BBX 24 23 -1 0
BITMAP
03FFFF
00700F
007002
007002
00E002
00E004
00E000
01C000
01C000
01C000
01C000
038000
038000
038000
070000
070000
070000
0E0000
0E0000
0E0000
1E0000
1E0000
FFC000
ENDCHAR
STARTCHAR 0394
ENCODING 916
SWIDTH 576 0
DWIDTH 20 0
BBX 19 24 -1 0
BITMAP
000020
000060
000060
0000E0
0001C0
0003C0
0007C0
0005C0
0009C0
0019C0
0031C0
0061C0
0041C0
0081C0
0181C0
0301C0
0601C0
040180
080180
180380
300380
600380
400380
FFFF80
ENDCHAR
STARTCHAR 0395
ENCODING 917
SWIDTH 604 0
DWIDTH 21 0
BBX 23 23 -1 0
BITMAP
03FFFE
00703E
00700C
007004
00E004
00E004
00E000
01C000
01C080
01C180
01FF80
03FF00
038100
038100
070200
070000
070000
070010
0E0030
0E0060
0E00E0
1E03C0
FFFFC0
ENDCHAR
STARTCHAR 0396
ENCODING 918
SWIDTH 547 0
DWIDTH 19 0
BBX 21 23 0 0
BITMAP
07FFF8
070078
0C00F0
0801E0
1003C0
000380
000700
000F00
001E00
003C00
003800
007000
00F000
01E000
03C000
038000
070000
0F0000
1E0040
3C00C0
380180
700780
FFFF80
ENDCHAR
STARTCHAR 0397
ENCODING 919
SWIDTH 720 0
DWIDTH 25 0
BBX 29 23 -1 0
BITMAP
03FE0FF8
007803C0
007003C0
00700380
00E00380
00E00380
00E00700
01C00700
01C00700
01C00E00
01FFFE00
03800E00
03800E00
03801C00
07001C00
07001C00
07003800
0E003800
0E003800
0E003800
0E007000
1E007000
FF83FE00
ENDCHAR
STARTCHAR 0398
ENCODING 920
SWIDTH 720 0
DWIDTH 25 0
BBX 23 24 2 0
BITMAP
003FE0
00E078
01C038
03801C
07001C
0E001E
1E000E
1C000E
38809E
38811E
78FF1E
71FF1C
71FF3C
F1023C
F20238
F00078
F00070
F000E0
7001E0
7003C0
380700
1C0E00
0FF800
008000
ENDCHAR
STARTCHAR 0399
ENCODING 921
SWIDTH 345 0
DWIDTH 12 0
BBX 15 23 -1 0
BITMAP
03FE
0078
0070
0070
00E0
00E0
00E0
01C0
01C0
01C0
01C0
0380
0380
0380
0700
0700
0700
0700
0E00
0E00
0E00
1E00
FFC0
ENDCHAR
STARTCHAR 039A
ENCODING 922
SWIDTH 662 0
DWIDTH 23 0
BBX 26 23 -1 0
BITMAP
03FE1FC0
00700E00
00700C00
00701800
00E06000
00E0C000
00E18000
01C60000
01CC0000
01D80000
03F00000
03B80000
03BC0000
039C0000
070E0000
070F0000
07070000
0E038000
0E03C000
0E01C000
0E01E000
1E01F000
FF87FE00
ENDCHAR
STARTCHAR 039B
ENCODING 923
SWIDTH 604 0
DWIDTH 21 0
BBX 21 24 -2 0
BITMAP
000010
000010
000030
000070
0000F0
0000E0
0001E0
0003E0
0006E0
0004E0
0008E0
0018E0
0030E0
0020E0
0040E0
00C1C0
0081C0
0101C0
0201C0
0601C0
0401C0
0C01C0
1803C0
FE0FF8
ENDCHAR
STARTCHAR 039C
ENCODING 924
SWIDTH 835 0
DWIDTH 29 0
BBX 33 23 -1 0
BITMAP
03F0001F80
0070003C00
0070003C00
0070007800
00F800F800
00B800F800
00B8017000
01B8037000
0138067000
013804E000
013808E000
023818E000
023831C000
021C21C000
061C61C000
041CC1C000
041C838000
0C1D038000
081F038000
081E070000
081C070000
1808070000
FF087FE000
ENDCHAR
STARTCHAR 039D
ENCODING 925
SWIDTH 662 0
DWIDTH 23 0
BBX 27 24 -1 -1
BITMAP
07E00FE0
00F00380
00700300
00F00300
00B80200
00B80200
00BC0600
019C0400
011C0400
010E0C00
030E0C00
020E0800
02070800
02071800
06039000
04039000
0403B000
0C01F000
0801E000
0800E000
0800E000
1800C000
FE004000
00004000
ENDCHAR
STARTCHAR 039E
ENCODING 926
SWIDTH 633 0
DWIDTH 22 0
BBX 24 23 0 0
BITMAP
01FFFF
03FFFE
03FFFE
020002
040002
040000
000000
000000
008040
008040
01FF80
01FF80
01FF80
020080
020100
000000
000010
400020
400020
400060
FFFFE0
FFFFC0
FFFFC0
ENDCHAR
STARTCHAR 039F
ENCODING 927
SWIDTH 720 0
DWIDTH 25 0
BBX 23 23 2 0
BITMAP
003FE0
00E078
01C038
03801C
07001C
0E001E
1C001E
1C001E
38001E
78001E
78001E
70001C
F0003C
F0003C
F00038
F00078
F00070
F000E0
7001E0
7003C0
380700
3C0E00
0FF800
ENDCHAR
STARTCHAR 03A0
ENCODING 928
SWIDTH 720 0
DWIDTH 25 0
BBX 29 23 -1 0
BITMAP
03FFFFF8
007001C0
007001C0
00700380
00E00380
00E00380
00E00700
01C00700
01C00700
01C00E00
01C00E00
03800E00
03800E00
03801C00
07001C00
07001C00
07003800
0F003800
0E003800
0E007800
0E007000
1E00F000
FF83FE00
ENDCHAR
STARTCHAR 03A1
ENCODING 929
SWIDTH 604 0
DWIDTH 21 0
BBX 23 23 -1 0
BITMAP
03FFE0
0078F8
00703C
00701C
00E01E
00E01E
00E01C
00E01C
01C03C
01C078
01C0F0
03FFC0
038000
038000
078000
070000
070000
070000
0E0000
0E0000
0E0000
1E0000
FF8000
ENDCHAR
STARTCHAR 03A3
ENCODING 931
SWIDTH 604 0
DWIDTH 21 0
BBX 24 23 -1 0
BITMAP
03FFFF
01C00E
01E002
00E002
00F002
007000
007800
003800
003C00
001C00
001C00
001800
003000
006000
00C000
018000
030010
060020
0C0020
180060
3FFFC0
7FFFC0
FFFFC0
ENDCHAR
STARTCHAR 03A4
ENCODING 932
SWIDTH 547 0
DWIDTH 19 0
BBX 19 23 3 0
BITMAP
3FFFE0
3C73E0
606060
40E040
40E040
80E040
01C000
01C000
01C000
038000
038000
038000
038000
070000
070000
070000
0E0000
0E0000
0E0000
0E0000
1C0000
1E0000
FFC000
ENDCHAR
STARTCHAR 03A5
ENCODING 933
SWIDTH 547 0
DWIDTH 19 0
BBX 20 23 3 0
BITMAP
7F87F0
1E01C0
0E0180
0E0300
0E0200
070400
070C00
071800
031000
03A000
03E000
03C000
038000
038000
038000
070000
070000
070000
070000
0E0000
0E0000
1E0000
FFC000
ENDCHAR
STARTCHAR 03A6
ENCODING 934
SWIDTH 748 0
DWIDTH 26 0
BBX 23 23 3 0
BITMAP
003FF0
000F80
000F00
000E00
00FFC0
071E78
1C1C1C
381C1C
703C0E
F03C0E
E0380E
E0380E
E0781E
E0701C
E0703C
E0F078
70F0F0
38E3C0
0FFE00
01E000
01E000
03E000
1FF800
ENDCHAR
STARTCHAR 03A7
ENCODING 935
SWIDTH 604 0
DWIDTH 21 0
BBX 28 23 -2 0
BITMAP
01FE0FF0
00780380
00380700
00380400
001C0800
001C1000
001C2000
001C6000
000EC000
000F8000
000F0000
000F0000
000F0000
001F0000
00370000
00638000
00C38000
01838000
0303C000
0601C000
0C01C000
1C01E000
FE07FC00
ENDCHAR
STARTCHAR 03A8
ENCODING 936
SWIDTH 691 0
DWIDTH 24 0
BBX 23 23 5 0
BITMAP
E3FF1E
607838
707030
707070
707070
E0E0E0
E0E0E0
E0E0E0
E1C1C0
C1C1C0
E1C380
618700
338E00
0FF000
038000
070000
070000
070000
060000
0E0000
0E0000
1E0000
FFC000
ENDCHAR
STARTCHAR 03A9
ENCODING 937
SWIDTH 720 0
DWIDTH 25 0
BBX 24 23 1 1
BITMAP
003FF0
00F03C
01C01E
03800E
070007
0F0007
0E0007
1E0007
1C0007
3C000F
3C000F
3C000E
3C001E
1C001C
1C0038
0E0070
0700E0
43C780
808C08
C08818
FF8FF0
FF1FF0
FF1FF0
ENDCHAR
STARTCHAR 03AA
ENCODING 938
SWIDTH 345 0
DWIDTH 12 0
BBX 16 29 -1 0
BITMAP
01C7
01C7
01C7
0082
0000
0000
03FE
0078
0070
0070
00E0
00E0
00E0
01C0
01C0
01C0
01C0
0380
0380
0380
0700
0700
0700
0700
0E00
0E00
0E00
1E00
FFC0
ENDCHAR
STARTCHAR 03AB
ENCODING 939
SWIDTH 547 0
DWIDTH 19 0
BBX 20 29 3 0
BITMAP
01C700
01C700
01C700
008200
000000
000000
7F87F0
1E01C0
0E0180
0E0300
0E0200
070400
070C00
071800
031000
03A000
03E000
03C000
038000
038000
038000
070000
070000
070000
070000
0E0000
0E0000
1E0000
FFC000
ENDCHAR
STARTCHAR 03AC
ENCODING 940
SWIDTH 518 0
DWIDTH 18 0
BBX 16 24 1 0
BITMAP
001C
0038
0038
0030
0060
0040
0000
0000
0000
07E3
0E37
1C16
381E
381C
701C
7018
E038
E038
E038
E078
E068
E0CD
618F
3F06
ENDCHAR
STARTCHAR 03AD
ENCODING 941
SWIDTH 403 0
DWIDTH 14 0
BBX 14 24 0 0
BITMAP
0070
00E0
00E0
00C0
0180
0100
0000
0000
0000
07F0
0C18
181C
1818
1800
1800
0480
1F80
3000
7000
E000
E070
6070
70E0
3FC0
ENDCHAR
STARTCHAR 03AE
ENCODING 942
SWIDTH 489 0
DWIDTH 17 0
BBX 15 31 1 -7
BITMAP
001C
0038
0038
0030
0060
0040
0000
0000
0000
1C1E
3C7E
4CCE
1C8E
1D0C
1A1C
3C1C
3C18
3818
3838
7038
7030
6070
E070
E060
0060
00E0
00E0
00E0
00C0
00C0
00C0
ENDCHAR
STARTCHAR 03AF
ENCODING 943
SWIDTH 288 0
DWIDTH 10 0
BBX 9 24 2 0
BITMAP
0380
0780
0700
0600
0C00
0800
0000
0000
0000
7C00
3800
1800
3800
3800
3000
7000
7000
6000
6000
E000
E400
C800
F000
E000
ENDCHAR
STARTCHAR 03B0
ENCODING 944
SWIDTH 460 0
DWIDTH 16 0
BBX 16 24 1 0
BITMAP
0078
0070
0460
0ECF
1ECF
0E86
0000
0000
0000
3C60
7C10
9C18
9C08
180C
380C
380C
300C
3018
7018
7030
6030
6060
70C0
3F80
ENDCHAR
STARTCHAR 03B1
ENCODING 945
SWIDTH 518 0
DWIDTH 18 0
BBX 16 15 1 0
BITMAP
07E3
0E37
1C16
381E
381C
701C
7018
E038
E038
E038
E078
E068
E0CD
618F
3F06
ENDCHAR
STARTCHAR 03B2
ENCODING 946
SWIDTH 489 0
DWIDTH 17 0
BBX 20 31 -2 -7
BITMAP
000F80
001860
003060
006070
00E070
00E070
00C0E0
01C0E0
01C1C0
018380
03BE00
038300
030380
030180
070180
0701C0
0601C0
0E0380
0E0380
0C0380
0C0700
1C0600
1E0C00
1BF800
380000
380000
300000
700000
700000
600000
E00000
ENDCHAR
STARTCHAR 03B3
ENCODING 947
SWIDTH 403 0
DWIDTH 14 0
BBX 12 22 1 -7
BITMAP
7070
7870
8870
8830
0C30
0C30
0C20
0460
0440
0480
0500
0500
0600
0400
0C00
0800
1800
3800
3000
7000
7000
6000
ENDCHAR
STARTCHAR 03B4
ENCODING 948
SWIDTH 460 0
DWIDTH 16 0
BBX 15 24 1 0
BITMAP
00F8
011E
010E
0304
0100
0180
00C0
00E0
0070
0038
01DC
061C
1C1C
381C
701C
701C
E01C
E038
E038
E030
E070
E0E0
60C0
3F00
ENDCHAR
STARTCHAR 03B5
ENCODING 949
SWIDTH 403 0
DWIDTH 14 0
BBX 14 15 0 0
BITMAP
07F0
0C18
181C
1818
1800
1800
0480
1F80
3000
7000
E000
E070
6070
70E0
3FC0
ENDCHAR
STARTCHAR 03B6
ENCODING 950
SWIDTH 403 0
DWIDTH 14 0
BBX 17 29 1 -6
BITMAP
018000
020780
061F80
03BE00
004000
008000
010000
020000
040000
080000
100000
100000
200000
600000
400000
400000
C00000
C00000
C00000
C00000
C00000
F80000
7FC000
7FE000
07E000
002000
004000
0FC000
0F8000
ENDCHAR
STARTCHAR 03B7
ENCODING 951
SWIDTH 489 0
DWIDTH 17 0
BBX 15 22 1 -7
BITMAP
1C1E
3C7E
4CCE
1C8E
1D0C
1A1C
3C1C
3C18
3818
3838
7038
7030
6070
E070
E060
0060
00E0
00E0
00E0
00C0
00C0
00C0
ENDCHAR
STARTCHAR 03B8
ENCODING 952
SWIDTH 489 0
DWIDTH 17 0
BBX 16 24 2 0
BITMAP
0078
018C
0306
0606
0E07
0C07
1C07
3807
3807
300E
700E
7FFE
600E
E01C
E01C
E01C
C038
C038
C070
C060
C0E0
C0C0
6180
3E00
ENDCHAR
STARTCHAR 03B9
ENCODING 953
SWIDTH 288 0
DWIDTH 10 0
BBX 6 15 2 0
BITMAP
7C
38
18
38
38
30
70
70
60
60
E0
E4
C8
F0
E0
ENDCHAR
STARTCHAR 03BA
ENCODING 954
SWIDTH 489 0
DWIDTH 17 0
BBX 16 15 1 0
BITMAP
7C07
1C1F
1C30
1C60
18C0
3900
3B80
3780
3980
71C0
61C0
61C2
E0E4
E0F8
C070
ENDCHAR
STARTCHAR 03BB
ENCODING 955
SWIDTH 432 0
DWIDTH 15 0
BBX 15 24 -1 0
BITMAP
00E0
01E0
0220
0220
0020
0020
0020
0020
0020
0020
0060
0060
00E0
01E0
01A0
03A0
0720
0E20
0E20
1C20
3820
3822
703E
E01C
ENDCHAR
STARTCHAR 03BC
ENCODING 956
SWIDTH 489 0
DWIDTH 17 0
BBX 18 22 -2 -7
BITMAP
0180C0
0381C0
038180
030180
030380
070380
070300
060700
0E0700
0E0600
0C0E00
0C0E00
1C1E40
1E6640
178780
300000
300000
200000
600000
600000
E00000
E00000
ENDCHAR
STARTCHAR 03BD
ENCODING 957
SWIDTH 432 0
DWIDTH 15 0
BBX 14 15 1 0
BITMAP
781C
B81C
1C0C
1C04
1C0C
1C08
0C10
0C10
0C20
0C40
0E80
0F80
0F00
0E00
0C00
ENDCHAR
STARTCHAR 03BE
ENCODING 958
SWIDTH 432 0
DWIDTH 15 0
BBX 16 30 1 -6
BITMAP
0100
0207
021E
01F8
0040
0080
0100
0100
013C
01FC
0200
0800
1000
2000
6000
4000
C000
8000
8000
8000
C000
F800
FFC0
7FE0
01E0
0020
0020
0F60
0FC0
0200
ENDCHAR
STARTCHAR 03BF
ENCODING 959
SWIDTH 489 0
DWIDTH 17 0
BBX 15 15 1 0
BITMAP
01F8
060C
0C0E
180E
380E
700E
700E
E00E
E01C
E01C
E038
E038
E070
70E0
3F80
ENDCHAR
STARTCHAR 03C0
ENCODING 960
SWIDTH 489 0
DWIDTH 17 0
BBX 17 15 1 0
BITMAP
1FFF80
3FFF80
723800
863000
043000
043000
0C7000
0C6000
186000
18E000
38C000
70C200
70C400
F0FC00
E0F800
ENDCHAR
STARTCHAR 03C1
ENCODING 961
SWIDTH 489 0
DWIDTH 17 0
BBX 17 22 -2 -7
BITMAP
007E00
00C300
018380
030180
030180
070380
060380
0E0380
0E0380
0E0700
0C0700
1C0E00
1C0E00
1C1C00
3FF000
380000
300000
300000
700000
600000
600000
E00000
ENDCHAR
STARTCHAR 03C2
ENCODING 962
SWIDTH 403 0
DWIDTH 14 0
BBX 14 21 1 -6
BITMAP
07F8
0C7C
101C
2000
2000
4000
4000
8000
8000
C000
C000
E000
7E00
7F80
3FC0
01C0
0040
0040
1C80
1F00
0800
ENDCHAR
STARTCHAR 03C3
ENCODING 963
SWIDTH 489 0
DWIDTH 17 0
BBX 17 15 1 0
BITMAP
01FF80
07FF80
1FE000
3C1000
381800
701800
701C00
E01800
E03800
E03800
E03800
E07000
E06000
60C000
3F8000
ENDCHAR
STARTCHAR 03C4
ENCODING 964
SWIDTH 345 0
DWIDTH 12 0
BBX 12 15 1 0
BITMAP
1FF0
7FF0
7F00
8600
0600
0E00
0C00
0C00
1C00
1800
1800
1800
3880
1F00
1E00
ENDCHAR
STARTCHAR 03C5
ENCODING 965
SWIDTH 460 0
DWIDTH 16 0
BBX 14 15 1 0
BITMAP
3C60
7C10
9C18
9C08
180C
380C
380C
300C
3018
7018
7030
6030
6060
70C0
3F80
ENDCHAR
STARTCHAR 03C6
ENCODING 966
SWIDTH 547 0
DWIDTH 19 0
BBX 17 22 1 -7
BITMAP
031F00
0C3300
182380
386380
304380
70C380
70C380
608300
E18300
E18700
E18600
E10E00
630C00
733800
3FE000
060000
060000
040000
040000
0C0000
0C0000
080000
ENDCHAR
STARTCHAR 03C7
ENCODING 967
SWIDTH 432 0
DWIDTH 15 0
BBX 19 22 -3 -7
BITMAP
0380E0
0781C0
08C380
084380
004700
004E00
004C00
005C00
007800
007000
006000
00E000
01C000
03A000
03A000
072000
0E2000
0C2000
1C2000
383200
701A00
F01E00
ENDCHAR
STARTCHAR 03C8
ENCODING 968
SWIDTH 633 0
DWIDTH 22 0
BBX 20 22 2 -7
BITMAP
703070
3020E0
3060C0
3061C0
3041C0
70C380
70C380
708380
618700
E18700
E10600
610E00
630C00
331800
1A6000
078000
060000
040000
0C0000
0C0000
080000
180000
ENDCHAR
STARTCHAR 03C9
ENCODING 969
SWIDTH 720 0
DWIDTH 25 0
BBX 22 15 1 0
BITMAP
03C0E0
0E0030
1C0818
381C1C
383C1C
70381C
70381C
70301C
E0301C
E02038
E02038
E06070
60A060
7190E0
3E1F80
ENDCHAR
STARTCHAR 03CA
ENCODING 970
SWIDTH 288 0
DWIDTH 10 0
BBX 11 23 2 0
BITMAP
30C0
79E0
79E0
30C0
0000
0000
0000
0000
7C00
3800
1800
3800
3800
3000
7000
7000
6000
6000
E000
E400
C800
F000
E000
ENDCHAR
STARTCHAR 03CB
ENCODING 971
SWIDTH 460 0
DWIDTH 16 0
BBX 14 23 1 0
BITMAP
0410
0E38
0E38
0E38
0000
0000
0000
0000
3C60
7C10
9C18
9C08
180C
380C
380C
300C
3018
7018
7030
6030
6060
70C0
3F80
ENDCHAR
STARTCHAR 03CC
ENCODING 972
SWIDTH 489 0
DWIDTH 17 0
BBX 15 24 1 0
BITMAP
003C
0038
0030
0030
0060
0040
0000
0000
0000
01F8
060C
0C0E
180E
380E
700E
700E
E00E
E01C
E01C
E038
E038
E070
70E0
3F80
ENDCHAR
STARTCHAR 03CD
ENCODING 973
SWIDTH 460 0
DWIDTH 16 0
BBX 14 24 1 0
BITMAP
00F0
00E0
00C0
00C0
0180
0100
0000
0000
0000
3C60
7C10
9C18
9C08
180C
380C
380C
300C
3018
7018
7030
6030
6060
70C0
3F80
ENDCHAR
STARTCHAR 03CE
ENCODING 974
SWIDTH 691 0
DWIDTH 24 0
BBX 22 24 1 0
BITMAP
0003C0
000380
000300
000600
000400
000400
000000
000000
000000
03C0E0
0E0030
1C0818
381C1C
383C1C
70381C
70381C
70301C
E0301C
E02038
E02038
E06070
60A060
7190E0
3E1F80
ENDCHAR
STARTCHAR 0401
ENCODING 1025
SWIDTH 604 0
DWIDTH 21 0
BBX 23 29 -1 0
BITMAP
00071C
000F3C
00071C
000000
000000
000000
03FFFE
00703E
00700C
007004
00E004
00E004
00E000
01C000
01C080
01C180
01FF80
03FF00
038100
038100
070200
070000
070000
070010
0E0030
0E0060
0E00E0
1E03C0
FFFFC0
ENDCHAR
STARTCHAR 0402
ENCODING 1026
SWIDTH 806 0
DWIDTH 28 0
BBX 23 23 3 0
BITMAP
3FFFF8
3C38F8
607030
407010
407010
00E000
00E000
00E000
01E3F8
01CE7C
01F01E
01E00E
03C00E
03800E
03800E
07000E
07001E
07001C
07003C
0E0038
0E0070
1E00E0
FFCF80
ENDCHAR
STARTCHAR 0403
ENCODING 1027
SWIDTH 576 0
DWIDTH 20 0
BBX 24 30 -1 0
BITMAP
0001E0
0001C0
000180
000300
000200
000200
000000
03FFFF
00700F
007002
007002
00E002
00E004
00E000
01C000
01C000
01C000
01C000
038000
038000
038000
070000
070000
070000
0E0000
0E0000
0E0000
1E0000
1E0000
FFC000
ENDCHAR
STARTCHAR 0404
ENCODING 1028
SWIDTH 662 0
DWIDTH 23 0
BBX 22 24 2 0
BITMAP
003FFC
00E03C
01C01C
07800C
0F0008
0E0008
1C0008
3C0000
380000
780000
780000
7FF000
700000
F00000
F00000
F00000
700000
700000
780020
380040
1C0080
0F0300
07FC00
004000
ENDCHAR
STARTCHAR 0405
ENCODING 1029
SWIDTH 489 0
DWIDTH 17 0
BBX 19 25 0 -1
BITMAP
000020
00FE60
0383C0
0300C0
0700C0
0700C0
070080
070080
078000
03C000
01E000
01F000
00F800
007C00
003E00
001E00
200F00
200F00
200F00
600E00
600E00
700C00
781C00
CFF000
808000
ENDCHAR
STARTCHAR 0406
ENCODING 1030
SWIDTH 345 0
DWIDTH 12 0
BBX 15 23 -1 0
BITMAP
03FE
0078
0070
0070
00E0
00E0
00E0
01C0
01C0
01C0
01C0
0380
0380
0380
0700
0700
0700
0700
0E00
0E00
0E00
1E00
FFC0
ENDCHAR
STARTCHAR 0407
ENCODING 1031
SWIDTH 345 0
DWIDTH 12 0
BBX 16 29 -1 0
BITMAP
01C7
01C7
01C7
0082
0000
0000
03FE
0078
0070
0070
00E0
00E0
00E0
01C0
01C0
01C0
01C0
0380
0380
0380
0700
0700
0700
0700
0E00
0E00
0E00
1E00
FFC0
ENDCHAR
STARTCHAR 0408
ENCODING 1032
SWIDTH 432 0
DWIDTH 15 0
BBX 20 23 -1 -1
BITMAP
001FF0
000780
000780
000700
000700
000700
000E00
000E00
000E00
001C00
001C00
001C00
001C00
003800
003800
003800
007000
007000
607000
F0E000
E0C000
E18000
7F0000
ENDCHAR
STARTCHAR 0409
ENCODING 1033
SWIDTH 921 0
DWIDTH 32 0
BBX 31 23 -1 0
BITMAP
007FFFE0
00180700
00080700
00180E00
00100E00
00100E00
00301C00
00301C00
00201C00
00201C00
00603FE0
00403BF8
0040383C
00C0701E
0080700E
0080700E
0180F00E
0100E00E
0300E01E
E200E01C
E601C03C
FC01C1F0
780FFFC0
ENDCHAR
STARTCHAR 040A
ENCODING 1034
SWIDTH 921 0
DWIDTH 32 0
BBX 31 23 -1 0
BITMAP
03FE3FE0
00780F00
00700F00
00700E00
00E00E00
00E00E00
00E01C00
01C01C00
01C01C00
01C03800
01FFFFC0
03803BF8
0380783C
0380701E
0700701E
0700700E
0700E00E
0E00E00E
0E00E01E
0E01C03C
0E01C078
1E03C1F0
FF8FFFC0
ENDCHAR
STARTCHAR 040B
ENCODING 1035
SWIDTH 806 0
DWIDTH 28 0
BBX 22 23 3 0
BITMAP
3FFFF8
3C3878
607030
407010
407010
00E000
00E000
00E000
00E7F8
01CE7C
01F01C
01E01C
03C01C
03801C
03801C
038038
070038
070038
070070
0E0070
0E0070
1E00F0
FFC3FC
ENDCHAR
STARTCHAR 040C
ENCODING 1036
SWIDTH 662 0
DWIDTH 23 0
BBX 26 31 -1 0
BITMAP
00007800
00007000
00006000
0000C000
0000C000
00008000
00000000
00000000
03FF07C0
00780FC0
007009C0
00701080
00E01000
00E02000
00E02000
01C04000
01C0C000
01C18000
01FF0000
03FE0000
038E0000
03870000
07070000
07038000
07038000
0703C000
0E01C000
0E01E000
0E00E000
1E00F000
FF807C00
ENDCHAR
STARTCHAR 040D
ENCODING 1037
SWIDTH 720 0
DWIDTH 25 0
BBX 29 31 -1 0
BITMAP
00038000
0001C000
0001C000
0000C000
00006000
00002000
00000000
00000000
03FE0FF8
007803C0
007003C0
00700780
00E00F80
00E01B80
00E01700
01C02700
01C04700
01C08F00
01C10E00
03820E00
03840E00
03881C00
07181C00
07301C00
07603800
0EC03800
0F803800
0F003800
0E007000
1E007000
FF83FE00
ENDCHAR
STARTCHAR 040E
ENCODING 1038
SWIDTH 662 0
DWIDTH 23 0
BBX 23 30 4 -1
BITMAP
01C0C0
01C1C0
00E1C0
007F00
000000
000000
FF80FE
3C0030
1C0030
1C0060
1C0040
0E00C0
0E0080
0E0100
0E0300
070200
070600
070400
070800
039800
039000
03B000
01A000
01C000
01C000
E18000
E10000
F30000
7E0000
100000
ENDCHAR
STARTCHAR 040F
ENCODING 1039
SWIDTH 720 0
DWIDTH 25 0
BBX 29 30 -1 -7
BITMAP
03FE0FF8
007803C0
007003C0
00700380
00E00380
00E00380
00E00700
01C00700
01C00700
01C00E00
01C00E00
03800E00
03800E00
03801C00
07001C00
07001C00
07003800
0E003800
0E003800
0E007800
0E007000
1E00F000
FFFFFE00
00FC0000
00780000
00700000
00600000
00400000
00400000
00400000
ENDCHAR
STARTCHAR 0410
ENCODING 1040
SWIDTH 604 0
DWIDTH 21 0
BBX 21 24 -2 0
BITMAP
000010
000010
000030
000070
0000F0
0000E0
0001E0
0003E0
0006E0
0004E0
0008E0
0018E0
0030E0
0020E0
0040E0
00FFE0
0081C0
0101C0
0201C0
0601C0
0401C0
0801C0
1C01C0
FE0FF8
ENDCHAR
STARTCHAR 0411
ENCODING 1041
SWIDTH 576 0
DWIDTH 20 0
BBX 23 23 -1 0
BITMAP
01FFFE
00701C
00700C
007004
00E004
00E008
00E000
01C000
01C000
01C000
01FE00
03BF80
0381E0
0381E0
0700F0
0700F0
0700F0
0F00F0
0E00E0
0E01E0
0E03C0
1C1F80
FFFC00
ENDCHAR
STARTCHAR 0412
ENCODING 1042
SWIDTH 604 0
DWIDTH 21 0
BBX 21 23 -1 0
BITMAP
03FFC0
0070F0
007078
007038
00E038
00E038
00E038
00C078
01C070
01C1E0
01FF80
039F80
0383C0
0381E0
0700E0
0700E0
0700E0
0600E0
0E01E0
0E01C0
0E0780
1C1F00
FFFC00
ENDCHAR
STARTCHAR 0413
ENCODING 1043
SWIDTH 576 0
DWIDTH 20 0
BBX 24 23 -1 0
BITMAP
03FFFF
00700F
007002
007002
00E002
00E004
00E000
01C000
01C000
01C000
01C000
038000
038000
038000
070000
070000
070000
0E0000
0E0000
0E0000
1E0000
1E0000
FFC000
ENDCHAR
STARTCHAR 0414
ENCODING 1044
SWIDTH 633 0
DWIDTH 22 0
BBX 29 30 -4 -7
BITMAP
001FFFF8
000601C0
000601C0
00040380
00040380
00040380
000C0700
00080700
00080700
00180700
00100E00
00100E00
00300E00
00201C00
00201C00
00401C00
00401C00
00C03800
00803800
01003800
03007000
0600F800
3FFFFE00
3C001E00
30000E00
20000400
40000400
40000400
40000800
80000000
ENDCHAR
STARTCHAR 0415
ENCODING 1045
SWIDTH 604 0
DWIDTH 21 0
BBX 23 23 -1 0
BITMAP
03FFFE
00703E
00700C
007004
00E004
00E004
00E000
01C000
01C080
01C180
01FF80
03FF00
038100
038100
070200
070000
070000
070010
0E0030
0E0060
0E00E0
1E03C0
FFFFC0
ENDCHAR
STARTCHAR 0416
ENCODING 1046
SWIDTH 921 0
DWIDTH 32 0
BBX 36 23 -2 0
BITMAP
00F07FC1E0
01F80F03F0
01D80E02F0
00880E0620
00080E0400
00081C0C00
00081C0800
00081C1800
0008381000
0008382000
0007FFC000
000FFF8000
003C73C000
007871C000
007071E000
00F0E0E000
01E0E0E000
03C0E07000
0781C07000
0F01C03800
0E01C03800
1C03C01C00
FC1FF01F00
ENDCHAR
STARTCHAR 0417
ENCODING 1047
SWIDTH 489 0
DWIDTH 17 0
BBX 17 24 0 0
BITMAP
03FE00
070700
060380
040380
080380
080380
000780
000700
000E00
001C00
01F000
01F800
001C00
001E00
000E00
000E00
000E00
000E00
001E00
001C00
803800
407000
3FE000
020000
ENDCHAR
STARTCHAR 0418
ENCODING 1048
SWIDTH 720 0
DWIDTH 25 0
BBX 29 23 -1 0
BITMAP
03FE0FF8
007803C0
007003C0
00700780
00E00F80
00E01B80
00E01700
01C02700
01C04700
01C08F00
01C10E00
03820E00
03840E00
03881C00
07181C00
07301C00
07603800
0EC03800
0F803800
0F003800
0E007000
1E007000
FF83FE00
ENDCHAR
STARTCHAR 0419
ENCODING 1049
SWIDTH 720 0
DWIDTH 25 0
BBX 29 29 -1 0
BITMAP
00038380
00038380
0001C700
0000FC00
00000000
00000000
03FE0FF8
007803C0
007003C0
00700780
00E00F80
00E01B80
00E01700
01C02700
01C04700
01C08F00
01C10E00
03820E00
03840E00
03881C00
07181C00
07301C00
07603800
0EC03800
0F803800
0F003800
0E007000
1E007000
FF83FE00
ENDCHAR
STARTCHAR 041A
ENCODING 1050
SWIDTH 662 0
DWIDTH 23 0
BBX 26 23 -1 0
BITMAP
03FF07C0
00780FC0
007009C0
00701080
00E01000
00E02000
00E02000
01C04000
01C0C000
01C18000
01FF0000
03FE0000
038E0000
03870000
07070000
07038000
07038000
0703C000
0E01C000
0E01E000
0E00E000
1E00F000
FF807C00
ENDCHAR
STARTCHAR 041B
ENCODING 1051
SWIDTH 691 0
DWIDTH 24 0
BBX 27 23 -1 0
BITMAP
007FFFE0
00180780
00180700
00180700
00100E00
00100E00
00100E00
00301C00
00201C00
00201C00
00601C00
00403800
00403800
00403800
00C07000
00807000
00807000
01007000
0100E000
E300E000
E200E000
F401E000
7807F800
ENDCHAR
STARTCHAR 041C
ENCODING 1052
SWIDTH 835 0
DWIDTH 29 0
BBX 33 23 -1 0
BITMAP
03F0001F80
0070003C00
0070003C00
0070007800
00F800F800
00B800F800
00B8017000
01B8037000
0138067000
013804E000
013808E000
023818E000
023831C000
021C21C000
061C61C000
041CC1C000
041C838000
0C1D038000
081F038000
081E070000
081C070000
1808070000
FF087FE000
ENDCHAR
STARTCHAR 041D
ENCODING 1053
SWIDTH 720 0
DWIDTH 25 0
BBX 29 23 -1 0
BITMAP
03FE0FF8
007803C0
007003C0
00700380
00E00380
00E00380
00E00700
01C00700
01C00700
01C00E00
01FFFE00
03800E00
03800E00
03801C00
07001C00
07001C00
07003800
0E003800
0E003800
0E003800
0E007000
1E007000
FF83FE00
ENDCHAR
STARTCHAR 041E
ENCODING 1054
SWIDTH 720 0
DWIDTH 25 0
BBX 23 23 2 0
BITMAP
003FE0
00E078
01C038
03801C
07001C
0E001E
1C001E
1C001E
38001E
78001E
78001E
70001C
F0003C
F0003C
F00038
F00078
F00070
F000E0
7001E0
7003C0
380700
3C0E00
0FF800
ENDCHAR
STARTCHAR 041F
ENCODING 1055
SWIDTH 720 0
DWIDTH 25 0
BBX 29 23 -1 0
BITMAP
03FFFFF8
007001C0
007001C0
00700380
00E00380
00E00380
00E00700
01C00700
01C00700
01C00E00
01C00E00
03800E00
03800E00
03801C00
07001C00
07001C00
07003800
0F003800
0E003800
0E007800
0E007000
1E00F000
FF83FE00
ENDCHAR
STARTCHAR 0420
ENCODING 1056
SWIDTH 604 0
DWIDTH 21 0
BBX 23 23 -1 0
BITMAP
03FFE0
0078F8
00703C
00701C
00E01E
00E01E
00E01C
00E01C
01C03C
01C078
01C0F0
03FFC0
038000
038000
078000
070000
070000
070000
0E0000
0E0000
0E0000
1E0000
FF8000
ENDCHAR
STARTCHAR 0421
ENCODING 1057
SWIDTH 662 0
DWIDTH 23 0
BBX 22 24 2 0
BITMAP
003FF4
00E03C
03C01C
070008
0F0008
1E0008
1C0008
3C0000
380000
780000
780000
700000
F00000
F00000
F00000
F00000
700000
700000
780020
380040
3C0080
1F0300
07FE00
004000
ENDCHAR
STARTCHAR 0422
ENCODING 1058
SWIDTH 547 0
DWIDTH 19 0
BBX 19 23 3 0
BITMAP
3FFFE0
3C73E0
606060
40E040
40E040
80E040
01C000
01C000
01C000
038000
038000
038000
038000
070000
070000
070000
0E0000
0E0000
0E0000
0E0000
1C0000
1E0000
FFC000
ENDCHAR
STARTCHAR 0423
ENCODING 1059
SWIDTH 662 0
DWIDTH 23 0
BBX 23 24 4 -1
BITMAP
FF80FE
3C0030
1C0030
1C0060
1C0040
0E00C0
0E0080
0E0100
0E0300
070200
070600
070400
070800
039800
039000
03B000
01A000
01C000
01C000
E18000
E10000
F30000
7E0000
100000
ENDCHAR
STARTCHAR 0424
ENCODING 1060
SWIDTH 806 0
DWIDTH 28 0
BBX 24 23 3 0
BITMAP
003FF0
000780
000700
000F80
01FF78
0F0E0E
1C0E06
380E07
701C07
F01C07
E01C07
E03C07
E03807
E0380F
E0380E
E0701C
607038
7070F0
1CF3C0
07FC00
00E000
01E000
07FC00
ENDCHAR
STARTCHAR 0425
ENCODING 1061
SWIDTH 604 0
DWIDTH 21 0
BBX 28 23 -2 0
BITMAP
01FE0FF0
00780380
00380700
00380400
001C0800
001C1000
001C2000
001C6000
000EC000
000F8000
000F0000
000F0000
000F0000
001F0000
00370000
00638000
00C38000
01838000
0303C000
0601C000
0C01C000
1C01E000
FE07FC00
ENDCHAR
STARTCHAR 0426
ENCODING 1062
SWIDTH 720 0
DWIDTH 25 0
BBX 29 29 -1 -7
BITMAP
03FE0FF8
007803C0
007003C0
00700380
00E00380
00E00380
00E00700
01C00700
01C00700
01C00E00
01C00E00
03800E00
03800E00
03801C00
07001C00
07001C00
07003800
0F003800
0E003800
0E007800
0E007000
1E00F800
FFFFFE00
00001E00
00000E00
00000400
00000400
00000400
00000800
ENDCHAR
STARTCHAR 0427
ENCODING 1063
SWIDTH 691 0
DWIDTH 24 0
BBX 23 23 4 0
BITMAP
FF87FE
3C00F0
1C00E0
3800E0
3800E0
3801C0
3801C0
7001C0
7001C0
700380
700380
780780
3FFF00
0FC700
000700
000700
000E00
000E00
000E00
001C00
001C00
003C00
00FF80
ENDCHAR
STARTCHAR 0428
ENCODING 1064
SWIDTH 1036 0
DWIDTH 36 0
BBX 39 23 0 0
BITMAP
07FC3FC1FE
00F00F00F0
00E00E00F0
00E00E00E0
01C00E00E0
01C01C00E0
01C01C01E0
03801C01C0
03803C01C0
03803801C0
0380380380
0700380380
0700700380
0700700700
0E00700700
0E00E00700
0E00E00700
1C00E00E00
1C00E00E00
1C01C00E00
1C01C01C00
3E03E03E00
FFFFFFFF80
ENDCHAR
STARTCHAR 0429
ENCODING 1065
SWIDTH 1036 0
DWIDTH 36 0
BBX 39 29 0 -7
BITMAP
07FC3FC1FE
00F00F00F0
00E00E00F0
00E00E00E0
01C00E00E0
01C01C00E0
01C01C01E0
03801C01C0
03803C01C0
03803801C0
0380380380
0700380380
0700700380
0700700700
0E00700700
0E00E00700
0E00E00700
1C00E00E00
1C00E00E00
1C01C00E00
1C01C01C00
3C03E03E00
FFFFFFFF80
0000000780
0000000380
0000000100
0000000100
0000000100
0000000100
ENDCHAR
STARTCHAR 042A
ENCODING 1066
SWIDTH 662 0
DWIDTH 23 0
BBX 20 23 2 0
BITMAP
1FFE00
1C7800
307000
207000
20E000
40E000
00E000
01C000
01C000
01C000
01FE00
03BF80
0383E0
0381E0
0700F0
0700F0
0700F0
0F00F0
0E00E0
0E01E0
0E03C0
1C1F80
FFFC00
ENDCHAR
STARTCHAR 042B
ENCODING 1067
SWIDTH 864 0
DWIDTH 30 0
BBX 34 23 -1 0
BITMAP
01FF007FC0
0078000F00
0070000E00
0070000E00
00E0001C00
00E0001C00
00E0001C00
01C0003800
01C0003800
01C0003800
01FE003800
03BF807000
0381E07000
0381E07000
0700F0E000
0700F0E000
0700F0E000
0F00F0E000
0E00E1C000
0E01E1C000
0E03C1C000
1C1F83C000
FFFC1FF800
ENDCHAR
STARTCHAR 042C
ENCODING 1068
SWIDTH 576 0
DWIDTH 20 0
BBX 20 23 -1 0
BITMAP
01FF00
007800
007000
007000
00E000
00E000
00E000
01C000
01C000
01C000
01FE00
03BF80
0381E0
0381E0
0700F0
0700F0
0700F0
0F00F0
0E00E0
0E01E0
0E03C0
1C1F80
FFFC00
ENDCHAR
STARTCHAR 042D
ENCODING 1069
SWIDTH 662 0
DWIDTH 23 0
BBX 21 24 1 0
BITMAP
05FF80
0F01C0
0C00E0
0800F0
100070
100078
000038
000038
000038
000038
000038
007FF8
000078
000078
000070
000070
0000E0
0000E0
8001C0
400380
600700
381E00
0FF800
008000
ENDCHAR
STARTCHAR 042E
ENCODING 1070
SWIDTH 1036 0
DWIDTH 36 0
BBX 37 24 -1 0
BITMAP
03FE00FF80
00700381C0
00700600E0
00700C0070
00E01C0070
00E0380078
00E0700078
01C0F00078
01C0E00078
01C1E00078
01C1C00070
03FFC00070
0383C000F0
0383C000E0
0703C001E0
07038001C0
07038003C0
0703800380
0E03C00700
0E01C00E00
0E01E01C00
1E00F03800
FF803FE000
0000040000
ENDCHAR
STARTCHAR 042F
ENCODING 1071
SWIDTH 662 0
DWIDTH 23 0
BBX 28 23 -2 0
BITMAP
0003FFF0
001E0780
003C0700
00780700
00700700
00F00E00
00F00E00
00F00E00
00701C00
00781C00
001C1C00
0007FC00
001C3800
00383800
00783800
00F07000
01E07000
03C07000
07807000
0F00E000
0E00E000
3C01E000
FC07FC00
ENDCHAR
STARTCHAR 0430
ENCODING 1072
SWIDTH 489 0
DWIDTH 17 0
BBX 15 15 1 0
BITMAP
03EE
061E
0C1C
181C
381C
301C
7018
6038
E038
E070
E070
E0F2
E174
FE74
7C78
ENDCHAR
STARTCHAR 0431
ENCODING 1073
SWIDTH 489 0
DWIDTH 17 0
BBX 17 24 1 0
BITMAP
000080
003F00
00FF00
01F800
030000
040000
080000
080000
100000
11F800
260C00
2C0E00
580E00
780E00
700E00
700E00
E00E00
E00E00
E01C00
E01C00
E03800
603000
706000
3F8000
ENDCHAR
STARTCHAR 0432
ENCODING 1074
SWIDTH 432 0
DWIDTH 15 0
BBX 14 15 1 0
BITMAP
03F8
0E1C
1C1C
3818
3830
7060
7380
FFC0
E0E0
E070
E070
E070
E060
60E0
3F80
ENDCHAR
STARTCHAR 0433
ENCODING 1075
SWIDTH 403 0
DWIDTH 14 0
BBX 13 15 0 0
BITMAP
07F0
0838
1018
0018
0038
0070
00C0
0700
1800
7000
6000
E000
E010
F060
7F80
ENDCHAR
STARTCHAR 0434
ENCODING 1076
SWIDTH 518 0
DWIDTH 18 0
BBX 15 24 1 0
BITMAP
0300
00C0
0020
0010
0018
000C
000C
000E
000E
03F6
060E
0C0E
180E
380E
700E
700E
E00E
E01C
E01C
E038
E038
6070
70E0
3F80
ENDCHAR
STARTCHAR 0435
ENCODING 1077
SWIDTH 432 0
DWIDTH 15 0
BBX 14 15 1 0
BITMAP
01F8
061C
0C1C
181C
3818
3030
70E0
6780
F800
E000
E000
E008
7030
7CC0
3F80
ENDCHAR
STARTCHAR 0436
ENCODING 1078
SWIDTH 921 0
DWIDTH 32 0
BBX 32 15 0 0
BITMAP
07E0603E
08F0E0C3
1070E187
2038C307
0038C702
0039C600
0031CE00
003FFE00
00738C00
00638C00
00E30C00
E0C30C00
E1870E04
C3070F18
7E0607E0
ENDCHAR
STARTCHAR 0437
ENCODING 1079
SWIDTH 403 0
DWIDTH 14 0
BBX 14 15 -1 0
BITMAP
0FF0
0C18
081C
101C
0018
0070
07C0
00C0
0060
0070
0070
0070
80F0
41E0
3F80
ENDCHAR
STARTCHAR 0438
ENCODING 1080
SWIDTH 489 0
DWIDTH 17 0
BBX 15 15 1 0
BITMAP
1C06
7C0E
9C0E
9C0C
181C
381C
3838
3838
3078
70B8
70B0
6132
6274
7C7C
7878
ENDCHAR
STARTCHAR 0439
ENCODING 1081
SWIDTH 489 0
DWIDTH 17 0
BBX 15 23 1 0
BITMAP
0382
03C2
01FC
00F0
0000
0000
0000
0000
1C06
7C0E
9C0E
9C0C
181C
381C
3838
3838
3078
70B8
70B0
6132
6274
7C7C
7878
ENDCHAR
STARTCHAR 043A
ENCODING 1082
SWIDTH 460 0
DWIDTH 16 0
BBX 15 15 1 0
BITMAP
3C1E
5C1E
1C26
1C20
1840
3880
3980
3F00
3380
7180
61C0
60E0
E0E0
E070
C07C
ENDCHAR
STARTCHAR 043B
ENCODING 1083
SWIDTH 432 0
DWIDTH 15 0
BBX 15 15 -1 0
BITMAP
07FE
010E
010C
011C
021C
0218
0218
0438
0438
0430
0870
0870
1064
F068
E070
ENDCHAR
STARTCHAR 043C
ENCODING 1084
SWIDTH 633 0
DWIDTH 22 0
BBX 23 15 -2 0
BITMAP
01F00E
02F01E
00F01C
00F03C
01705C
01305C
013098
023138
023138
023230
043470
043470
083874
783078
F03070
ENDCHAR
STARTCHAR 043D
ENCODING 1085
SWIDTH 489 0
DWIDTH 17 0
BBX 15 15 1 0
BITMAP
3C0E
5C0E
1C0C
1C1C
181C
3818
3818
3FF8
3038
7030
7070
6072
E064
E078
C070
ENDCHAR
STARTCHAR 043E
ENCODING 1086
SWIDTH 489 0
DWIDTH 17 0
BBX 15 15 1 0
BITMAP
01F8
060C
0C0E
180E
380E
700E
700E
E00E
E01C
E01C
E038
E038
E070
70E0
3F80
ENDCHAR
STARTCHAR 043F
ENCODING 1087
SWIDTH 489 0
DWIDTH 17 0
BBX 15 15 1 0
BITMAP
3C3C
5C7C
1C8C
1D0C
1A1C
3A1C
3C18
3838
3838
7030
7030
6072
E074
E078
C070
ENDCHAR
STARTCHAR 0440
ENCODING 1088
SWIDTH 489 0
DWIDTH 17 0
BBX 19 22 -3 -7
BITMAP
07C7C0
01C9E0
01E0E0
01E0E0
01C0E0
0380E0
0380E0
0300E0
0300C0
0701C0
070180
060300
0E0700
0E0C00
0FF800
0C0000
1C0000
1C0000
180000
380000
380000
FE0000
ENDCHAR
STARTCHAR 0441
ENCODING 1089
SWIDTH 432 0
DWIDTH 15 0
BBX 14 15 1 0
BITMAP
01F8
060C
0C1C
181C
3018
7000
6000
E000
E000
E000
E000
E010
F020
7840
3F80
ENDCHAR
STARTCHAR 0442
ENCODING 1090
SWIDTH 720 0
DWIDTH 25 0
BBX 23 15 1 0
BITMAP
3C3C3C
5CFC7C
1D9C9C
19191C
1A1A18
3C3A18
383C38
383838
703830
707070
707070
606072
E0E064
E0E0F8
C0C0F0
ENDCHAR
STARTCHAR 0443
ENCODING 1091
SWIDTH 432 0
DWIDTH 15 0
BBX 18 22 -3 -7
BITMAP
0781C0
0B81C0
01C0C0
01C040
01C040
01C080
01C100
01C100
00C200
00C400
00C400
00C800
00D000
00E000
00E000
00C000
008000
010000
020000
040000
E80000
F00000
ENDCHAR
STARTCHAR 0444
ENCODING 1092
SWIDTH 720 0
DWIDTH 25 0
BBX 22 31 1 -7
BITMAP
000780
001F80
000380
000300
000700
000700
000600
000E00
000E00
03EDF8
0E1E18
1C1E0C
381C0C
38180C
70380C
70381C
E0301C
E0301C
E07038
E07038
E0F070
E0F060
61F0C0
36DB80
08C400
01C000
01C000
018000
038000
038000
0FE000
ENDCHAR
STARTCHAR 0445
ENCODING 1093
SWIDTH 432 0
DWIDTH 15 0
BBX 16 15 -1 0
BITMAP
3F07
070F
0390
03A0
01C0
01C0
01C0
01C0
01C0
02C0
02E0
04E2
0864
F078
E070
ENDCHAR
STARTCHAR 0446
ENCODING 1094
SWIDTH 489 0
DWIDTH 17 0
BBX 15 22 1 -7
BITMAP
1C06
7C0E
9C0E
9C0C
181C
381C
3838
3838
3078
70B8
70B0
6132
6274
7C7C
7878
0010
0030
0030
0030
0030
0060
0080
ENDCHAR
STARTCHAR 0447
ENCODING 1095
SWIDTH 489 0
DWIDTH 17 0
BBX 13 15 2 0
BITMAP
F818
7838
3038
7030
7030
6070
6070
60E0
7FE0
18E0
00C0
00C8
01D0
01F0
01C0
ENDCHAR
STARTCHAR 0448
ENCODING 1096
SWIDTH 748 0
DWIDTH 26 0
BBX 24 15 1 0
BITMAP
1C0607
3C0E07
5C0E06
9C0C06
1C1C0E
181C0E
381C1C
38382C
30583C
70B858
70B058
7130B9
62313A
7C7E3E
783C3C
ENDCHAR
STARTCHAR 0449
ENCODING 1097
SWIDTH 748 0
DWIDTH 26 0
BBX 24 22 1 -7
BITMAP
1C0607
3C0E07
5C0E06
9C0C06
1C1C0E
181C0E
381C1C
38382C
30583C
70B858
70B058
7130B9
62313A
7C7E3E
783C3C
000008
000018
000018
000018
000010
000030
000040
ENDCHAR
STARTCHAR 044A
ENCODING 1098
SWIDTH 518 0
DWIDTH 18 0
BBX 15 15 1 0
BITMAP
7F80
7F00
4700
8700
0600
0E38
0EFE
0D0E
0E0E
1C0E
1C0E
180E
181C
0C18
0FF0
ENDCHAR
STARTCHAR 044B
ENCODING 1099
SWIDTH 691 0
DWIDTH 24 0
BBX 20 15 2 0
BITMAP
7803F0
B800E0
3800E0
3000E0
3000C0
73C0C0
77E1C0
7871C0
F07180
E07380
C07380
C07310
C0E320
E1C740
7F0780
ENDCHAR
STARTCHAR 044C
ENCODING 1100
SWIDTH 460 0
DWIDTH 16 0
BBX 12 15 2 0
BITMAP
7800
B800
3800
3000
3000
73C0
77E0
7870
F070
E070
C070
C070
C0E0
E1C0
7F00
ENDCHAR
STARTCHAR 044D
ENCODING 1101
SWIDTH 432 0
DWIDTH 15 0
BBX 14 15 0 0
BITMAP
1FE0
1830
3038
201C
001C
001C
001C
07FC
0038
0038
0038
8070
40E0
21C0
1F80
ENDCHAR
STARTCHAR 044E
ENCODING 1102
SWIDTH 691 0
DWIDTH 24 0
BBX 22 15 1 0
BITMAP
3C03F0
5C0C18
1C181C
1C301C
18701C
38E01C
38E01C
3FE01C
31C01C
71C038
71C038
61C070
E0C0E0
E0E1C0
C07F00
ENDCHAR
STARTCHAR 044F
ENCODING 1103
SWIDTH 460 0
DWIDTH 16 0
BBX 17 15 -2 0
BITMAP
01FF80
038380
070300
070700
070700
070600
038600
00FE00
01CE00
038C00
071C00
0E1C80
1C1900
381F00
F01C00
ENDCHAR
STARTCHAR 0451
ENCODING 1105
SWIDTH 432 0
DWIDTH 15 0
BBX 15 23 1 0
BITMAP
0104
038E
038E
038E
0000
0000
0000
0000
01F8
061C
0C1C
181C
3818
3030
70E0
6780
F800
E000
E000
E008
7030
7CC0
3F80
ENDCHAR
STARTCHAR 0452
ENCODING 1106
SWIDTH 489 0
DWIDTH 17 0
BBX 14 31 1 -7
BITMAP
0780
1F80
0300
0300
1FF8
0700
0600
0E00
0E00
0C3C
0C7C
1C9C
1D1C
1A1C
3A1C
3C1C
381C
3838
7038
7038
6070
E070
E060
C0E0
00C0
0180
0180
0300
0600
0C00
1000
ENDCHAR
STARTCHAR 0453
ENCODING 1107
SWIDTH 374 0
DWIDTH 13 0
BBX 15 24 -1 0
BITMAP
001E
001C
0038
0030
0020
0040
0000
0000
0000
0FFE
0706
0704
0704
0600
0E00
0E00
0C00
0C00
1C00
1C00
1800
3800
3800
FE00
ENDCHAR
STARTCHAR 0454
ENCODING 1108
SWIDTH 432 0
DWIDTH 15 0
BBX 14 15 1 0
BITMAP
01FC
060C
0C04
1804
3000
7000
6000
FF80
E000
E000
E000
E010
E020
78C0
3F80
ENDCHAR
STARTCHAR 0455
ENCODING 1109
SWIDTH 403 0
DWIDTH 14 0
BBX 12 15 0 0
BITMAP
07F0
0C30
1810
1C10
1C10
0E00
0F00
0780
03C0
01C0
81C0
C0C0
C0C0
C180
FF00
ENDCHAR
STARTCHAR 0456
ENCODING 1110
SWIDTH 288 0
DWIDTH 10 0
BBX 7 22 2 0
BITMAP
0E
0E
0E
00
00
00
00
7C
38
18
38
38
30
70
70
60
60
E0
E4
C8
F0
E0
ENDCHAR
STARTCHAR 0457
ENCODING 1111
SWIDTH 288 0
DWIDTH 10 0
BBX 11 23 2 0
BITMAP
30C0
79E0
79E0
30C0
0000
0000
0000
0000
7C00
3800
1800
3800
3800
3000
7000
7000
6000
6000
E000
E400
C800
F000
E000
ENDCHAR
STARTCHAR 0458
ENCODING 1112
SWIDTH 288 0
DWIDTH 10 0
BBX 16 29 -6 -7
BITMAP
0006
000F
000E
0000
0000
0000
0000
003C
007C
0018
0018
0038
0038
0030
0070
0070
0060
00E0
00E0
00E0
00C0
01C0
01C0
0180
0380
0300
0300
E600
FC00
ENDCHAR
STARTCHAR 0459
ENCODING 1113
SWIDTH 691 0
DWIDTH 24 0
BBX 23 15 -1 0
BITMAP
001F00
006700
008600
010600
010E00
020E78
020DFC
041E1E
041C0E
041C0E
08180E
08380C
08181C
F01838
E00FE0
ENDCHAR
STARTCHAR 045A
ENCODING 1114
SWIDTH 720 0
DWIDTH 25 0
BBX 22 15 1 0
BITMAP
3C1E00
5C2E00
1C0E00
1C0C00
180C00
381CF0
3819F8
3FFE1C
30381C
70381C
70301C
603018
E03038
E03870
C01FC0
ENDCHAR
STARTCHAR 045B
ENCODING 1115
SWIDTH 489 0
DWIDTH 17 0
BBX 15 24 1 0
BITMAP
0780
1F80
0300
0300
3FF8
3FF8
0600
0E00
0E00
0C3C
0C7C
1C8C
1D0C
1A1C
3A1C
3C18
3838
3838
7030
7030
6072
E074
E078
C070
ENDCHAR
STARTCHAR 045C
ENCODING 1116
SWIDTH 460 0
DWIDTH 16 0
BBX 15 24 1 0
BITMAP
003C
0038
0070
0060
0040
0080
0000
0000
0000
3C1E
5C1E
1C26
1C20
1840
3880
3980
3F00
3380
7180
61C0
60E0
E0E0
E070
C07C
ENDCHAR
STARTCHAR 045D
ENCODING 1117
SWIDTH 489 0
DWIDTH 17 0
BBX 15 24 1 0
BITMAP
03C0
01C0
00C0
0060
0020
0020
0000
0000
0000
1C06
7C0E
9C0E
9C0C
181C
381C
3838
3838
3078
70B8
70B0
6132
6274
7C7C
7878
ENDCHAR
STARTCHAR 045E
ENCODING 1118
SWIDTH 432 0
DWIDTH 15 0
BBX 18 30 -3 -7
BITMAP
007040
007080
007F00
001E00
000000
000000
000000
000000
0781C0
0B81C0
01C0C0
01C040
01C040
01C080
01C100
01C100
00C200
00C400
00C400
00C800
00D000
00E000
00C000
00C000
008000
010000
020000
040000
E80000
F00000
ENDCHAR
STARTCHAR 045F
ENCODING 1119
SWIDTH 489 0
DWIDTH 17 0
BBX 15 22 1 -7
BITMAP
1C06
7C0E
9C0E
9C0C
181C
381C
3838
3838
3078
70B8
70B0
6132
6274
7C7C
7878
1000
2000
7000
7000
6000
4000
8000
ENDCHAR
STARTCHAR 0490
ENCODING 1168
SWIDTH 432 0
DWIDTH 15 0
BBX 21 27 -1 1
BITMAP
000008
000008
000010
000070
03FFF0
007000
007000
007000
00E000
00E000
00E000
01C000
01C000
01C000
01C000
038000
038000
038000
070000
070000
070000
0E0000
0E0000
0E0000
0E0000
1E0000
FF8000
ENDCHAR
STARTCHAR 0491
ENCODING 1169
SWIDTH 316 0
DWIDTH 11 0
BBX 11 18 2 0
BITMAP
0020
0020
00C0
7FC0
1800
1800
3800
3800
3000
7000
7000
6000
6000
E000
E400
C800
F000
E000
ENDCHAR
STARTCHAR 0492
ENCODING 1170
SWIDTH 576 0
DWIDTH 20 0
BBX 24 23 -1 0
BITMAP
03FFFF
00700F
007006
007002
00E002
00E004
00E000
01C000
01C000
01C000
0FFF00
1FFF00
038000
038000
070000
070000
070000
0E0000
0E0000
0E0000
1E0000
1E0000
FFC000
ENDCHAR
STARTCHAR 0493
ENCODING 1171
SWIDTH 403 0
DWIDTH 14 0
BBX 13 15 0 0
BITMAP
07F0
0838
1018
0018
0C38
0670
02C0
0700
1980
3080
6080
E000
E010
F060
7F80
ENDCHAR
STARTCHAR 0496
ENCODING 1174
SWIDTH 921 0
DWIDTH 32 0
BBX 36 30 -2 -7
BITMAP
00F07FC1E0
01F00F03F0
01D80E02F0
00880E0620
00080E0400
00081C0C00
00081C0800
00081C1800
0008381000
0008382000
0007FFC000
000FFF8000
003C73C000
007871C000
007071E000
00F0E0E000
01E0E0E000
03C0E07000
0781C07000
0F01C03800
0E01C03800
3C03C01C00
FC1FF01F00
0000000F00
0000000700
0000000200
0000000200
0000000200
0000000400
0000000400
ENDCHAR
STARTCHAR 0497
ENCODING 1175
SWIDTH 921 0
DWIDTH 32 0
BBX 32 21 0 -7
BITMAP
07E0607E
08F0E0C3
1070E187
2038C307
0038C702
0039C600
0031CE00
003FFE00
00738C00
00638C00
00E30C00
E0C30E00
E1870E04
C3070F18
660607F0
18000010
00000020
00000060
00000060
00000060
000000C0
ENDCHAR
STARTCHAR 049A
ENCODING 1178
SWIDTH 662 0
DWIDTH 23 0
BBX 26 29 -1 -7
BITMAP
03FF07C0
00780FC0
007009C0
00701080
00E01000
00E02000
00E02000
01C04000
01C0C000
01C18000
01FF0000
03FE0000
038E0000
03870000
07070000
07038000
07038000
0703C000
0E01C000
0E01E000
0E00E000
1E00F000
FF807C00
00003C00
00001C00
00000800
00000800
00000800
00000800
ENDCHAR
STARTCHAR 049B
ENCODING 1179
SWIDTH 460 0
DWIDTH 16 0
BBX 15 22 1 -7
BITMAP
3C1E
5C1E
1C26
1C20
1840
3880
3980
3F00
3380
7180
61C0
60E2
E0E4
E07C
C078
0010
0030
0030
0030
0030
0060
0080
ENDCHAR
STARTCHAR 049C
ENCODING 1180
SWIDTH 662 0
DWIDTH 23 0
BBX 26 23 -1 0
BITMAP
03FF07C0
00780FC0
007009C0
00701080
00E01000
00E22000
00E62000
01C64000
01C4C000
01C58000
01FF0000
03FE0000
038E0000
039F0000
071F0000
07138000
07138000
0733C000
0E21C000
0E01E000
0E00E000
1E00F000
FF807C00
ENDCHAR
STARTCHAR 049D
ENCODING 1181
SWIDTH 460 0
DWIDTH 16 0
BBX 15 15 1 0
BITMAP
3C1E
5C1E
1DA6
1D20
1940
3B80
3B80
3F00
3380
7780
65C0
64E0
ECE0
E070
C07C
ENDCHAR
STARTCHAR 04A2
ENCODING 1186
SWIDTH 720 0
DWIDTH 25 0
BBX 29 30 -1 -7
BITMAP
03FE0FF8
007803C0
007003C0
00700380
00E00380
00E00380
00E00700
01C00700
01C00700
01C00E00
01FFFE00
03800E00
03800E00
03801C00
07001C00
07001C00
07003800
0E003800
0E003800
0E003800
0E007000
1E007000
FF83FE00
00001E00
00000C00
00000C00
00000C00
00000800
00000800
00000800
ENDCHAR
STARTCHAR 04A3
ENCODING 1187
SWIDTH 489 0
DWIDTH 17 0
BBX 15 22 1 -7
BITMAP
3C0E
5C0E
1C0C
1C1C
181C
3818
3818
3FF8
3038
7030
7070
6070
E064
E078
C078
0010
0020
0060
0060
0060
0040
0080
ENDCHAR
STARTCHAR 04AE
ENCODING 1198
SWIDTH 547 0
DWIDTH 19 0
BBX 20 23 3 0
BITMAP
7F87F0
1E01C0
0E0180
0E0300
0E0200
070400
070C00
071800
031000
03A000
03E000
03C000
038000
038000
038000
070000
070000
070000
070000
0E0000
0E0000
1E0000
FFC000
ENDCHAR
STARTCHAR 04AF
ENCODING 1199
SWIDTH 489 0
DWIDTH 17 0
BBX 18 23 1 -7
BITMAP
7F8FC0
3E0380
1C0200
1C0600
1C0C00
1C0800
0C1800
0C3000
0E2000
0E4000
0EC000
0E8000
0F0000
0F0000
060000
0E0000
0E0000
0C0000
1C0000
1C0000
180000
380000
FE0000
ENDCHAR
STARTCHAR 04B0
ENCODING 1200
SWIDTH 547 0
DWIDTH 19 0
BBX 20 23 3 0
BITMAP
7F87F0
1E01C0
0E0180
0E0300
0E0200
070400
070C00
071800
031000
03B000
03E000
03C000
7F8000
FFFE00
038000
070000
070000
070000
070000
0E0000
0E0000
1E0000
FFC000
ENDCHAR
STARTCHAR 04B1
ENCODING 1201
SWIDTH 489 0
DWIDTH 17 0
BBX 19 23 0 -7
BITMAP
3FC7E0
1F01C0
0E0100
0E0300
0E0600
0E0400
060C00
061800
071000
072000
076000
074000
078000
078000
030000
FFF800
070000
060000
0E0000
0E0000
0C0000
1C0000
7F0000
ENDCHAR
STARTCHAR 04B2
ENCODING 1202
SWIDTH 604 0
DWIDTH 21 0
BBX 28 30 -2 -7
BITMAP
01FE0FF0
00780380
00380700
00380400
001C0800
001C1000
001C2000
001C6000
000EC000
000F8000
000F0000
000F0000
000F0000
001F0000
00370000
00638000
00C38000
01838000
0303C000
0601C000
0C01C000
1C01E000
FE07FC00
00007800
00003800
00001800
00001000
00001000
00001000
00001000
ENDCHAR
STARTCHAR 04B3
ENCODING 1203
SWIDTH 432 0
DWIDTH 15 0
BBX 16 22 -1 -7
BITMAP
3F07
070F
0390
03A0
01C0
01C0
01C0
01C0
01C0
02C0
02E0
04E2
0864
F07C
E078
0010
0030
0070
0030
0060
0040
0080
ENDCHAR
STARTCHAR 04B8
ENCODING 1208
SWIDTH 691 0
DWIDTH 24 0
BBX 23 23 4 0
BITMAP
FF87FE
3C00F0
1C00E0
3800E0
3800E0
3821C0
3861C0
7041C0
7041C0
70C380
70C380
788780
3FFF00
0FC700
010700
010700
030E00
030E00
020E00
001C00
001C00
003C00
00FF80
ENDCHAR
STARTCHAR 04B9
ENCODING 1209
SWIDTH 489 0
DWIDTH 17 0
BBX 13 15 2 0
BITMAP
F818
7838
3338
7330
7230
6270
6670
66E0
7FE0
1CE0
0CC0
08C8
01D0
01F0
01C0
ENDCHAR
STARTCHAR 04BA
ENCODING 1210
SWIDTH 691 0
DWIDTH 24 0
BBX 23 23 -1 0
BITMAP
03FE00
00F000
007000
00E000
00E000
00E000
00C000
01C000
01C000
01C7E0
03BFF8
03C038
03801C
07801C
07001C
070018
070038
0E0038
0E0038
0E0070
1E0070
1E00F0
FF83FE
ENDCHAR
STARTCHAR 04BB
ENCODING 1211
SWIDTH 489 0
DWIDTH 17 0
BBX 15 24 1 0
BITMAP
0380
1F80
0300
0300
0700
0700
0600
0E00
0E00
0C3C
0C7C
1C8C
1D0C
1A1C
3A1C
3C18
3838
3838
7030
7030
6072
E074
E078
C070
ENDCHAR
STARTCHAR 04D8
ENCODING 1240
SWIDTH 691 0
DWIDTH 24 0
BBX 22 25 2 -1
BITMAP
040000
07FFC0
0701E0
0600F0
0C0078
080038
080038
00003C
00003C
00003C
00003C
00003C
7FFFFC
F0003C
F00038
F00038
F00078
F00070
F000E0
7000E0
7001C0
380380
1C0F00
0FFC00
008000
ENDCHAR
STARTCHAR 04D9
ENCODING 1241
SWIDTH 432 0
DWIDTH 15 0
BBX 13 15 1 0
BITMAP
07E0
1DF0
2078
4038
0038
0038
0038
07F8
1C30
7070
E060
C0E0
C0C0
C100
FE00
ENDCHAR
STARTCHAR 04E8
ENCODING 1256
SWIDTH 720 0
DWIDTH 25 0
BBX 23 23 2 0
BITMAP
003FE0
00E078
01C038
03801C
07001C
0E001E
1C001E
1C001E
38001E
78001E
7FFFFE
70001C
F0003C
F0003C
F00038
F00078
F00070
F000E0
7001E0
7003C0
380700
3C0E00
0FF800
ENDCHAR
STARTCHAR 04E9
ENCODING 1257
SWIDTH 489 0
DWIDTH 17 0
BBX 15 15 1 0
BITMAP
01F8
060C
0C0E
180E
380E
700E
700E
FFFE
E01C
E01C
E038
E038
E070
60E0
3F80
ENDCHAR
STARTCHAR 05B0
ENCODING 1456
SWIDTH 345 0
DWIDTH 12 0
BBX 3 6 1 -8
BITMAP
E0
E0
00
40
E0
E0
ENDCHAR
STARTCHAR 05B1
ENCODING 1457
SWIDTH 345 0
DWIDTH 12 0
BBX 11 6 -3 -8
BITMAP
EEE0
EEC0
0000
1040
38E0
38C0
ENDCHAR
STARTCHAR 05B2
ENCODING 1458
SWIDTH 345 0
DWIDTH 12 0
BBX 10 6 -3 -8
BITMAP
FDC0
FCC0
0000
0080
01C0
00C0
ENDCHAR
STARTCHAR 05B3
ENCODING 1459
SWIDTH 345 0
DWIDTH 12 0
BBX 11 6 -3 -8
BITMAP
FEE0
FEE0
1000
3840
38E0
00E0
ENDCHAR
STARTCHAR 05B4
ENCODING 1460
SWIDTH 345 0
DWIDTH 12 0
BBX 3 2 1 -4
BITMAP
E0
E0
ENDCHAR
STARTCHAR 05B5
ENCODING 1461
SWIDTH 345 0
DWIDTH 12 0
BBX 7 2 -1 -4
BITMAP
EE
EE
ENDCHAR
STARTCHAR 05B6
ENCODING 1462
SWIDTH 345 0
DWIDTH 12 0
BBX 7 6 -1 -8
BITMAP
EE
EE
00
10
38
38
ENDCHAR
STARTCHAR 05B7
ENCODING 1463
SWIDTH 345 0
DWIDTH 12 0
BBX 7 2 -1 -5
BITMAP
FE
FE
ENDCHAR
STARTCHAR 05B8
ENCODING 1464
SWIDTH 345 0
DWIDTH 12 0
BBX 7 5 -1 -8
BITMAP
FE
FE
10
38
38
ENDCHAR
STARTCHAR 05B9
ENCODING 1465
SWIDTH 345 0
DWIDTH 12 0
BBX 3 3 8 20
BITMAP
C0
E0
40
ENDCHAR
STARTCHAR 05BA
ENCODING 1466
SWIDTH 345 0
DWIDTH 12 0
BBX 3 3 8 20
BITMAP
C0
E0
40
ENDCHAR
STARTCHAR 05BB
ENCODING 1467
SWIDTH 345 0
DWIDTH 12 0
BBX 11 6 -3 -8
BITMAP
E000
E000
0E00
0E40
00E0
00C0
ENDCHAR
STARTCHAR 05BC
ENCODING 1468
SWIDTH 345 0
DWIDTH 12 0
BBX 3 3 4 7
BITMAP
60
E0
40
ENDCHAR
STARTCHAR 05BD
ENCODING 1469
SWIDTH 345 0
DWIDTH 12 0
BBX 2 5 1 -8
BITMAP
C0
C0
C0
C0
C0
ENDCHAR
STARTCHAR 05BE
ENCODING 1470
SWIDTH 374 0
DWIDTH 13 0
BBX 9 4 4 14
BITMAP
FF80
FF80
FF80
FF80
ENDCHAR
STARTCHAR 05BF
ENCODING 1471
SWIDTH 345 0
DWIDTH 12 0
BBX 7 1 6 21
BITMAP
FE
ENDCHAR
STARTCHAR 05C0
ENCODING 1472
SWIDTH 345 0
DWIDTH 12 0
BBX 8 22 2 -2
BITMAP
03
07
07
06
06
0E
0C
0C
1C
1C
18
18
38
30
30
70
70
60
60
E0
C0
C0
ENDCHAR
STARTCHAR 05C1
ENCODING 1473
SWIDTH 345 0
DWIDTH 12 0
BBX 3 3 15 20
BITMAP
E0
E0
40
ENDCHAR
STARTCHAR 05C2
ENCODING 1474
SWIDTH 345 0
DWIDTH 12 0
BBX 3 3 1 20
BITMAP
E0
E0
40
ENDCHAR
STARTCHAR 05C3
ENCODING 1475
SWIDTH 345 0
DWIDTH 12 0
BBX 8 18 2 0
BITMAP
07
0F
07
00
00
00
00
00
00
00
00
00
00
00
00
60
E0
E0
ENDCHAR
STARTCHAR 05D0
ENCODING 1488
SWIDTH 489 0
DWIDTH 17 0
BBX 18 19 -1 0
BITMAP
040600
060700
060780
0707C0
0703C0
078200
03C400
01C400
07E800
08F800
187800
187800
183C00
381C00
381E00
380E00
380E00
380400
F80400
ENDCHAR
STARTCHAR 05D1
ENCODING 1489
SWIDTH 432 0
DWIDTH 15 0
BBX 15 19 -1 0
BITMAP
0400
07FC
0FFE
0FFE
03FE
0006
0006
0006
0006
0004
0004
000C
0008
0008
0010
0020
3FFC
7FF8
FFF8
ENDCHAR
STARTCHAR 05D2
ENCODING 1490
SWIDTH 316 0
DWIDTH 11 0
BBX 12 19 -2 0
BITMAP
0100
01C0
03F0
03F0
00F0
0030
0020
0020
0020
0040
0040
0040
0040
00C0
01C0
06E0
3C60
7840
F040
ENDCHAR
STARTCHAR 05D3
ENCODING 1491
SWIDTH 432 0
DWIDTH 15 0
BBX 13 19 3 0
BITMAP
4000
7FF8
FFF8
FFF0
3FF0
0040
0080
0180
0100
0300
0300
0200
0600
0600
0600
0600
0C00
0C00
1800
ENDCHAR
STARTCHAR 05D4
ENCODING 1492
SWIDTH 489 0
DWIDTH 17 0
BBX 17 19 0 0
BITMAP
040000
0FFF80
0FFF80
0FFF80
07FF00
000200
000200
000400
000400
000C00
180C00
300C00
300C00
700800
601800
601800
601800
C01000
803000
ENDCHAR
STARTCHAR 05D5
ENCODING 1493
SWIDTH 259 0
DWIDTH 9 0
BBX 6 19 3 0
BITMAP
40
F0
FC
FC
3C
1C
08
08
08
18
10
10
30
20
20
60
60
40
40
ENDCHAR
STARTCHAR 05D6
ENCODING 1494
SWIDTH 259 0
DWIDTH 9 0
BBX 9 19 1 0
BITMAP
1000
1C00
3F00
3F80
1F80
0400
0800
0800
1800
1000
3000
3000
3000
3000
2000
6000
6000
4000
8000
ENDCHAR
STARTCHAR 05D7
ENCODING 1495
SWIDTH 460 0
DWIDTH 16 0
BBX 17 19 0 0
BITMAP
040000
0FFF80
0FFF80
0FFF80
07FF00
020200
040400
080400
080400
180C00
180C00
100C00
300800
301800
301800
301800
601800
601000
C02000
ENDCHAR
STARTCHAR 05D8
ENCODING 1496
SWIDTH 489 0
DWIDTH 17 0
BBX 14 19 2 0
BITMAP
2000
7838
7C7C
7C7C
3CFC
110C
2104
2204
4004
400C
4008
4008
C010
C010
C020
8060
FFC0
FFC0
FF80
ENDCHAR
STARTCHAR 05D9
ENCODING 1497
SWIDTH 230 0
DWIDTH 8 0
BBX 6 10 3 8
BITMAP
40
70
F8
7C
3C
1C
08
08
10
30
ENDCHAR
STARTCHAR 05DA
ENCODING 1498
SWIDTH 432 0
DWIDTH 15 0
BBX 13 25 3 -6
BITMAP
4000
7FF8
FFF8
FFF8
3FF0
0020
0020
0040
0040
0040
00C0
0080
0080
0080
0180
0180
0100
0300
0300
0300
0200
0600
0600
0400
0800
ENDCHAR
STARTCHAR 05DB
ENCODING 1499
SWIDTH 403 0
DWIDTH 14 0
BBX 14 19 -1 0
BITMAP
0400
07F0
0FFC
0FFC
03FC
000C
0004
0004
0004
0004
0004
0008
0008
0018
0010
00F0
3FE0
7FC0
FF00
ENDCHAR
STARTCHAR 05DC
ENCODING 1500
SWIDTH 432 0
DWIDTH 15 0
BBX 12 26 3 0
BITMAP
4000
7000
7000
3000
2000
2000
4000
4000
FFE0
FFF0
7FF0
3FF0
0030
0030
0020
0020
0040
00C0
0180
0300
0600
0C00
0800
1800
1800
1000
ENDCHAR
STARTCHAR 05DD
ENCODING 1501
SWIDTH 460 0
DWIDTH 16 0
BBX 16 19 0 0
BITMAP
0C00
0FFC
1FFE
0FFF
07FF
0203
0C03
1802
1002
3002
2006
2004
6004
400C
4008
4008
FFF8
FFF0
FFF0
ENDCHAR
STARTCHAR 05DE
ENCODING 1502
SWIDTH 460 0
DWIDTH 16 0
BBX 15 19 0 0
BITMAP
0800
1E08
1F1C
1F3E
0E7E
028E
0306
0202
0402
0802
1002
3002
2004
6004
4008
4008
87F0
8FF0
9FE0
ENDCHAR
STARTCHAR 05DF
ENCODING 1503
SWIDTH 259 0
DWIDTH 9 0
BBX 8 25 1 -6
BITMAP
18
1E
3F
1F
0F
03
02
02
04
04
0C
08
08
18
18
10
10
30
30
20
20
60
60
40
80
ENDCHAR
STARTCHAR 05E0
ENCODING 1504
SWIDTH 288 0
DWIDTH 10 0
BBX 10 19 -1 0
BITMAP
0600
0780
0FC0
07C0
03C0
00C0
00C0
0080
0080
0100
0100
0100
0300
0300
0300
0300
7F00
FE00
FE00
ENDCHAR
STARTCHAR 05E1
ENCODING 1505
SWIDTH 460 0
DWIDTH 16 0
BBX 13 19 2 0
BITMAP
2000
3FE0
7FF0
7FF8
1FF8
1018
2008
4008
4008
C008
8010
8010
8010
C020
C060
E0E0
FFC0
7F80
3F00
ENDCHAR
STARTCHAR 05E2
ENCODING 1506
SWIDTH 432 0
DWIDTH 15 0
BBX 17 20 -1 -1
BITMAP
040400
0F0700
0F8F80
0FC780
07C780
020100
020100
020200
020400
030400
030800
010800
011800
011000
013000
03E000
1FE000
3FC000
7E0000
C00000
ENDCHAR
STARTCHAR 05E3
ENCODING 1507
SWIDTH 432 0
DWIDTH 15 0
BBX 13 25 1 -6
BITMAP
1800
1FF0
1FF8
1FF8
0FF8
1018
2018
2018
6010
7010
7810
F830
0020
0020
0060
0060
0040
0040
00C0
00C0
0080
0180
0180
0100
0100
ENDCHAR
STARTCHAR 05E4
ENCODING 1508
SWIDTH 432 0
DWIDTH 15 0
BBX 14 19 0 0
BITMAP
0C00
0FF0
0FF8
0FFC
0FFC
080C
1004
1004
3804
3C04
3C08
0008
0008
0010
0030
00E0
7FE0
FFC0
FF00
ENDCHAR
STARTCHAR 05E5
ENCODING 1509
SWIDTH 432 0
DWIDTH 15 0
BBX 13 25 3 -6
BITMAP
40C0
F0E0
F8F8
78F8
3878
1820
0840
0880
0900
0A00
0E00
0C00
0C00
0C00
0800
0800
1800
1800
1800
3800
3000
3000
3000
6000
4000
ENDCHAR
STARTCHAR 05E6
ENCODING 1510
SWIDTH 460 0
DWIDTH 16 0
BBX 17 19 0 0
BITMAP
080800
0E1E00
1F1F00
0F1F80
070F00
020400
020800
021000
023000
032000
03E000
01E000
00E000
007000
007000
003800
7FF000
7FF000
FFE000
ENDCHAR
STARTCHAR 05E7
ENCODING 1511
SWIDTH 432 0
DWIDTH 15 0
BBX 18 25 -2 -6
BITMAP
030000
03FF00
07FF80
07FFC0
01FFC0
000080
000080
000080
040080
040100
0C0300
080600
080C00
183000
106000
10C000
118000
318000
218000
200000
600000
400000
400000
C00000
800000
ENDCHAR
STARTCHAR 05E8
ENCODING 1512
SWIDTH 460 0
DWIDTH 16 0
BBX 12 19 3 0
BITMAP
4000
7FC0
FFE0
FFF0
3FF0
0030
0030
0030
0020
0020
0060
0040
0040
00C0
0080
0080
0080
0180
0100
ENDCHAR
STARTCHAR 05E9
ENCODING 1513
SWIDTH 633 0
DWIDTH 22 0
BBX 19 19 3 0
BITMAP
408080
F0E1C0
F9F1E0
78F9E0
78F0E0
204060
204040
408080
408100
410200
420600
420400
440800
4C1800
481800
503000
7FF000
7FF000
FFE000
ENDCHAR
STARTCHAR 05EA
ENCODING 1514
SWIDTH 460 0
DWIDTH 16 0
BBX 18 19 -2 0
BITMAP
010000
01FF00
03FFC0
03FFC0
00FFC0
00C0C0
0180C0
0100C0
020080
020080
060180
060100
040100
040300
040200
0C0200
3C0200
7C0600
F80400
ENDCHAR
STARTCHAR 05F0
ENCODING 1520
SWIDTH 518 0
DWIDTH 18 0
BBX 15 19 3 0
BITMAP
4030
F03C
FC7E
FC3E
3C1E
1C06
0806
0804
0804
180C
1008
1008
3008
2018
2010
6010
6030
4020
4020
ENDCHAR
STARTCHAR 05F1
ENCODING 1521
SWIDTH 518 0
DWIDTH 18 0
BBX 14 19 3 0
BITMAP
4060
7078
F87C
7C7C
3C3C
1C0C
080C
080C
1008
3008
0018
0010
0010
0030
0020
0020
0020
0060
0040
ENDCHAR
STARTCHAR 05F2
ENCODING 1522
SWIDTH 489 0
DWIDTH 17 0
BBX 14 11 3 8
BITMAP
4060
7070
F87C
7C7C
3C3C
1C0C
080C
0808
1008
3010
0020
ENDCHAR
STARTCHAR 05F3
ENCODING 1523
SWIDTH 201 0
DWIDTH 7 0
BBX 5 8 3 11
BITMAP
10
78
70
70
E0
C0
C0
80
ENDCHAR
STARTCHAR 05F4
ENCODING 1524
SWIDTH 374 0
DWIDTH 13 0
BBX 11 8 3 11
BITMAP
1040
78E0
71C0
71C0
E180
C380
C300
8200
ENDCHAR
STARTCHAR 1E80
ENCODING 7808
SWIDTH 835 0
DWIDTH 29 0
BBX 29 31 4 -1
BITMAP
001E0000
000E0000
00070000
00030000
00010000
00000000
00000000
FFBFE3F8
3C0781C0
1C070080
1C070180
1C0F0100
180F0200
38170600
38370400
38270800
384E1800
38CE1000
388E2000
390E6000
3B0E4000
3A0E8000
340F8000
7C0F0000
780E0000
781E0000
701C0000
601C0000
60180000
40100000
00100000
ENDCHAR
STARTCHAR 1E81
ENCODING 7809
SWIDTH 662 0
DWIDTH 23 0
BBX 22 24 1 0
BITMAP
007800
003800
001800
000C00
000C00
000400
000000
000000
000000
780C1C
F80C1C
181C0C
181C0C
182C08
1C4C08
1C4C10
1C8C20
1C8C20
0D0C40
0E0E80
0E0F00
0C0F00
0C0E00
080C00
ENDCHAR
STARTCHAR 1E82
ENCODING 7810
SWIDTH 835 0
DWIDTH 29 0
BBX 29 31 4 -1
BITMAP
0000E000
0001C000
00018000
00018000
00030000
00020000
00000000
FFBFE3F8
3C0781C0
1C070080
1C070180
1C0F0100
180F0200
38170600
38370400
38270800
384E1800
38CE1000
388E2000
390E6000
3B0E4000
3A0E8000
340F8000
7C0F0000
780E0000
781E0000
701C0000
601C0000
60180000
40100000
00100000
ENDCHAR
STARTCHAR 1E83
ENCODING 7811
SWIDTH 662 0
DWIDTH 23 0
BBX 22 24 1 0
BITMAP
000380
000380
000700
000600
000400
000800
000000
000000
000000
780C1C
F80C1C
181C0C
181C0C
182C08
1C4C08
1C4C10
1C8C20
1C8C20
0D0C40
0E0E80
0E0F00
0C0F00
0C0E00
080C00
ENDCHAR
STARTCHAR 1E84
ENCODING 7812
SWIDTH 835 0
DWIDTH 29 0
BBX 29 30 4 -1
BITMAP
001C7000
003CF000
001C7000
00000000
00000000
00000000
FFBFE3F8
3C0781C0
1C070080
1C070180
1C0F0100
180F0200
38170600
38370400
38270800
384E1800
38CE1000
388E2000
390E6000
3B0E4000
3A0E8000
340F8000
7C0F0000
780E0000
781E0000
701C0000
601C0000
60180000
40100000
00100000
ENDCHAR
STARTCHAR 1E85
ENCODING 7813
SWIDTH 662 0
DWIDTH 23 0
BBX 22 23 1 0
BITMAP
0030C0
0071C0
0071C0
0030C0
000000
000000
000000
000000
780C1C
F80C1C
181C0C
181C0C
182C08
1C4C08
1C4C10
1C8C20
1C8C20
0D0C40
0E0E80
0E0F00
0C0F00
0C0E00
080C00
ENDCHAR
STARTCHAR 1EA0
ENCODING 7840
SWIDTH 604 0
DWIDTH 21 0
BBX 21 29 -2 -5
BITMAP
000010
000010
000030
000070
0000F0
0000E0
0001E0
0003E0
0006E0
0004E0
0008E0
0018E0
0030E0
0020E0
0040E0
00FFE0
0081C0
0101C0
0201C0
0601C0
0401C0
0801C0
1C01C0
FE0FF8
000000
000000
00C000
01E000
01C000
ENDCHAR
STARTCHAR 1EA1
ENCODING 7841
SWIDTH 489 0
DWIDTH 17 0
BBX 15 20 1 -5
BITMAP
03EE
061E
0C1C
181C
381C
301C
7018
6038
E038
E070
E070
E0F2
E174
FE74
7C78
0000
0000
0C00
1E00
0E00
ENDCHAR
STARTCHAR 1EA2
ENCODING 7842
SWIDTH 604 0
DWIDTH 21 0
BBX 24 31 -2 0
BITMAP
00000E
000013
000012
000004
000008
000000
000000
000010
000010
000030
000070
0000F0
0000E0
0001E0
0003E0
0006E0
0004E0
0008E0
0018E0
0030E0
0020E0
0040E0
00FFE0
0081C0
0101C0
0201C0
0601C0
0401C0
0801C0
1C01C0
FE0FF8
ENDCHAR
STARTCHAR 1EA3
ENCODING 7843
SWIDTH 489 0
DWIDTH 17 0
BBX 15 24 1 0
BITMAP
0018
006C
004C
0018
0010
0020
0000
0000
0000
03EE
061E
0C1C
181C
381C
301C
7018
6038
E038
E070
E070
E0F2
E174
FE74
7C78
ENDCHAR
STARTCHAR 1EA4
ENCODING 7844
SWIDTH 604 0
DWIDTH 21 0
BBX 24 31 -2 0
BITMAP
000007
000006
000008
00000C
00003E
000041
000000
000010
000010
000030
000070
0000F0
0000E0
0001E0
0003E0
0006E0
0004E0
0008E0
0018E0
0030E0
0020E0
0040E0
00FFE0
0081C0
0101C0
0201C0
0601C0
0401C0
0801C0
1C01C0
FE0FF8
ENDCHAR
STARTCHAR 1EA5
ENCODING 7845
SWIDTH 489 0
DWIDTH 17 0
BBX 17 31 1 0
BITMAP
000380
000700
000600
000400
000C00
000800
000000
001C00
003C00
007C00
004600
008200
010000
000000
000000
000000
03EE00
061E00
0C1C00
181C00
381C00
301C00
701800
603800
E03800
E07000
E07000
E0F200
E17400
FE7400
7C7800
ENDCHAR
STARTCHAR 1EA6
ENCODING 7846
SWIDTH 604 0
DWIDTH 21 0
BBX 24 31 -2 0
BITMAP
00000E
000006
000001
00000C
00003E
000041
000000
000010
000010
000030
000070
0000F0
0000E0
0001E0
0003E0
0006E0
0004E0
0008E0
0018E0
0030E0
0020E0
0040E0
00FFE0
0081C0
0101C0
0201C0
0601C0
0401C0
0801C0
1C01C0
FE0FF8
ENDCHAR
STARTCHAR 1EA7
ENCODING 7847
SWIDTH 489 0
DWIDTH 17 0
BBX 16 31 1 0
BITMAP
003C
001C
000E
0006
0002
0001
0000
001C
003C
007C
0046
0082
0100
0000
0000
0000
03EE
061E
0C1C
181C
381C
301C
7018
6038
E038
E070
E070
E0F2
E174
FE74
7C78
ENDCHAR
STARTCHAR 1EA8
ENCODING 7848
SWIDTH 604 0
DWIDTH 21 0
BBX 24 31 -2 0
BITMAP
00000F
000003
000004
00000C
00003E
000041
000000
000010
000010
000030
000070
0000F0
0000E0
0001E0
0003E0
0006E0
0004E0
0008E0
0018E0
0030E0
0020E0
0040E0
00FFE0
0081C0
0101C0
0201C0
0601C0
0401C0
0801C0
1C01C0
FE0FF8
ENDCHAR
STARTCHAR 1EA9
ENCODING 7849
SWIDTH 489 0
DWIDTH 17 0
BBX 17 31 1 0
BITMAP
000780
000C80
000980
000300
000400
000400
000000
001C00
003C00
007C00
004600
008200
010000
000000
000000
000000
03EE00
061E00
0C1C00
181C00
381C00
301C00
701800
603800
E03800
E07000
E07000
E0F200
E17400
FE7400
7C7800
ENDCHAR
STARTCHAR 1EAA
ENCODING 7850
SWIDTH 604 0
DWIDTH 21 0
BBX 26 31 -2 0
BITMAP
00003800
00005FC0
00008300
00000C00
00003E00
00004100
00000000
00001000
00001000
00003000
00007000
0000F000
0000E000
0001E000
0003E000
0006E000
0004E000
0008E000
0018E000
0030E000
0020E000
0040E000
00FFE000
0081C000
0101C000
0201C000
0601C000
0401C000
0801C000
1C01C000
FE0FF800
ENDCHAR
STARTCHAR 1EAB
ENCODING 7851
SWIDTH 489 0
DWIDTH 17 0
BBX 19 31 1 0
BITMAP
001800
007E20
005F20
0087C0
008180
000000
000000
001C00
003C00
007C00
004600
008200
010000
000000
000000
000000
03EE00
061E00
0C1C00
181C00
381C00
301C00
701800
603800
E03800
E07000
E07000
E0F200
E17400
FE7400
7C7800
ENDCHAR
STARTCHAR 1EAC
ENCODING 7852
SWIDTH 604 0
DWIDTH 21 0
BBX 24 33 -2 -5
BITMAP
00000C
00003E
000041
000000
000010
000010
000030
000070
0000F0
0000E0
0001E0
0003E0
0006E0
0004E0
0008E0
0018E0
0030E0
0020E0
0040E0
00FFE0
0081C0
0101C0
0201C0
0601C0
0401C0
0801C0
1C01C0
FE0FF8
000000
000000
00C000
01E000
01C000
ENDCHAR
STARTCHAR 1EAD
ENCODING 7853
SWIDTH 489 0
DWIDTH 17 0
BBX 15 29 1 -5
BITMAP
001C
003C
007C
0046
0082
0100
0000
0000
0000
03EE
061E
0C1C
181C
381C
301C
7018
6038
E038
E070
E070
E0F2
E174
FE74
7C78
0000
0000
0C00
1E00
0E00
ENDCHAR
STARTCHAR 1EAE
ENCODING 7854
SWIDTH 604 0
DWIDTH 21 0
BBX 25 31 -2 0
BITMAP
00000700
00000600
00000800
00008080
00007F00
00003C00
00000000
00001000
00001000
00003000
00007000
0000F000
0000E000
0001E000
0003E000
0006E000
0004E000
0008E000
0018E000
0030E000
0020E000
0040E000
00FFE000
0081C000
0101C000
0201C000
0601C000
0401C000
0801C000
1C01C000
FE0FF800
ENDCHAR
STARTCHAR 1EAF
ENCODING 7855
SWIDTH 489 0
DWIDTH 17 0
BBX 17 31 1 0
BITMAP
000700
000E00
000E00
000C00
000800
001000
000000
010080
010100
01C600
00FC00
007800
000000
000000
000000
000000
03EE00
061E00
0C1C00
181C00
381C00
301C00
701800
603800
E03800
E07000
E07000
E0F200
E17400
FE7400
7C7800
ENDCHAR
STARTCHAR 1EB0
ENCODING 7856
SWIDTH 604 0
DWIDTH 21 0
BBX 25 31 -2 0
BITMAP
00003C00
00000C00
00000400
00008080
00007F00
00003C00
00000000
00001000
00001000
00003000
00007000
0000F000
0000E000
0001E000
0003E000
0006E000
0004E000
0008E000
0018E000
0030E000
0020E000
0040E000
00FFE000
0081C000
0101C000
0201C000
0601C000
0401C000
0801C000
1C01C000
FE0FF800
ENDCHAR
STARTCHAR 1EB1
ENCODING 7857
SWIDTH 489 0
DWIDTH 17 0
BBX 17 31 1 0
BITMAP
007000
003800
001800
000800
000C00
000400
000000
010080
010100
01C600
00FC00
007800
000000
000000
000000
000000
03EE00
061E00
0C1C00
181C00
381C00
301C00
701800
603800
E03800
E07000
E07000
E0F200
E17400
FE7400
7C7800
ENDCHAR
STARTCHAR 1EB2
ENCODING 7858
SWIDTH 604 0
DWIDTH 21 0
BBX 25 31 -2 0
BITMAP
00000F00
00000300
00000400
00008080
00007F00
00003C00
00000000
00001000
00001000
00003000
00007000
0000F000
0000E000
0001E000
0003E000
0006E000
0004E000
0008E000
0018E000
0030E000
0020E000
0040E000
00FFE000
0081C000
0101C000
0201C000
0601C000
0401C000
0801C000
1C01C000
FE0FF800
ENDCHAR
STARTCHAR 1EB3
ENCODING 7859
SWIDTH 489 0
DWIDTH 17 0
BBX 17 31 1 0
BITMAP
000E00
001200
001600
000400
000800
001000
000000
010080
010100
01C600
00FC00
007800
000000
000000
000000
000000
03EE00
061E00
0C1C00
181C00
381C00
301C00
701800
603800
E03800
E07000
E07000
E0F200
E17400
FE7400
7C7800
ENDCHAR
STARTCHAR 1EB4
ENCODING 7860
SWIDTH 604 0
DWIDTH 21 0
BBX 26 31 -2 0
BITMAP
00007840
0000DFC0
00008700
00008080
00007F00
00003C00
00000000
00001000
00001000
00003000
00007000
0000F000
0000E000
0001E000
0003E000
0006E000
0004E000
0008E000
0018E000
0030E000
0020E000
0040E000
00FFE000
0081C000
0101C000
0201C000
0601C000
0401C000
0801C000
1C01C000
FE0FF800
ENDCHAR
STARTCHAR 1EB5
ENCODING 7861
SWIDTH 489 0
DWIDTH 17 0
BBX 18 31 1 0
BITMAP
006040
00F840
01FE80
011F80
010700
000000
000000
010080
010100
01C600
00FC00
007800
000000
000000
000000
000000
03EE00
061E00
0C1C00
181C00
381C00
301C00
701800
603800
E03800
E07000
E07000
E0F200
E17400
FE7400
7C7800
ENDCHAR
STARTCHAR 1EB6
ENCODING 7862
SWIDTH 604 0
DWIDTH 21 0
BBX 25 33 -2 -5
BITMAP
00008080
00007F00
00003C00
00000000
00001000
00001000
00003000
00007000
0000F000
0000E000
0001E000
0003E000
0006E000
0004E000
0008E000
0018E000
0030E000
0020E000
0040E000
00FFE000
0081C000
0101C000
0201C000
0601C000
0401C000
0801C000
1C01C000
FE0FF800
00000000
00000000
00C00000
01E00000
01C00000
ENDCHAR
STARTCHAR 1EB7
ENCODING 7863
SWIDTH 489 0
DWIDTH 17 0
BBX 16 29 1 -5
BITMAP
0201
0202
038C
01F8
00F0
0000
0000
0000
0000
03EE
061E
0C1C
181C
381C
301C
7018
6038
E038
E070
E070
E0F2
E174
FE74
7C78
0000
0000
0C00
1E00
0E00
ENDCHAR
STARTCHAR 1EB8
ENCODING 7864
SWIDTH 604 0
DWIDTH 21 0
BBX 23 28 -1 -5
BITMAP
03FFFE
00703E
00700C
007004
00E004
00E004
00E000
01C000
01C080
01C180
01FF80
03FF00
038100
038100
070200
070000
070000
070010
0E0030
0E0060
0E00E0
1E03C0
FFFFC0
000000
000000
00E000
00E000
00E000
ENDCHAR
STARTCHAR 1EB9
ENCODING 7865
SWIDTH 432 0
DWIDTH 15 0
BBX 14 20 1 -5
BITMAP
01F8
061C
0C1C
181C
3818
3030
70E0
6780
F800
E000
E000
E008
7030
7CC0
3F80
0000
0000
1C00
1C00
1C00
ENDCHAR
STARTCHAR 1EBA
ENCODING 7866
SWIDTH 604 0
DWIDTH 21 0
BBX 23 31 -1 0
BITMAP
0000F0
000190
000130
000060
000080
000080
000000
000000
03FFFE
00703E
00700C
007004
00E004
00E004
00E000
01C000
01C080
01C180
01FF80
03FF00
038100
038100
070200
070000
070000
070010
0E0030
0E0060
0E00E0
1E03C0
FFFFC0
ENDCHAR
STARTCHAR 1EBB
ENCODING 7867
SWIDTH 432 0
DWIDTH 15 0
BBX 14 24 1 0
BITMAP
0030
0048
0048
0010
0020
0040
0000
0000
0000
01F8
061C
0C1C
181C
3818
3030
70E0
6780
F800
E000
E000
E008
7030
7CC0
3F80
ENDCHAR
STARTCHAR 1EBC
ENCODING 7868
SWIDTH 604 0
DWIDTH 21 0
BBX 23 29 -1 0
BITMAP
000784
000FE4
0011FC
001078
000000
000000
03FFFE
00703E
00700C
007004
00E004
00E004
00E000
01C000
01C080
01C180
01FF80
03FF00
038100
038100
070200
070000
070000
070010
0E0030
0E0060
0E00E0
1E03C0
FFFFC0
ENDCHAR
STARTCHAR 1EBD
ENCODING 7869
SWIDTH 432 0
DWIDTH 15 0
BBX 16 23 1 0
BITMAP
01E1
03F1
047F
043E
0000
0000
0000
0000
01F8
061C
0C1C
181C
3818
3030
70E0
6780
F800
E000
E000
E008
7030
7CC0
3F80
ENDCHAR
STARTCHAR 1EBE
ENCODING 7870
SWIDTH 604 0
DWIDTH 21 0
BBX 23 31 -1 0
BITMAP
000038
000060
000040
0000E0
0001F0
000618
000000
000000
03FFFE
00703E
00700C
007004
00E004
00E004
00E000
01C000
01C080
01C180
01FF80
03FF00
038100
038100
070200
070000
070000
070010
0E0030
0E0060
0E00E0
1E03C0
FFFFC0
ENDCHAR
STARTCHAR 1EBF
ENCODING 7871
SWIDTH 432 0
DWIDTH 15 0
BBX 16 31 1 0
BITMAP
0007
000E
000C
000C
0018
0010
0000
0018
0038
007C
008C
0104
0200
0000
0000
0000
01F8
061C
0C1C
181C
3818
3030
70E0
6780
F800
E000
E000
E008
7030
7CC0
3F80
ENDCHAR
STARTCHAR 1EC0
ENCODING 7872
SWIDTH 604 0
DWIDTH 21 0
BBX 23 31 -1 0
BITMAP
0000F0
000030
000010
0000E0
0001F0
000618
000000
000000
03FFFE
00703E
00700C
007004
00E004
00E004
00E000
01C000
01C080
01C180
01FF80
03FF00
038100
038100
070200
070000
070000
070010
0E0030
0E0060
0E00E0
1E03C0
FFFFC0
ENDCHAR
STARTCHAR 1EC1
ENCODING 7873
SWIDTH 432 0
DWIDTH 15 0
BBX 15 31 1 0
BITMAP
0038
0038
001C
000C
0004
0002
0000
0018
0038
007C
008C
0104
0200
0000
0000
0000
01F8
061C
0C1C
181C
3818
3030
70E0
6780
F800
E000
E000
E008
7030
7CC0
3F80
ENDCHAR
STARTCHAR 1EC2
ENCODING 7874
SWIDTH 604 0
DWIDTH 21 0
BBX 23 31 -1 0
BITMAP
0000F0
000090
000060
0000E0
0001F0
000618
000000
000000
03FFFE
00703E
00700C
007004
00E004
00E004
00E000
01C000
01C080
01C180
01FF80
03FF00
038100
038100
070200
070000
070000
070010
0E0030
0E0060
0E00E0
1E03C0
FFFFC0
ENDCHAR
STARTCHAR 1EC3
ENCODING 7875
SWIDTH 432 0
DWIDTH 15 0
BBX 16 31 1 0
BITMAP
000F
0019
0013
0002
0004
0008
0000
0018
0038
007C
008C
0104
0200
0000
0000
0000
01F8
061C
0C1C
181C
3818
3030
70E0
6780
F800
E000
E000
E008
7030
7CC0
3F80
ENDCHAR
STARTCHAR 1EC4
ENCODING 7876
SWIDTH 604 0
DWIDTH 21 0
BBX 23 31 -1 0
BITMAP
0003C2
0004FC
000038
0000E0
0001F0
000618
000000
000000
03FFFE
00703E
00700C
007004
00E004
00E004
00E000
01C000
01C080
01C180
01FF80
03FF00
038100
038100
070200
070000
070000
070010
0E0030
0E0060
0E00E0
1E03C0
FFFFC0
ENDCHAR
STARTCHAR 1EC5
ENCODING 7877
SWIDTH 432 0
DWIDTH 15 0
BBX 18 31 1 0
BITMAP
003000
00FC40
00BF40
010F80
010300
000000
000000
001800
003800
007C00
008C00
010400
020000
000000
000000
000000
01F800
061C00
0C1C00
181C00
381800
303000
70E000
678000
F80000
E00000
E00000
E00800
703000
7CC000
3F8000
ENDCHAR
STARTCHAR 1EC6
ENCODING 7878
SWIDTH 604 0
DWIDTH 21 0
BBX 23 33 -1 -5
BITMAP
0000E0
0001F0
000618
000000
000000
03FFFE
00703E
00700C
007004
00E004
00E004
00E000
01C000
01C080
01C180
01FF80
03FF00
038100
038100
070200
070000
070000
070010
0E0030
0E0060
0E00E0
1E03C0
FFFFC0
000000
000000
00E000
00E000
00E000
ENDCHAR
STARTCHAR 1EC7
ENCODING 7879
SWIDTH 432 0
DWIDTH 15 0
BBX 14 29 1 -5
BITMAP
0018
0038
007C
008C
0104
0200
0000
0000
0000
01F8
061C
0C1C
181C
3818
3030
70E0
6780
F800
E000
E000
E008
7030
7CC0
3F80
0000
0000
1C00
1C00
1C00
ENDCHAR
STARTCHAR 1EC8
ENCODING 7880
SWIDTH 345 0
DWIDTH 12 0
BBX 15 31 -1 0
BITMAP
000E
0012
0012
0004
0008
0000
0000
0000
03FE
0078
0070
0070
00E0
00E0
00E0
01C0
01C0
01C0
01C0
0380
0380
0380
0700
0700
0700
0700
0E00
0E00
0E00
1E00
FFC0
ENDCHAR
STARTCHAR 1EC9
ENCODING 7881
SWIDTH 288 0
DWIDTH 10 0
BBX 9 24 2 0
BITMAP
0300
0480
0D80
0100
0200
0400
0000
0000
0000
7C00
3800
1800
3800
3800
3000
7000
7000
6000
6000
E000
E400
C800
F000
E000
ENDCHAR
STARTCHAR 1ECA
ENCODING 7882
SWIDTH 345 0
DWIDTH 12 0
BBX 15 28 -1 -5
BITMAP
03FE
0078
0070
0070
00E0
00E0
00E0
01C0
01C0
01C0
01C0
0380
0380
0380
0700
0700
0700
0700
0E00
0E00
0E00
1E00
FFC0
0000
0000
1800
3800
3800
ENDCHAR
STARTCHAR 1ECB
ENCODING 7883
SWIDTH 288 0
DWIDTH 10 0
BBX 8 27 1 -5
BITMAP
07
07
07
00
00
00
00
3E
1C
0C
1C
1C
18
38
38
30
30
70
72
64
78
70
00
00
E0
E0
E0
ENDCHAR
STARTCHAR 1ECC
ENCODING 7884
SWIDTH 720 0
DWIDTH 25 0
BBX 23 28 2 -4
BITMAP
003FE0
00E078
01C038
03801C
07001C
0E001E
1C001E
1C001E
38001E
78001E
78001E
70001C
F0003C
F0003C
F00038
F00078
F00070
F000E0
7001E0
7003C0
380700
3C0E00
0FF800
000000
000000
030000
078000
070000
ENDCHAR
STARTCHAR 1ECD
ENCODING 7885
SWIDTH 489 0
DWIDTH 17 0
BBX 15 20 1 -5
BITMAP
01F8
060C
0C0E
180E
380E
700E
700E
E00E
E01C
E01C
E038
E038
E070
70E0
3B80
0400
0000
1800
3800
3800
ENDCHAR
STARTCHAR 1ECE
ENCODING 7886
SWIDTH 720 0
DWIDTH 25 0
BBX 23 31 2 -1
BITMAP
0000E0
000120
000120
000040
000080
000100
000000
000000
003FE0
00E078
01C038
03801C
07001C
0E001E
1C001E
1C001E
38001E
78001E
78001E
70001C
F0003C
F0003C
F00038
F00078
F00070
F000E0
7001E0
7003C0
380700
3C0E00
0FF800
ENDCHAR
STARTCHAR 1ECF
ENCODING 7887
SWIDTH 489 0
DWIDTH 17 0
BBX 15 24 1 0
BITMAP
0018
0024
0024
0008
0010
0020
0000
0000
0000
01F8
060C
0C0E
180E
380E
700E
700E
E00E
E01C
E01C
E038
E038
E070
70E0
3F80
ENDCHAR
STARTCHAR 1ED0
ENCODING 7888
SWIDTH 720 0
DWIDTH 25 0
BBX 23 31 2 -1
BITMAP
0000E0
0000C0
000000
000180
0007C0
000820
000000
000000
003FE0
00E078
01C038
03801C
07001C
0E001E
1C001E
1C001E
38001E
78001E
78001E
70001C
F0003C
F0003C
F00038
F00078
F00070
F000E0
7001E0
7003C0
380700
3C0E00
0FF800
ENDCHAR
STARTCHAR 1ED1
ENCODING 7889
SWIDTH 489 0
DWIDTH 17 0
BBX 17 31 1 0
BITMAP
000380
000700
000600
000400
000C00
000800
000000
001C00
003C00
007C00
004600
008200
010000
000000
000000
000000
01F800
060C00
0C0E00
180E00
380E00
700E00
700E00
E00E00
E01C00
E01C00
E03800
E03800
E07000
70E000
3F8000
ENDCHAR
STARTCHAR 1ED2
ENCODING 7890
SWIDTH 720 0
DWIDTH 25 0
BBX 23 31 2 -1
BITMAP
0001C0
0000C0
000020
000180
0007C0
000820
000000
000000
003FE0
00E078
01C038
03801C
07001C
0E001E
1C001E
1C001E
38001E
78001E
78001E
70001C
F0003C
F0003C
F00038
F00078
F00070
F000E0
7001E0
7003C0
380700
3C0E00
0FF800
ENDCHAR
STARTCHAR 1ED3
ENCODING 7891
SWIDTH 489 0
DWIDTH 17 0
BBX 16 31 1 0
BITMAP
003C
001C
000E
0006
0002
0001
0000
001C
003C
007C
0046
0082
0100
0000
0000
0000
01F8
060C
0C0E
180E
380E
700E
700E
E00E
E01C
E01C
E038
E038
E070
70E0
3F80
ENDCHAR
STARTCHAR 1ED4
ENCODING 7892
SWIDTH 720 0
DWIDTH 25 0
BBX 23 31 2 -1
BITMAP
0001E0
000060
000080
000180
0007C0
000820
000000
000000
003FE0
00E078
01C038
03801C
07001C
0E001E
1C001E
1C001E
38001E
78001E
78001E
70001C
F0003C
F0003C
F00038
F00078
F00070
F000E0
7001E0
7003C0
380700
3C0E00
0FF800
ENDCHAR
STARTCHAR 1ED5
ENCODING 7893
SWIDTH 489 0
DWIDTH 17 0
BBX 17 31 1 0
BITMAP
000780
000C80
000980
000300
000400
000400
000000
001C00
003C00
007C00
004600
008200
010000
000000
000000
000000
01F800
060C00
0C0E00
180E00
380E00
700E00
700E00
E00E00
E01C00
E01C00
E03800
E03800
E07000
70E000
3F8000
ENDCHAR
STARTCHAR 1ED6
ENCODING 7894
SWIDTH 720 0
DWIDTH 25 0
BBX 23 31 2 -1
BITMAP
000700
000BF8
001060
000180
0007C0
000820
000000
000000
003FE0
00E078
01C038
03801C
07001C
0E001E
1C001E
1C001E
38001E
78001E
78001E
70001C
F0003C
F0003C
F00038
F00078
F00070
F000E0
7001E0
7003C0
380700
3C0E00
0FF800
ENDCHAR
STARTCHAR 1ED7
ENCODING 7895
SWIDTH 489 0
DWIDTH 17 0
BBX 19 31 1 0
BITMAP
001800
007E20
005F20
0087C0
008180
000000
000000
001C00
003C00
007C00
004600
008200
010000
000000
000000
000000
01F800
060C00
0C0E00
180E00
380E00
700E00
700E00
E00E00
E01C00
E01C00
E03800
E03800
E07000
70E000
3F8000
ENDCHAR
STARTCHAR 1ED8
ENCODING 7896
SWIDTH 720 0
DWIDTH 25 0
BBX 23 33 2 -5
BITMAP
000180
0007C0
000820
000000
000000
003FE0
00E078
01C038
03801C
07001C
0E001E
1C001E
1C001E
38001E
78001E
78001E
70001C
F0003C
F0003C
F00038
F00078
F00070
F000E0
7001E0
7003C0
380700
3C0E00
0FF800
000000
000000
030000
078000
070000
ENDCHAR
STARTCHAR 1ED9
ENCODING 7897
SWIDTH 489 0
DWIDTH 17 0
BBX 15 29 1 -5
BITMAP
001C
003C
007C
0046
0082
0100
0000
0000
0000
01F8
060C
0C0E
180E
380E
700E
700E
E00E
E01C
E01C
E038
E038
E070
70E0
3B80
0400
0000
1800
3800
3800
ENDCHAR
STARTCHAR 1EDA
ENCODING 7898
SWIDTH 720 0
DWIDTH 25 0
BBX 26 31 2 -1
BITMAP
00007000
0000E000
0000E000
0000C000
00018000
00010000
00000000
000001C0
003FE1C0
00E071C0
01C03C80
03801F00
07001C00
0E001E00
1C001E00
1C001E00
38001E00
78001E00
78001E00
70001C00
F0003C00
F0003C00
F0003800
F0007800
F0007000
F000E000
7001E000
7003C000
38070000
3C0E0000
0FF80000
ENDCHAR
STARTCHAR 1EDB
ENCODING 7899
SWIDTH 547 0
DWIDTH 19 0
BBX 19 24 1 0
BITMAP
003C00
003800
003000
003000
006000
004000
000000
000000
0000E0
03F8E0
060CE0
0C0FC0
180E00
380E00
700E00
700E00
E00E00
E01C00
E01C00
E03800
E03800
E07000
70E000
3F8000
ENDCHAR
STARTCHAR 1EDC
ENCODING 7900
SWIDTH 720 0
DWIDTH 25 0
BBX 26 31 2 -1
BITMAP
00070000
00038000
00038000
00018000
0000C000
00004000
00000000
000001C0
003FE1C0
00E071C0
01C03C80
03801F00
07001C00
0E001E00
1C001E00
1C001E00
38001E00
78001E00
78001E00
70001C00
F0003C00
F0003C00
F0003800
F0007800
F0007000
F000E000
7001E000
7003C000
38070000
3C0E0000
0FF80000
ENDCHAR
STARTCHAR 1EDD
ENCODING 7901
SWIDTH 547 0
DWIDTH 19 0
BBX 19 24 1 0
BITMAP
007000
007800
003800
001800
000800
000400
000000
000000
0000E0
03F8E0
060CE0
0C0FC0
180E00
380E00
700E00
700E00
E00E00
E01C00
E01C00
E03800
E03800
E07000
70E000
3F8000
ENDCHAR
STARTCHAR 1EDE
ENCODING 7902
SWIDTH 720 0
DWIDTH 25 0
BBX 26 31 2 -1
BITMAP
0000E000
00012000
00012000
00004000
00008000
00010000
00000000
000001C0
003FE1C0
00E071C0
01C03C80
03801F00
07001C00
0E001E00
1C001E00
1C001E00
38001E00
78001E00
78001E00
70001C00
F0003C00
F0003C00
F0003800
F0007800
F0007000
F000E000
7001E000
7003C000
38070000
3C0E0000
0FF80000
ENDCHAR
STARTCHAR 1EDF
ENCODING 7903
SWIDTH 547 0
DWIDTH 19 0
BBX 19 24 1 0
BITMAP
001800
002400
002400
000800
001000
002000
000000
000000
0000E0
03F8E0
060CE0
0C0FC0
180E00
380E00
700E00
700E00
E00E00
E01C00
E01C00
E03800
E03800
E07000
70E000
3F8000
ENDCHAR
STARTCHAR 1EE0
ENCODING 7904
SWIDTH 720 0
DWIDTH 25 0
BBX 26 29 2 -1
BITMAP
000F0800
001FC800
0023F800
0020F000
00000000
000001C0
003FE1C0
00E071C0
01C03C80
03801F00
07001C00
0E001E00
1C001E00
1C001E00
38001E00
78001E00
78001E00
70001C00
F0003C00
F0003C00
F0003800
F0007800
F0007000
F000E000
7001E000
7003C000
38070000
3C0E0000
0FF80000
ENDCHAR
STARTCHAR 1EE1
ENCODING 7905
SWIDTH 547 0
DWIDTH 19 0
BBX 19 23 1 0
BITMAP
01E100
03F100
047F00
043E00
000000
000000
000000
0000E0
03F8E0
060CE0
0C0FC0
180E00
380E00
700E00
700E00
E00E00
E01C00
E01C00
E03800
E03800
E07000
70E000
3F8000
ENDCHAR
STARTCHAR 1EE2
ENCODING 7906
SWIDTH 720 0
DWIDTH 25 0
BBX 26 29 2 -5
BITMAP
000001C0
003FE1C0
00E071C0
01C03C80
03801F00
07001C00
0E001E00
1C001E00
1C001E00
38001E00
78001E00
78001E00
70001C00
F0003C00
F0003C00
F0003800
F0007800
F0007000
F000E000
7001E000
7003C000
38070000
3C0E0000
0FF80000
00000000
00000000
03000000
07800000
07000000
ENDCHAR
STARTCHAR 1EE3
ENCODING 7907
SWIDTH 547 0
DWIDTH 19 0
BBX 19 21 1 -5
BITMAP
0000E0
03F8E0
060CE0
0C0FC0
180E00
380E00
700E00
700E00
E00E00
E01C00
E01C00
E03800
E03800
E07000
70E000
3B8000
040000
000000
180000
380000
380000
ENDCHAR
STARTCHAR 1EE4
ENCODING 7908
SWIDTH 720 0
DWIDTH 25 0
BBX 24 28 4 -5
BITMAP
FFC07F
1E0018
1C0018
1C0018
1C0010
1C0010
380030
380020
380020
700060
700040
700040
700040
E000C0
E00080
E00080
E00180
E00100
E00300
E00200
700400
3C1800
1FF000
010000
000000
060000
0F0000
070000
ENDCHAR
STARTCHAR 1EE5
ENCODING 7909
SWIDTH 489 0
DWIDTH 17 0
BBX 15 20 1 -5
BITMAP
1C06
7C0E
9C0E
9C0C
181C
381C
3838
3838
3078
70B8
70B0
6132
6274
7C7C
7878
0000
0000
0E00
0E00
0E00
ENDCHAR
STARTCHAR 1EE6
ENCODING 7910
SWIDTH 720 0
DWIDTH 25 0
BBX 24 32 4 -1
BITMAP
000780
000C80
000980
000300
000400
000400
000000
000000
FFC07F
1E0018
1C0018
1C0018
1C0010
1C0010
380030
380020
380020
700060
700040
700040
700040
E000C0
E00080
E00080
E00180
E00100
E00300
E00200
700400
3C1800
1FF000
010000
ENDCHAR
STARTCHAR 1EE7
ENCODING 7911
SWIDTH 489 0
DWIDTH 17 0
BBX 15 24 1 0
BITMAP
0018
006C
004C
0018
0010
0020
0000
0000
0000
1C06
7C0E
9C0E
9C0C
181C
381C
3838
3838
3078
70B8
70B0
6132
6274
7C7C
7878
ENDCHAR
STARTCHAR 1EE8
ENCODING 7912
SWIDTH 748 0
DWIDTH 26 0
BBX 27 32 4 -1
BITMAP
0003C000
00038000
00070000
00060000
00040060
000800E0
000000E0
00000060
FFC07F80
1E001800
1C001800
1C001800
1C001000
1C001000
38003000
38002000
38002000
70006000
70004000
70004000
60004000
E000C000
E0008000
E0008000
E0018000
E0010000
E0030000
E0020000
70040000
3C180000
1FF00000
01000000
ENDCHAR
STARTCHAR 1EE9
ENCODING 7913
SWIDTH 547 0
DWIDTH 19 0
BBX 19 24 1 0
BITMAP
003C00
003800
003000
003000
006000
004000
000000
000000
000000
1C06E0
7C0EE0
9C0E60
9C0CC0
181F00
381C00
383800
383800
307800
70B800
70B000
613200
627400
7C7C00
787800
ENDCHAR
STARTCHAR 1EEA
ENCODING 7914
SWIDTH 748 0
DWIDTH 26 0
BBX 27 32 4 -1
BITMAP
001E0000
000E0000
00060000
00030000
00010060
000100E0
000000E0
00000060
FFC07F80
1E001800
1C001800
1C001800
1C001000
1C001000
38003000
38002000
38002000
70006000
70004000
70004000
60004000
E000C000
E0008000
E0008000
E0018000
E0010000
E0030000
E0020000
70040000
3C180000
1FF00000
01000000
ENDCHAR
STARTCHAR 1EEB
ENCODING 7915
SWIDTH 547 0
DWIDTH 19 0
BBX 19 24 1 0
BITMAP
03C000
01C000
00E000
006000
002000
001000
000000
000000
000000
1C06E0
7C0EE0
9C0E60
9C0CC0
181F00
381C00
383800
383800
307800
70B800
70B000
613200
627400
7C7C00
787800
ENDCHAR
STARTCHAR 1EEC
ENCODING 7916
SWIDTH 748 0
DWIDTH 26 0
BBX 27 32 4 -1
BITMAP
00078000
000C8000
00098000
00030000
00040060
000400E0
000000E0
00000060
FFC07F80
1E001800
1C001800
1C001800
1C001000
1C001000
38003000
38002000
38002000
70006000
70004000
70004000
60004000
E000C000
E0008000
E0008000
E0018000
E0010000
E0030000
E0020000
70040000
3C180000
1FF00000
01000000
ENDCHAR
STARTCHAR 1EED
ENCODING 7917
SWIDTH 547 0
DWIDTH 19 0
BBX 19 24 1 0
BITMAP
001800
006C00
004C00
001800
001000
002000
000000
000000
000000
1C06E0
7C0EE0
9C0E60
9C0CC0
181F00
381C00
383800
383800
307800
70B800
70B000
613200
627400
7C7C00
787800
ENDCHAR
STARTCHAR 1EEE
ENCODING 7918
SWIDTH 748 0
DWIDTH 26 0
BBX 27 30 4 -1
BITMAP
003E1000
007F2000
0047E060
0083C0E0
000000E0
00000060
FFC07F80
1E001800
1C001800
1C001800
1C001000
1C001000
38003000
38002000
38002000
70006000
70004000
70004000
60004000
E000C000
E0008000
E0008000
E0018000
E0010000
E0030000
E0020000
70040000
3C180000
1FF00000
01000000
ENDCHAR
STARTCHAR 1EEF
ENCODING 7919
SWIDTH 547 0
DWIDTH 19 0
BBX 19 23 1 0
BITMAP
01E100
03F100
047F00
043E00
000000
000000
000000
000000
1C06E0
7C0EE0
9C0E60
9C0CC0
181F00
381C00
383800
383800
307800
70B800
70B000
613200
627400
7C7C00
787800
ENDCHAR
STARTCHAR 1EF0
ENCODING 7920
SWIDTH 748 0
DWIDTH 26 0
BBX 27 32 4 -5
BITMAP
00000060
000000E0
000000E0
00000060
FFC07F80
1E001800
1C001800
1C001800
1C001000
1C001000
38003000
38002000
38002000
70006000
70004000
70004000
60004000
E000C000
E0008000
E0008000
E0018000
E0010000
E0030000
E0020000
70040000
3C180000
1FF00000
01000000
00000000
06000000
0F000000
07000000
ENDCHAR
STARTCHAR 1EF1
ENCODING 7921
SWIDTH 547 0
DWIDTH 19 0
BBX 19 20 1 -5
BITMAP
1C06E0
7C0EE0
9C0E60
9C0CC0
181F00
381C00
383800
383800
307800
70B800
70B000
613200
627400
7C7C00
787800
000000
000000
0E0000
0E0000
0E0000
ENDCHAR
STARTCHAR 1EF2
ENCODING 7922
SWIDTH 547 0
DWIDTH 19 0
BBX 20 30 3 0
BITMAP
007000
003000
003800
001800
000800
000400
000000
7F87F0
1E01C0
0E0180
0E0300
0E0200
070400
070C00
071800
031000
03A000
03E000
03C000
038000
038000
038000
070000
070000
070000
070000
0E0000
0E0000
1E0000
FFC000
ENDCHAR
STARTCHAR 1EF3
ENCODING 7923
SWIDTH 432 0
DWIDTH 15 0
BBX 18 31 -3 -7
BITMAP
003800
003C00
001C00
000C00
000400
000200
000000
000000
000000
0781C0
0B81C0
01C0C0
01C040
01C040
01C080
01C100
01C100
00C200
00C400
00C400
00C800
00D000
00E000
00E000
00C000
008000
010000
020000
040000
E80000
F00000
ENDCHAR
STARTCHAR 1EF4
ENCODING 7924
SWIDTH 547 0
DWIDTH 19 0
BBX 20 28 3 -5
BITMAP
7F87F0
1E01C0
0E0180
0E0300
0E0200
070400
070C00
071800
031000
03A000
03E000
03C000
038000
038000
038000
070000
070000
070000
070000
0E0000
0E0000
1E0000
FFC000
000000
000000
180000
3C0000
1C0000
ENDCHAR
STARTCHAR 1EF5
ENCODING 7925
SWIDTH 432 0
DWIDTH 15 0
BBX 18 22 -3 -7
BITMAP
0781C0
0B81C0
01C0C0
01C040
01C040
01C080
01C100
01C100
00C200
00C400
00C400
00C800
00D000
00E000
00E000
00C000
008000
011C00
021C00
041C00
E80000
F00000
ENDCHAR
STARTCHAR 1EF6
ENCODING 7926
SWIDTH 547 0
DWIDTH 19 0
BBX 20 31 3 0
BITMAP
000E00
001200
001200
000400
000800
001000
000000
000000
7F87F0
1E01C0
0E0180
0E0300
0E0200
070400
070C00
071800
031000
03A000
03E000
03C000
038000
038000
038000
070000
070000
070000
070000
0E0000
0E0000
1E0000
FFC000
ENDCHAR
STARTCHAR 1EF7
ENCODING 7927
SWIDTH 432 0
DWIDTH 15 0
BBX 18 31 -3 -7
BITMAP
000300
000D80
000900
000300
000400
000800
000000
000000
000000
0781C0
0B81C0
01C0C0
01C040
01C040
01C080
01C100
01C100
00C200
00C400
00C400
00C800
00D000
00E000
00E000
00C000
008000
010000
020000
040000
E80000
F00000
ENDCHAR
STARTCHAR 1EF8
ENCODING 7928
SWIDTH 547 0
DWIDTH 19 0
BBX 20 29 3 0
BITMAP
00F840
01FC80
011F80
020F00
000000
000000
7F87F0
1E01C0
0E0180
0E0300
0E0200
070400
070C00
071800
031000
03A000
03E000
03C000
038000
038000
038000
070000
070000
070000
070000
0E0000
0E0000
1E0000
FFC000
ENDCHAR
STARTCHAR 1EF9
ENCODING 7929
SWIDTH 432 0
DWIDTH 15 0
BBX 19 30 -3 -7
BITMAP
003C20
007F20
004FE0
0083C0
000000
000000
000000
000000
0781C0
0B81C0
01C0C0
01C040
01C040
01C080
01C100
01C100
00C200
00C400
00C400
00C800
00D000
00E000
00E000
00C000
008000
010000
020000
040000
E80000
F00000
ENDCHAR
STARTCHAR 200C
ENCODING 8204
SWIDTH 0 0
DWIDTH 0 0
BBX 2 27 -1 -5
BITMAP
C0
C0
C0
C0
C0
C0
C0
C0
C0
C0
C0
C0
C0
C0
C0
C0
C0
C0
C0
C0
C0
C0
C0
C0
C0
C0
C0
ENDCHAR
STARTCHAR 200D
ENCODING 8205
SWIDTH 0 0
DWIDTH 0 0
BBX 8 29 -4 -5
BITMAP
42
66
3C
18
3C
7E
DB
18
18
18
18
18
18
18
18
18
18
18
18
18
18
18
18
18
18
18
18
18
18
ENDCHAR
STARTCHAR 200E
ENCODING 8206
SWIDTH 0 0
DWIDTH 0 0
BBX 8 29 -1 -5
BITMAP
08
0C
06
FF
C2
C4
C8
C0
C0
C0
C0
C0
C0
C0
C0
C0
C0
C0
C0
C0
C0
C0
C0
C0
C0
C0
C0
C0
C0
ENDCHAR
STARTCHAR 200F
ENCODING 8207
SWIDTH 0 0
DWIDTH 0 0
BBX 8 29 -7 -5
BITMAP
10
30
60
FF
C3
63
13
03
03
03
03
03
03
03
03
03
03
03
03
03
03
03
03
03
03
03
03
03
03
ENDCHAR
STARTCHAR 2013
ENCODING 8211
SWIDTH 489 0
DWIDTH 17 0
BBX 18 1 0 8
BITMAP
FFFFC0
ENDCHAR
STARTCHAR 2014
ENCODING 8212
SWIDTH 892 0
DWIDTH 31 0
BBX 31 1 0 8
BITMAP
FFFFFFFE
ENDCHAR
STARTCHAR 2015
ENCODING 8213
SWIDTH 1008 0
DWIDTH 35 0
BBX 33 2 1 8
BITMAP
FFFFFFFF80
FFFFFFFF80
ENDCHAR
STARTCHAR 2017
ENCODING 8215
SWIDTH 489 0
DWIDTH 17 0
BBX 18 4 0 -7
BITMAP
FFFFC0
FFFFC0
000000
FFFFC0
ENDCHAR
STARTCHAR 2018
ENCODING 8216
SWIDTH 345 0
DWIDTH 12 0
BBX 5 7 7 17
BITMAP
18
20
60
60
F0
F0
60
ENDCHAR
STARTCHAR 2019
ENCODING 8217
SWIDTH 345 0
DWIDTH 12 0
BBX 5 7 7 17
BITMAP
38
78
38
30
30
60
80
ENDCHAR
STARTCHAR 201A
ENCODING 8218
SWIDTH 345 0
DWIDTH 12 0
BBX 4 7 2 -4
BITMAP
70
70
70
30
20
40
80
ENDCHAR
STARTCHAR 201B
ENCODING 8219
SWIDTH 345 0
DWIDTH 12 0
BBX 3 7 8 17
BITMAP
E0
E0
E0
80
80
80
40
ENDCHAR
STARTCHAR 201C
ENCODING 8220
SWIDTH 547 0
DWIDTH 19 0
BBX 12 7 7 17
BITMAP
1030
6040
C0C0
C0C0
E1E0
E1E0
E0C0
ENDCHAR
STARTCHAR 201D
ENCODING 8221
SWIDTH 547 0
DWIDTH 19 0
BBX 13 7 6 17
BITMAP
3838
3838
3838
1818
1010
2060
C080
ENDCHAR
STARTCHAR 201E
ENCODING 8222
SWIDTH 547 0
DWIDTH 19 0
BBX 12 7 1 -4
BITMAP
3070
7070
7070
3030
3020
6060
C080
ENDCHAR
STARTCHAR 2020
ENCODING 8224
SWIDTH 489 0
DWIDTH 17 0
BBX 14 30 4 -6
BITMAP
01C0
01E0
01C0
01C0
0180
0100
6118
FFFC
F23C
0200
0600
0F00
0E00
0E00
0C00
0C00
0800
1800
1000
1000
1000
2000
2000
2000
4000
4000
4000
8000
8000
8000
ENDCHAR
STARTCHAR 2021
ENCODING 8225
SWIDTH 489 0
DWIDTH 17 0
BBX 17 31 0 -7
BITMAP
000C00
000C00
001C00
001800
001800
001000
079780
07EF80
002000
002000
006000
00E000
004000
004000
008000
008000
008000
010000
010000
038000
070000
030000
020000
E47000
FFF000
042000
0C0000
0C0000
1C0000
180000
180000
ENDCHAR
STARTCHAR 2022
ENCODING 8226
SWIDTH 345 0
DWIDTH 12 0
BBX 8 9 3 7
BITMAP
18
7E
FF
FF
FF
FF
FF
7E
1C
ENDCHAR
STARTCHAR 2026
ENCODING 8230
SWIDTH 892 0
DWIDTH 31 0
BBX 21 3 5 0
BITMAP
E07038
E0F078
E07038
ENDCHAR
STARTCHAR 2030
ENCODING 8240
SWIDTH 1008 0
DWIDTH 35 0
BBX 32 25 2 -1
BITMAP
02001000
0D803000
18C06000
30604000
70608000
60E18000
E0E30000
E0C20000
E1C40000
C1CC0000
43980000
63100000
1C200000
0043E03E
00CE30C3
018C31C3
01183183
02383383
06383383
0C303307
08307307
1030630E
2030C30C
60118118
C00F00F0
ENDCHAR
STARTCHAR 2032
ENCODING 8242
SWIDTH 230 0
DWIDTH 8 0
BBX 4 9 5 15
BITMAP
70
70
F0
E0
E0
C0
C0
80
80
ENDCHAR
STARTCHAR 2033
ENCODING 8243
SWIDTH 403 0
DWIDTH 14 0
BBX 11 9 5 15
BITMAP
70E0
71E0
71C0
61C0
E180
E180
C300
C300
8200
ENDCHAR
STARTCHAR 2039
ENCODING 8249
SWIDTH 345 0
DWIDTH 12 0
BBX 9 17 2 -1
BITMAP
0080
0100
0200
0600
0C00
1800
3000
7000
E000
E000
7000
3000
3000
1000
1000
0800
0800
ENDCHAR
STARTCHAR 203A
ENCODING 8250
SWIDTH 345 0
DWIDTH 12 0
BBX 9 16 1 0
BITMAP
0800
0C00
0C00
0600
0600
0700
0700
0780
0700
0E00
1C00
1800
3000
6000
C000
8000
ENDCHAR
STARTCHAR 203C
ENCODING 8252
SWIDTH 576 0
DWIDTH 20 0
BBX 16 24 3 0
BITMAP
0703
0707
0707
0607
0E06
0E06
0C0E
0C0C
0C0C
080C
1808
1008
1010
1010
2010
2020
2020
0000
0000
0000
C060
E0E0
E0E0
4040
ENDCHAR
STARTCHAR 203E
ENCODING 8254
SWIDTH 345 0
DWIDTH 12 0
BBX 13 2 3 20
BITMAP
7FF8
FFF8
ENDCHAR
STARTCHAR 2044
ENCODING 8260
SWIDTH 172 0
DWIDTH 6 0
BBX 17 24 -6 -1
BITMAP
000180
000100
000300
000600
000400
000C00
000800
001000
003000
002000
004000
00C000
008000
018000
030000
020000
060000
0C0000
080000
180000
300000
200000
600000
C00000
ENDCHAR
STARTCHAR 207F
ENCODING 8319
SWIDTH 316 0
DWIDTH 11 0
BBX 9 9 1 9
BITMAP
7300
2580
6980
7100
6300
6300
C200
C680
8700
ENDCHAR
STARTCHAR 20A3
ENCODING 8355
SWIDTH 489 0
DWIDTH 17 0
BBX 20 23 -1 0
BITMAP
03FFF0
0070F0
007020
007020
00E020
00E020
00E000
01C100
01C100
01C300
01FE00
03FE00
038600
038400
070400
070000
070000
3FF000
0E0000
0E0000
0E0000
1E0000
FF8000
ENDCHAR
STARTCHAR 20A4
ENCODING 8356
SWIDTH 489 0
DWIDTH 17 0
BBX 17 24 1 -1
BITMAP
001F00
006380
006380
00C100
01C000
01C000
01C000
038000
038000
3FFC00
038000
078000
7FF800
070000
070000
060000
060000
060000
040000
7E0000
8F8600
8FFC00
91F800
604000
ENDCHAR
STARTCHAR 20A7
ENCODING 8359
SWIDTH 979 0
DWIDTH 34 0
BBX 33 23 1 0
BITMAP
03FF000000
00F1C00000
00F0E00000
00E0F00000
00E0720000
01E0760000
01C07E0000
01C0FC0880
03C0FF3780
0381DC6180
0387986100
03FE186100
0780387100
0700387000
0700303800
0F00703C00
0E00701C00
0E00600E00
0E00640E00
1E00E60E00
1E00EE0C00
3E00D60C00
FF80E7F800
ENDCHAR
STARTCHAR 20AA
ENCODING 8362
SWIDTH 777 0
DWIDTH 27 0
BBX 27 18 0 0
BITMAP
07FF8060
07FFE0E0
0600E0E0
060070C0
0E0070C0
0E0061C0
0C0061C0
1C30E180
1C70E380
1870C380
3861C300
38600300
30E00700
30C00600
70C00E00
71C00E00
61FFFC00
E1FFF000
ENDCHAR
STARTCHAR 20AB
ENCODING 8363
SWIDTH 518 0
DWIDTH 18 0
BBX 16 19 2 5
BITMAP
0006
001E
0006
007F
000C
000C
01FC
0618
0C18
0C18
1818
1830
3830
3830
3860
1CF8
0F60
0000
FFF0
ENDCHAR
STARTCHAR 20AC
ENCODING 8364
SWIDTH 489 0
DWIDTH 17 0
BBX 20 23 0 0
BITMAP
001FE0
007070
00E030
01C030
038020
070020
070000
0E0000
1E0000
7FFE00
7FFE00
3C0000
FFFE00
380000
380000
380000
780000
780000
380100
380200
380400
1C1800
0FE000
ENDCHAR
STARTCHAR 2105
ENCODING 8453
SWIDTH 835 0
DWIDTH 29 0
BBX 26 25 2 -1
BITMAP
008000C0
07600180
08200300
18600600
30000C00
70001800
60003000
60006000
6000C000
60018000
60C30000
7B060000
1C0C0F00
00183180
003060C0
0060C0C0
00C180C0
018181C0
030381C0
06038180
0C030380
18030300
30018600
6000D800
C0002000
ENDCHAR
STARTCHAR 2113
ENCODING 8467
SWIDTH 403 0
DWIDTH 14 0
BBX 14 23 1 1
BITMAP
00F8
01C4
0184
0384
0308
0708
0710
0620
0EC0
0F00
0E00
0C00
1C00
3800
D800
3800
3800
3000
3020
7040
3040
3080
1F00
ENDCHAR
STARTCHAR 2116
ENCODING 8470
SWIDTH 950 0
DWIDTH 33 0
BBX 33 23 -1 -1
BITMAP
01F803E000
007803E000
003804E000
0078044000
005C040000
005C0C0000
005C080E00
00CE083100
008E186180
008E10C180
018E11C180
0107118180
0107318380
0107238300
0307238700
0203E18600
0203C18C00
0203C07000
0403C00000
C401C00000
EC01800000
F80187FC00
F0018FFC00
ENDCHAR
STARTCHAR 2122
ENCODING 8482
SWIDTH 979 0
DWIDTH 34 0
BBX 33 14 3 9
BITMAP
7FFBF00F80
C708F00E00
8708F01E00
0700B81E00
0700B83E00
07009C2E00
07009C6E00
07008E4E00
07008E4E00
0700878E00
0700878E00
0700C30E00
0700C30F00
0FC3F03F80
ENDCHAR
STARTCHAR 2126
ENCODING 8486
SWIDTH 777 0
DWIDTH 27 0
BBX 24 23 2 0
BITMAP
01FF80
0701E0
1E0070
3C0078
38003C
78003C
78001E
F0001E
F0001E
F0001E
F0001E
F8001E
78001E
78003C
78003C
3C0038
1E0070
0F01E1
838381
FF83FF
FFC3FF
FFC3FF
FFC3FF
ENDCHAR
STARTCHAR 212E
ENCODING 8494
SWIDTH 604 0
DWIDTH 21 0
BBX 17 20 2 -1
BITMAP
008000
0FF800
180C00
300600
600300
E00380
E00380
E00380
E00380
FFFF80
E00000
E00000
E00000
E00000
E00100
600300
300600
180C00
0FF800
008000
ENDCHAR
STARTCHAR 2153
ENCODING 8531
SWIDTH 748 0
DWIDTH 26 0
BBX 20 24 3 -1
BITMAP
1E0040
060080
060180
0C0100
0C0200
0C0600
180400
180C00
181800
301000
303000
F86000
0041F0
00C230
018030
010030
0300C0
0203E0
040060
0C0070
080060
100060
300CC0
200F00
ENDCHAR
STARTCHAR 2154
ENCODING 8532
SWIDTH 748 0
DWIDTH 26 0
BBX 21 24 2 -1
BITMAP
0F8020
118040
01C0C0
018080
018100
030300
020200
040600
180C00
210800
7F1800
FE3000
0020F8
006118
00C018
008018
018060
0101F0
020030
060038
040030
080030
180660
100780
ENDCHAR
STARTCHAR 215B
ENCODING 8539
SWIDTH 748 0
DWIDTH 26 0
BBX 21 24 3 -1
BITMAP
1E0040
060080
060180
0C0100
0C0200
0C0600
180400
180C00
181800
301000
303000
F86040
0041B8
00C308
018308
010398
0301F0
0201E0
040670
0C0C30
080830
100830
300C20
2007C0
ENDCHAR
STARTCHAR 215C
ENCODING 8540
SWIDTH 748 0
DWIDTH 26 0
BBX 22 24 2 -1
BITMAP
0F8020
118040
0180C0
010080
060100
1F0300
030200
030600
030C00
030800
E61800
783020
0020DC
006184
00C184
0081CC
0180F8
0100F0
020338
060618
040618
080418
180610
1003E0
ENDCHAR
STARTCHAR 215D
ENCODING 8541
SWIDTH 748 0
DWIDTH 26 0
BBX 22 24 2 -1
BITMAP
0FC020
080040
1800C0
1E0080
0F0100
030300
030200
030600
030C00
020800
E41800
783020
0020DC
006184
00C184
0081CC
0180F0
0100F0
020338
060618
040418
080418
180610
1003E0
ENDCHAR
STARTCHAR 215E
ENCODING 8542
SWIDTH 748 0
DWIDTH 26 0
BBX 20 24 4 -1
BITMAP
3F8180
610100
830200
060600
040400
0C0800
081800
101000
302000
206000
404000
C0C080
018370
010610
030610
060730
0403E0
0C03C0
180CE0
101860
301860
201060
401840
C00F80
ENDCHAR
STARTCHAR 2190
ENCODING 8592
SWIDTH 1008 0
DWIDTH 35 0
BBX 32 12 1 3
BITMAP
01000000
03000000
06000000
0E000000
1C000000
7FFFFFFF
FFFFFFFF
3C000000
1E000000
06000000
03000000
01000000
ENDCHAR
STARTCHAR 2191
ENCODING 8593
SWIDTH 489 0
DWIDTH 17 0
BBX 12 30 3 -7
BITMAP
0400
0600
0E00
1F00
3F80
3FC0
E6E0
C630
0610
0600
0600
0600
0600
0600
0600
0600
0600
0600
0600
0600
0600
0600
0600
0600
0600
0600
0600
0600
0600
0600
ENDCHAR
STARTCHAR 2192
ENCODING 8594
SWIDTH 1008 0
DWIDTH 35 0
BBX 32 12 1 3
BITMAP
000000C0
00000060
00000070
00000038
0000001C
FFFFFFFF
FFFFFFFF
0000001E
00000038
00000030
00000060
000000C0
ENDCHAR
STARTCHAR 2193
ENCODING 8595
SWIDTH 489 0
DWIDTH 17 0
BBX 12 30 3 -7
BITMAP
0600
0600
0600
0600
0600
0600
0600
0600
0600
0600
0600
0600
0600
0600
0600
0600
0600
0600
0600
0600
0600
0600
8610
C670
76C0
3F80
1F80
0F00
0E00
0400
ENDCHAR
STARTCHAR 2194
ENCODING 8596
SWIDTH 1008 0
DWIDTH 35 0
BBX 32 12 1 3
BITMAP
010000C0
03000060
06000070
0E000038
1C00001C
7FFFFFFF
FFFFFFFF
3C00001E
1C000038
06000030
03000060
030000C0
ENDCHAR
STARTCHAR 2195
ENCODING 8597
SWIDTH 489 0
DWIDTH 17 0
BBX 12 32 3 -7
BITMAP
0400
0600
0E00
1F00
3F80
75C0
E4E0
C430
0400
0400
0400
0400
0400
0400
0400
0400
0400
0400
0400
0400
0400
0400
0400
0400
8410
E470
74C0
3F80
1F80
0F00
0E00
0400
ENDCHAR
STARTCHAR 21A8
ENCODING 8616
SWIDTH 489 0
DWIDTH 17 0
BBX 12 36 3 -11
BITMAP
0400
0600
0E00
1F00
3F80
75C0
E4E0
C430
0400
0400
0400
0400
0400
0400
0400
0400
0400
0400
0400
0400
0400
0400
0400
0400
8410
E470
74C0
3F80
1F80
0F00
0E00
0400
0000
0000
FFF0
FFF0
ENDCHAR
STARTCHAR 2202
ENCODING 8706
SWIDTH 489 0
DWIDTH 17 0
BBX 16 25 1 -1
BITMAP
01F0
03FC
063C
0806
1002
0003
0001
0001
0001
03F9
0E0D
1C07
3803
3002
7002
7002
E004
E004
E004
E008
E010
6030
7060
3D80
0200
ENDCHAR
STARTCHAR 2206
ENCODING 8710
SWIDTH 604 0
DWIDTH 21 0
BBX 20 23 -1 1
BITMAP
002000
002000
007000
007000
00F800
00B800
01BC00
01BC00
011C00
031E00
020E00
060F00
040700
0C0700
080780
180380
1003C0
3001C0
3001C0
2001E0
6000E0
4000F0
FFFFF0
ENDCHAR
STARTCHAR 220F
ENCODING 8719
SWIDTH 835 0
DWIDTH 29 0
BBX 27 31 2 -7
BITMAP
FFFFFFE0
1E000780
0E000700
0E000700
0E000700
0E000700
0E000700
0E000700
0E000700
0E000700
0E000700
0E000700
0E000700
0E000700
0E000700
0E000700
0E000700
0E000700
0E000700
0E000700
0E000700
0E000700
0E000700
0E000700
0E000700
0E000700
0E000700
0E000700
0E000700
0E000700
1F000F80
ENDCHAR
STARTCHAR 2211
ENCODING 8721
SWIDTH 720 0
DWIDTH 25 0
BBX 23 31 1 -7
BITMAP
FFFFF8
F8003C
78000C
3C0004
1E0004
1F0004
0F0000
078000
03C000
03E000
01E000
00F000
007800
007800
003C00
001800
003000
002000
006000
00C000
018000
010000
030000
060000
0C0002
080002
180002
300006
60007C
7FFFFC
FFFFFC
ENDCHAR
STARTCHAR 2212
ENCODING 8722
SWIDTH 662 0
DWIDTH 23 0
BBX 18 1 3 11
BITMAP
FFFFC0
ENDCHAR
STARTCHAR 2215
ENCODING 8725
SWIDTH 172 0
DWIDTH 6 0
BBX 17 24 -6 -1
BITMAP
000180
000100
000300
000600
000400
000C00
000800
001000
003000
002000
004000
00C000
008000
018000
030000
020000
060000
0C0000
080000
180000
300000
200000
600000
C00000
ENDCHAR
STARTCHAR 2219
ENCODING 8729
SWIDTH 259 0
DWIDTH 9 0
BBX 4 3 2 10
BITMAP
70
F0
70
ENDCHAR
STARTCHAR 221A
ENCODING 8730
SWIDTH 547 0
DWIDTH 19 0
BBX 18 33 1 -1
BITMAP
000040
000040
0000C0
0000C0
000080
000080
000080
000080
000180
000180
000100
000100
000100
000100
0C0100
3C0300
E60200
060200
030200
030200
018200
018600
01C400
00C400
00E400
006400
007400
003C00
003C00
001800
001800
000800
000800
ENDCHAR
STARTCHAR 221E
ENCODING 8734
SWIDTH 720 0
DWIDTH 25 0
BBX 23 14 1 2
BITMAP
0003E0
1F0F38
739C08
409C04
807804
807802
807002
807002
807002
80F004
40E804
23C40C
1F8778
0001E0
ENDCHAR
STARTCHAR 221F
ENCODING 8735
SWIDTH 979 0
DWIDTH 34 0
BBX 22 22 6 0
BITMAP
C00000
C00000
C00000
C00000
C00000
C00000
C00000
C00000
C00000
C00000
C00000
C00000
C00000
C00000
C00000
C00000
C00000
C00000
C00000
C00000
FFFFFC
FFFFFC
ENDCHAR
STARTCHAR 2229
ENCODING 8745
SWIDTH 720 0
DWIDTH 25 0
BBX 19 23 3 0
BITMAP
07FC00
0F9E00
180700
300180
6000C0
6000C0
6000C0
C00060
C00060
C00060
C00060
C00060
C00060
C00060
C00060
C00060
C00060
C00060
C00060
C00060
C00060
C00060
C00060
ENDCHAR
STARTCHAR 222B
ENCODING 8747
SWIDTH 288 0
DWIDTH 10 0
BBX 9 36 0 -4
BITMAP
0100
0780
0780
0980
0800
0800
0800
0C00
0C00
0C00
0C00
0C00
0C00
1C00
1C00
1C00
1C00
1C00
1C00
1C00
1C00
1C00
0C00
0C00
0C00
0C00
0C00
0C00
0C00
0C00
0C00
0800
E800
F800
F000
6000
ENDCHAR
STARTCHAR 2248
ENCODING 8776
SWIDTH 547 0
DWIDTH 19 0
BBX 18 13 1 5
BITMAP
100040
7F0080
C3C080
80FB80
801E00
000000
000000
000000
000000
7E0040
C78080
80F180
803F00
ENDCHAR
STARTCHAR 2260
ENCODING 8800
SWIDTH 547 0
DWIDTH 19 0
BBX 19 28 0 -5
BITMAP
000200
000200
000600
000400
000C00
000800
000800
001800
001000
FFFFE0
FFFFE0
002000
006000
004000
004000
00C000
008000
FFFFE0
FFFFE0
010000
030000
020000
060000
040000
040000
0C0000
080000
180000
ENDCHAR
STARTCHAR 2261
ENCODING 8801
SWIDTH 662 0
DWIDTH 23 0
BBX 19 13 3 5
BITMAP
FFFFE0
FFFFE0
000000
000000
000000
000000
FFFFE0
000000
000000
000000
000000
FFFFE0
FFFFE0
ENDCHAR
STARTCHAR 2264
ENCODING 8804
SWIDTH 547 0
DWIDTH 19 0
BBX 18 24 2 -3
BITMAP
000040
0003C0
000F00
003C00
01E000
078000
3C0000
F00000
C00000
700000
1E0000
078000
00F000
003C00
000F00
0001C0
000040
000000
000000
000000
000000
000000
FFFFC0
FFFFC0
ENDCHAR
STARTCHAR 2265
ENCODING 8805
SWIDTH 547 0
DWIDTH 19 0
BBX 18 24 2 -3
BITMAP
800000
E00000
780000
0F0000
03C000
007000
001E00
000780
0000C0
000780
001E00
00F000
03C000
1E0000
780000
E00000
000000
000000
000000
000000
000000
000000
FFFFC0
FFFFC0
ENDCHAR
STARTCHAR 2302
ENCODING 8962
SWIDTH 604 0
DWIDTH 21 0
BBX 15 19 3 1
BITMAP
0300
0380
06C0
0C60
1830
3018
600C
C006
8002
8002
8002
8002
8002
8002
8002
8002
8002
8002
FFFE
ENDCHAR
STARTCHAR 2310
ENCODING 8976
SWIDTH 662 0
DWIDTH 23 0
BBX 18 7 3 8
BITMAP
FFFFC0
FFFFC0
800000
800000
800000
800000
800000
ENDCHAR
STARTCHAR 2320
ENCODING 8992
SWIDTH 604 0
DWIDTH 21 0
BBX 8 38 9 -9
BITMAP
1E
2F
66
60
E0
E0
E0
E0
E0
E0
E0
E0
E0
E0
E0
E0
E0
E0
E0
E0
E0
E0
E0
E0
E0
E0
E0
E0
E0
E0
E0
E0
E0
E0
E0
E0
E0
E0
ENDCHAR
STARTCHAR 2321
ENCODING 8993
SWIDTH 604 0
DWIDTH 21 0
BBX 8 38 4 -9
BITMAP
07
07
07
07
07
07
07
07
07
07
07
07
07
07
07
07
07
07
07
07
07
07
07
07
07
07
07
07
07
07
07
07
07
06
46
F4
7C
30
ENDCHAR
STARTCHAR 2500
ENCODING 9472
SWIDTH 720 0
DWIDTH 25 0
BBX 25 3 0 9
BITMAP
FFFFFF80
FFFFFF80
FFFFFF80
ENDCHAR
STARTCHAR 2502
ENCODING 9474
SWIDTH 604 0
DWIDTH 21 0
BBX 3 43 8 -11
BITMAP
E0
E0
E0
E0
E0
E0
E0
E0
E0
E0
E0
E0
E0
E0
E0
E0
E0
E0
E0
E0
E0
E0
E0
E0
E0
E0
E0
E0
E0
E0
E0
E0
E0
E0
E0
E0
E0
E0
E0
E0
E0
E0
E0
ENDCHAR
STARTCHAR 250C
ENCODING 9484
SWIDTH 720 0
DWIDTH 25 0
BBX 14 23 11 -11
BITMAP
FFFC
FFFC
FFFC
E000
E000
E000
E000
E000
E000
E000
E000
E000
E000
E000
E000
E000
E000
E000
E000
E000
E000
E000
E000
ENDCHAR
STARTCHAR 2510
ENCODING 9488
SWIDTH 720 0
DWIDTH 25 0
BBX 14 23 0 -11
BITMAP
FFFC
FFFC
FFFC
001C
001C
001C
001C
001C
001C
001C
001C
001C
001C
001C
001C
001C
001C
001C
001C
001C
001C
001C
001C
ENDCHAR
STARTCHAR 2514
ENCODING 9492
SWIDTH 720 0
DWIDTH 25 0
BBX 14 23 11 9
BITMAP
E000
E000
E000
E000
E000
E000
E000
E000
E000
E000
E000
E000
E000
E000
E000
E000
E000
E000
E000
E000
FFFC
FFFC
FFFC
ENDCHAR
STARTCHAR 2518
ENCODING 9496
SWIDTH 720 0
DWIDTH 25 0
BBX 14 23 0 9
BITMAP
001C
001C
001C
001C
001C
001C
001C
001C
001C
001C
001C
001C
001C
001C
001C
001C
001C
001C
001C
001C
FFFC
FFFC
FFFC
ENDCHAR
STARTCHAR 251C
ENCODING 9500
SWIDTH 720 0
DWIDTH 25 0
BBX 14 43 11 -11
BITMAP
E000
E000
E000
E000
E000
E000
E000
E000
E000
E000
E000
E000
E000
E000
E000
E000
E000
E000
E000
E000
FFFC
FFFC
FFFC
E000
E000
E000
E000
E000
E000
E000
E000
E000
E000
E000
E000
E000
E000
E000
E000
E000
E000
E000
E000
ENDCHAR
STARTCHAR 2524
ENCODING 9508
SWIDTH 720 0
DWIDTH 25 0
BBX 14 43 0 -11
BITMAP
001C
001C
001C
001C
001C
001C
001C
001C
001C
001C
001C
001C
001C
001C
001C
001C
001C
001C
001C
001C
FFFC
FFFC
FFFC
001C
001C
001C
001C
001C
001C
001C
001C
001C
001C
001C
001C
001C
001C
001C
001C
001C
001C
001C
001C
ENDCHAR
STARTCHAR 252C
ENCODING 9516
SWIDTH 720 0
DWIDTH 25 0
BBX 25 23 0 -11
BITMAP
FFFFFF80
FFFFFF80
FFFFFF80
001C0000
001C0000
001C0000
001C0000
001C0000
001C0000
001C0000
001C0000
001C0000
001C0000
001C0000
001C0000
001C0000
001C0000
001C0000
001C0000
001C0000
001C0000
001C0000
001C0000
ENDCHAR
STARTCHAR 2534
ENCODING 9524
SWIDTH 720 0
DWIDTH 25 0
BBX 25 23 0 9
BITMAP
001C0000
001C0000
001C0000
001C0000
001C0000
001C0000
001C0000
001C0000
001C0000
001C0000
001C0000
001C0000
001C0000
001C0000
001C0000
001C0000
001C0000
001C0000
001C0000
001C0000
FFFFFF80
FFFFFF80
FFFFFF80
ENDCHAR
STARTCHAR 253C
ENCODING 9532
SWIDTH 720 0
DWIDTH 25 0
BBX 25 43 0 -11
BITMAP
001C0000
001C0000
001C0000
001C0000
001C0000
001C0000
001C0000
001C0000
001C0000
001C0000
001C0000
001C0000
001C0000
001C0000
001C0000
001C0000
001C0000
001C0000
001C0000
001C0000
FFFFFF80
FFFFFF80
FFFFFF80
001C0000
001C0000
001C0000
001C0000
001C0000
001C0000
001C0000
001C0000
001C0000
001C0000
001C0000
001C0000
001C0000
001C0000
001C0000
001C0000
001C0000
001C0000
001C0000
001C0000
ENDCHAR
STARTCHAR 2550
ENCODING 9552
SWIDTH 720 0
DWIDTH 25 0
BBX 25 9 0 6
BITMAP
FFFFFF80
FFFFFF80
FFFFFF80
00000000
00000000
00000000
FFFFFF80
FFFFFF80
FFFFFF80
ENDCHAR
STARTCHAR 2551
ENCODING 9553
SWIDTH 720 0
DWIDTH 25 0
BBX 9 43 8 -11
BITMAP
E380
E380
E380
E380
E380
E380
E380
E380
E380
E380
E380
E380
E380
E380
E380
E380
E380
E380
E380
E380
E380
E380
E380
E380
E380
E380
E380
E380
E380
E380
E380
E380
E380
E380
E380
E380
E380
E380
E380
E380
E380
E380
E380
ENDCHAR
STARTCHAR 2552
ENCODING 9554
SWIDTH 720 0
DWIDTH 25 0
BBX 14 26 11 -11
BITMAP
FFFC
FFFC
FFFC
E000
E000
E000
FFFC
FFFC
FFFC
E000
E000
E000
E000
E000
E000
E000
E000
E000
E000
E000
E000
E000
E000
E000
E000
E000
ENDCHAR
STARTCHAR 2553
ENCODING 9555
SWIDTH 720 0
DWIDTH 25 0
BBX 17 23 8 -11
BITMAP
FFFF80
FFFF80
FFFF80
E38000
E38000
E38000
E38000
E38000
E38000
E38000
E38000
E38000
E38000
E38000
E38000
E38000
E38000
E38000
E38000
E38000
E38000
E38000
E38000
ENDCHAR
STARTCHAR 2554
ENCODING 9556
SWIDTH 720 0
DWIDTH 25 0
BBX 17 26 8 -11
BITMAP
FFFF80
FFFF80
FFFF80
E00000
E00000
E00000
E3FF80
E3FF80
E3FF80
E38000
E38000
E38000
E38000
E38000
E38000
E38000
E38000
E38000
E38000
E38000
E38000
E38000
E38000
E38000
E38000
E38000
ENDCHAR
STARTCHAR 2555
ENCODING 9557
SWIDTH 720 0
DWIDTH 25 0
BBX 14 26 0 -11
BITMAP
FFFC
FFFC
FFFC
001C
001C
001C
FFFC
FFFC
FFFC
001C
001C
001C
001C
001C
001C
001C
001C
001C
001C
001C
001C
001C
001C
001C
001C
001C
ENDCHAR
STARTCHAR 2556
ENCODING 9558
SWIDTH 720 0
DWIDTH 25 0
BBX 17 23 0 -11
BITMAP
FFFF80
FFFF80
FFFF80
00E380
00E380
00E380
00E380
00E380
00E380
00E380
00E380
00E380
00E380
00E380
00E380
00E380
00E380
00E380
00E380
00E380
00E380
00E380
00E380
ENDCHAR
STARTCHAR 2557
ENCODING 9559
SWIDTH 720 0
DWIDTH 25 0
BBX 17 26 0 -11
BITMAP
FFFF80
FFFF80
FFFF80
000380
000380
000380
FFE380
FFE380
FFE380
00E380
00E380
00E380
00E380
00E380
00E380
00E380
00E380
00E380
00E380
00E380
00E380
00E380
00E380
00E380
00E380
00E380
ENDCHAR
STARTCHAR 2558
ENCODING 9560
SWIDTH 720 0
DWIDTH 25 0
BBX 14 26 11 6
BITMAP
E000
E000
E000
E000
E000
E000
E000
E000
E000
E000
E000
E000
E000
E000
E000
E000
E000
FFFC
FFFC
FFFC
E000
E000
E000
FFFC
FFFC
FFFC
ENDCHAR
STARTCHAR 2559
ENCODING 9561
SWIDTH 720 0
DWIDTH 25 0
BBX 17 23 8 9
BITMAP
E38000
E38000
E38000
E38000
E38000
E38000
E38000
E38000
E38000
E38000
E38000
E38000
E38000
E38000
E38000
E38000
E38000
E38000
E38000
E38000
FFFF80
FFFF80
FFFF80
ENDCHAR
STARTCHAR 255A
ENCODING 9562
SWIDTH 720 0
DWIDTH 25 0
BBX 17 26 8 6
BITMAP
E38000
E38000
E38000
E38000
E38000
E38000
E38000
E38000
E38000
E38000
E38000
E38000
E38000
E38000
E38000
E38000
E38000
E3FF80
E3FF80
E3FF80
E00000
E00000
E00000
FFFF80
FFFF80
FFFF80
ENDCHAR
STARTCHAR 255B
ENCODING 9563
SWIDTH 720 0
DWIDTH 25 0
BBX 14 26 0 6
BITMAP
001C
001C
001C
001C
001C
001C
001C
001C
001C
001C
001C
001C
001C
001C
001C
001C
001C
FFFC
FFFC
FFFC
001C
001C
001C
FFFC
FFFC
FFFC
ENDCHAR
STARTCHAR 255C
ENCODING 9564
SWIDTH 720 0
DWIDTH 25 0
BBX 17 23 0 9
BITMAP
00E380
00E380
00E380
00E380
00E380
00E380
00E380
00E380
00E380
00E380
00E380
00E380
00E380
00E380
00E380
00E380
00E380
00E380
00E380
00E380
FFFF80
FFFF80
FFFF80
ENDCHAR
STARTCHAR 255D
ENCODING 9565
SWIDTH 720 0
DWIDTH 25 0
BBX 17 26 0 6
BITMAP
00E380
00E380
00E380
00E380
00E380
00E380
00E380
00E380
00E380
00E380
00E380
00E380
00E380
00E380
00E380
00E380
00E380
FFE380
FFE380
FFE380
000380
000380
000380
FFFF80
FFFF80
FFFF80
ENDCHAR
STARTCHAR 255E
ENCODING 9566
SWIDTH 720 0
DWIDTH 25 0
BBX 14 43 11 -11
BITMAP
E000
E000
E000
E000
E000
E000
E000
E000
E000
E000
E000
E000
E000
E000
E000
E000
E000
FFFC
FFFC
FFFC
E000
E000
E000
FFFC
FFFC
FFFC
E000
E000
E000
E000
E000
E000
E000
E000
E000
E000
E000
E000
E000
E000
E000
E000
E000
ENDCHAR
STARTCHAR 255F
ENCODING 9567
SWIDTH 720 0
DWIDTH 25 0
BBX 17 43 8 -11
BITMAP
E38000
E38000
E38000
E38000
E38000
E38000
E38000
E38000
E38000
E38000
E38000
E38000
E38000
E38000
E38000
E38000
E38000
E38000
E38000
E38000
E3FF80
E3FF80
E3FF80
E38000
E38000
E38000
E38000
E38000
E38000
E38000
E38000
E38000
E38000
E38000
E38000
E38000
E38000
E38000
E38000
E38000
E38000
E38000
E38000
ENDCHAR
STARTCHAR 2560
ENCODING 9568
SWIDTH 720 0
DWIDTH 25 0
BBX 17 43 8 -11
BITMAP
E38000
E38000
E38000
E38000
E38000
E38000
E38000
E38000
E38000
E38000
E38000
E38000
E38000
E38000
E38000
E38000
E38000
E3FF80
E3FF80
E3FF80
E00000
E00000
E00000
E3FF80
E3FF80
E3FF80
E38000
E38000
E38000
E38000
E38000
E38000
E38000
E38000
E38000
E38000
E38000
E38000
E38000
E38000
E38000
E38000
E38000
ENDCHAR
STARTCHAR 2561
ENCODING 9569
SWIDTH 720 0
DWIDTH 25 0
BBX 14 43 0 -11
BITMAP
001C
001C
001C
001C
001C
001C
001C
001C
001C
001C
001C
001C
001C
001C
001C
001C
001C
FFFC
FFFC
FFFC
001C
001C
001C
FFFC
FFFC
FFFC
001C
001C
001C
001C
001C
001C
001C
001C
001C
001C
001C
001C
001C
001C
001C
001C
001C
ENDCHAR
STARTCHAR 2562
ENCODING 9570
SWIDTH 720 0
DWIDTH 25 0
BBX 17 43 0 -11
BITMAP
00E380
00E380
00E380
00E380
00E380
00E380
00E380
00E380
00E380
00E380
00E380
00E380
00E380
00E380
00E380
00E380
00E380
00E380
00E380
00E380
FFE380
FFE380
FFE380
00E380
00E380
00E380
00E380
00E380
00E380
00E380
00E380
00E380
00E380
00E380
00E380
00E380
00E380
00E380
00E380
00E380
00E380
00E380
00E380
ENDCHAR
STARTCHAR 2563
ENCODING 9571
SWIDTH 720 0
DWIDTH 25 0
BBX 17 43 0 -11
BITMAP
00E380
00E380
00E380
00E380
00E380
00E380
00E380
00E380
00E380
00E380
00E380
00E380
00E380
00E380
00E380
00E380
00E380
FFE380
FFE380
FFE380
000380
000380
000380
FFE380
FFE380
FFE380
00E380
00E380
00E380
00E380
00E380
00E380
00E380
00E380
00E380
00E380
00E380
00E380
00E380
00E380
00E380
00E380
00E380
ENDCHAR
STARTCHAR 2564
ENCODING 9572
SWIDTH 720 0
DWIDTH 25 0
BBX 25 26 0 -11
BITMAP
FFFFFF80
FFFFFF80
FFFFFF80
00000000
00000000
00000000
FFFFFF80
FFFFFF80
FFFFFF80
001C0000
001C0000
001C0000
001C0000
001C0000
001C0000
001C0000
001C0000
001C0000
001C0000
001C0000
001C0000
001C0000
001C0000
001C0000
001C0000
001C0000
ENDCHAR
STARTCHAR 2565
ENCODING 9573
SWIDTH 720 0
DWIDTH 25 0
BBX 25 23 0 -11
BITMAP
FFFFFF80
FFFFFF80
FFFFFF80
00E38000
00E38000
00E38000
00E38000
00E38000
00E38000
00E38000
00E38000
00E38000
00E38000
00E38000
00E38000
00E38000
00E38000
00E38000
00E38000
00E38000
00E38000
00E38000
00E38000
ENDCHAR
STARTCHAR 2566
ENCODING 9574
SWIDTH 720 0
DWIDTH 25 0
BBX 25 26 0 -11
BITMAP
FFFFFF80
FFFFFF80
FFFFFF80
00000000
00000000
00000000
FFE3FF80
FFE3FF80
FFE3FF80
00E38000
00E38000
00E38000
00E38000
00E38000
00E38000
00E38000
00E38000
00E38000
00E38000
00E38000
00E38000
00E38000
00E38000
00E38000
00E38000
00E38000
ENDCHAR
STARTCHAR 2567
ENCODING 9575
SWIDTH 720 0
DWIDTH 25 0
BBX 25 26 0 6
BITMAP
001C0000
001C0000
001C0000
001C0000
001C0000
001C0000
001C0000
001C0000
001C0000
001C0000
001C0000
001C0000
001C0000
001C0000
001C0000
001C0000
001C0000
FFFFFF80
FFFFFF80
FFFFFF80
00000000
00000000
00000000
FFFFFF80
FFFFFF80
FFFFFF80
ENDCHAR
STARTCHAR 2568
ENCODING 9576
SWIDTH 720 0
DWIDTH 25 0
BBX 25 23 0 9
BITMAP
00E38000
00E38000
00E38000
00E38000
00E38000
00E38000
00E38000
00E38000
00E38000
00E38000
00E38000
00E38000
00E38000
00E38000
00E38000
00E38000
00E38000
00E38000
00E38000
00E38000
FFFFFF80
FFFFFF80
FFFFFF80
ENDCHAR
STARTCHAR 2569
ENCODING 9577
SWIDTH 720 0
DWIDTH 25 0
BBX 25 26 0 6
BITMAP
00E38000
00E38000
00E38000
00E38000
00E38000
00E38000
00E38000
00E38000
00E38000
00E38000
00E38000
00E38000
00E38000
00E38000
00E38000
00E38000
00E38000
FFE3FF80
FFE3FF80
FFE3FF80
00000000
00000000
00000000
FFFFFF80
FFFFFF80
FFFFFF80
ENDCHAR
STARTCHAR 256A
ENCODING 9578
SWIDTH 720 0
DWIDTH 25 0
BBX 25 43 0 -11
BITMAP
001C0000
001C0000
001C0000
001C0000
001C0000
001C0000
001C0000
001C0000
001C0000
001C0000
001C0000
001C0000
001C0000
001C0000
001C0000
001C0000
001C0000
FFFFFF80
FFFFFF80
FFFFFF80
001C0000
001C0000
001C0000
FFFFFF80
FFFFFF80
FFFFFF80
001C0000
001C0000
001C0000
001C0000
001C0000
001C0000
001C0000
001C0000
001C0000
001C0000
001C0000
001C0000
001C0000
001C0000
001C0000
001C0000
001C0000
ENDCHAR
STARTCHAR 256B
ENCODING 9579
SWIDTH 720 0
DWIDTH 25 0
BBX 25 43 0 -11
BITMAP
00E38000
00E38000
00E38000
00E38000
00E38000
00E38000
00E38000
00E38000
00E38000
00E38000
00E38000
00E38000
00E38000
00E38000
00E38000
00E38000
00E38000
00E38000
00E38000
00E38000
FFFFFF80
FFFFFF80
FFFFFF80
00E38000
00E38000
00E38000
00E38000
00E38000
00E38000
00E38000
00E38000
00E38000
00E38000
00E38000
00E38000
00E38000
00E38000
00E38000
00E38000
00E38000
00E38000
00E38000
00E38000
ENDCHAR
STARTCHAR 256C
ENCODING 9580
SWIDTH 720 0
DWIDTH 25 0
BBX 25 43 0 -11
BITMAP
00E38000
00E38000
00E38000
00E38000
00E38000
00E38000
00E38000
00E38000
00E38000
00E38000
00E38000
00E38000
00E38000
00E38000
00E38000
00E38000
00E38000
FFE3FF80
FFE3FF80
FFE3FF80
00000000
00000000
00000000
FFE3FF80
FFE3FF80
FFE3FF80
00E38000
00E38000
00E38000
00E38000
00E38000
00E38000
00E38000
00E38000
00E38000
00E38000
00E38000
00E38000
00E38000
00E38000
00E38000
00E38000
00E38000
ENDCHAR
STARTCHAR 2580
ENCODING 9600
SWIDTH 720 0
DWIDTH 25 0
BBX 25 21 0 11
BITMAP
FFFFFF80
FFFFFF80
FFFFFF80
FFFFFF80
FFFFFF80
FFFFFF80
FFFFFF80
FFFFFF80
FFFFFF80
FFFFFF80
FFFFFF80
FFFFFF80
FFFFFF80
FFFFFF80
FFFFFF80
FFFFFF80
FFFFFF80
FFFFFF80
FFFFFF80
FFFFFF80
FFFFFF80
ENDCHAR
STARTCHAR 2584
ENCODING 9604
SWIDTH 720 0
DWIDTH 25 0
BBX 25 22 0 -11
BITMAP
FFFFFF80
FFFFFF80
FFFFFF80
FFFFFF80
FFFFFF80
FFFFFF80
FFFFFF80
FFFFFF80
FFFFFF80
FFFFFF80
FFFFFF80
FFFFFF80
FFFFFF80
FFFFFF80
FFFFFF80
FFFFFF80
FFFFFF80
FFFFFF80
FFFFFF80
FFFFFF80
FFFFFF80
FFFFFF80
ENDCHAR
STARTCHAR 2588
ENCODING 9608
SWIDTH 720 0
DWIDTH 25 0
BBX 25 43 0 -11
BITMAP
FFFFFF80
FFFFFF80
FFFFFF80
FFFFFF80
FFFFFF80
FFFFFF80
FFFFFF80
FFFFFF80
FFFFFF80
FFFFFF80
FFFFFF80
FFFFFF80
FFFFFF80
FFFFFF80
FFFFFF80
FFFFFF80
FFFFFF80
FFFFFF80
FFFFFF80
FFFFFF80
FFFFFF80
FFFFFF80
FFFFFF80
FFFFFF80
FFFFFF80
FFFFFF80
FFFFFF80
FFFFFF80
FFFFFF80
FFFFFF80
FFFFFF80
FFFFFF80
FFFFFF80
FFFFFF80
FFFFFF80
FFFFFF80
FFFFFF80
FFFFFF80
FFFFFF80
FFFFFF80
FFFFFF80
FFFFFF80
FFFFFF80
ENDCHAR
STARTCHAR 258C
ENCODING 9612
SWIDTH 720 0
DWIDTH 25 0
BBX 12 43 0 -11
BITMAP
FFF0
FFF0
FFF0
FFF0
FFF0
FFF0
FFF0
FFF0
FFF0
FFF0
FFF0
FFF0
FFF0
FFF0
FFF0
FFF0
FFF0
FFF0
FFF0
FFF0
FFF0
FFF0
FFF0
FFF0
FFF0
FFF0
FFF0
FFF0
FFF0
FFF0
FFF0
FFF0
FFF0
FFF0
FFF0
FFF0
FFF0
FFF0
FFF0
FFF0
FFF0
FFF0
FFF0
ENDCHAR
STARTCHAR 2590
ENCODING 9616
SWIDTH 720 0
DWIDTH 25 0
BBX 13 43 12 -11
BITMAP
FFF8
FFF8
FFF8
FFF8
FFF8
FFF8
FFF8
FFF8
FFF8
FFF8
FFF8
FFF8
FFF8
FFF8
FFF8
FFF8
FFF8
FFF8
FFF8
FFF8
FFF8
FFF8
FFF8
FFF8
FFF8
FFF8
FFF8
FFF8
FFF8
FFF8
FFF8
FFF8
FFF8
FFF8
FFF8
FFF8
FFF8
FFF8
FFF8
FFF8
FFF8
FFF8
FFF8
ENDCHAR
STARTCHAR 2591
ENCODING 9617
SWIDTH 720 0
DWIDTH 25 0
BBX 23 41 2 -9
BITMAP
C0C060
C0C060
C0C060
000000
000000
0C0E06
0C0E06
000000
000000
C0C060
C0C060
000000
000000
0C0E06
0C0E06
000000
000000
C0C060
C0C060
000000
000000
000000
0C0E06
0C0E06
000000
000000
C0C060
C0C060
000000
000000
0C0E06
0C0E06
000000
000000
C0C060
C0C060
000000
000000
0C0E06
0C0E06
0C0E06
ENDCHAR
STARTCHAR 2592
ENCODING 9618
SWIDTH 720 0
DWIDTH 25 0
BBX 25 41 0 -9
BITMAP
33339980
33339980
33339980
00000000
00000000
CCCC6600
CCCC6600
00000000
00000000
33339980
33339980
00000000
00000000
CCCC6600
CCCC6600
00000000
00000000
33339980
33339980
00000000
00000000
00000000
CCCC6600
CCCC6600
00000000
00000000
33339980
33339980
00000000
00000000
CCCC6600
CCCC6600
00000000
00000000
33339980
33339980
00000000
00000000
CCCC6600
CCCC6600
CCCC6600
ENDCHAR
STARTCHAR 2593
ENCODING 9619
SWIDTH 720 0
DWIDTH 25 0
BBX 25 43 0 -11
BITMAP
33199980
33199980
33199980
FFFFFF80
FFFFFF80
CCE66600
CCE66600
FFFFFF80
FFFFFF80
33199980
33199980
FFFFFF80
FFFFFF80
CCE66600
CCE66600
FFFFFF80
FFFFFF80
33199980
33199980
FFFFFF80
FFFFFF80
FFFFFF80
CCE66600
CCE66600
FFFFFF80
FFFFFF80
33199980
33199980
FFFFFF80
FFFFFF80
CCE66600
CCE66600
FFFFFF80
FFFFFF80
33199980
33199980
FFFFFF80
FFFFFF80
CCE66600
CCE66600
CCE66600
FFFFFF80
FFFFFF80
ENDCHAR
STARTCHAR 25A0
ENCODING 9632
SWIDTH 604 0
DWIDTH 21 0
BBX 16 16 2 0
BITMAP
FFFF
FFFF
FFFF
FFFF
FFFF
FFFF
FFFF
FFFF
FFFF
FFFF
FFFF
FFFF
FFFF
FFFF
FFFF
FFFF
ENDCHAR
STARTCHAR 25A1
ENCODING 9633
SWIDTH 604 0
DWIDTH 21 0
BBX 16 16 2 0
BITMAP
FFFF
C001
C001
C001
C001
C001
C001
C001
C001
C001
C001
C001
C001
C001
C001
FFFF
ENDCHAR
STARTCHAR 25AA
ENCODING 9642
SWIDTH 345 0
DWIDTH 12 0
BBX 8 7 2 8
BITMAP
FF
FF
FF
FF
FF
FF
FF
ENDCHAR
STARTCHAR 25AB
ENCODING 9643
SWIDTH 345 0
DWIDTH 12 0
BBX 8 7 2 8
BITMAP
FF
C1
C1
C1
C1
C1
FF
ENDCHAR
STARTCHAR 25AC
ENCODING 9644
SWIDTH 1008 0
DWIDTH 35 0
BBX 35 7 0 5
BITMAP
FFFFFFFFE0
FFFFFFFFE0
FFFFFFFFE0
FFFFFFFFE0
FFFFFFFFE0
FFFFFFFFE0
FFFFFFFFE0
ENDCHAR
STARTCHAR 25B2
ENCODING 9650
SWIDTH 979 0
DWIDTH 34 0
BBX 24 24 5 0
BITMAP
001000
001800
001800
003C00
003C00
007E00
007E00
00FF00
00FF00
01FF80
01FF80
03FFC0
03FFC0
07FFE0
07FFE0
0FFFF0
0FFFF0
1FFFF8
1FFFF8
3FFFFC
3FFFFC
7FFFFE
7FFFFE
FFFFFF
ENDCHAR
STARTCHAR 25BA
ENCODING 9658
SWIDTH 979 0
DWIDTH 34 0
BBX 24 24 5 -1
BITMAP
800000
E00000
F80000
FE0000
FF8000
FFE000
FFF800
FFFE00
FFFF80
FFFFE0
FFFFF8
FFFFFE
FFFFFF
FFFFFC
FFFFF0
FFFFC0
FFFF00
FFFC00
FFF000
FFC000
FF0000
FC0000
F00000
C00000
ENDCHAR
STARTCHAR 25BC
ENCODING 9660
SWIDTH 979 0
DWIDTH 34 0
BBX 24 24 5 -1
BITMAP
FFFFFF
7FFFFF
7FFFFE
3FFFFE
3FFFFC
1FFFFC
1FFFF8
0FFFF8
0FFFF0
07FFF0
07FFE0
03FFE0
03FFC0
01FFC0
01FF80
00FF80
00FF00
007F00
007E00
003E00
003C00
001C00
001800
000800
ENDCHAR
STARTCHAR 25C4
ENCODING 9668
SWIDTH 979 0
DWIDTH 34 0
BBX 24 24 5 -1
BITMAP
000001
000007
00001F
00007F
0001FF
0007FF
001FFF
007FFF
01FFFF
07FFFF
1FFFFF
7FFFFF
FFFFFF
3FFFFF
0FFFFF
03FFFF
00FFFF
003FFF
000FFF
0003FF
0000FF
00003F
00000F
000003
ENDCHAR
STARTCHAR 25CA
ENCODING 9674
SWIDTH 489 0
DWIDTH 17 0
BBX 15 24 1 0
BITMAP
0380
0380
06C0
0C40
0C60
1830
1830
3018
3018
600C
4006
C006
C006
4004
600C
3018
3018
1830
1830
0C60
0C40
06C0
0380
0380
ENDCHAR
STARTCHAR 25CB
ENCODING 9675
SWIDTH 604 0
DWIDTH 21 0
BBX 15 15 3 2
BITMAP
0FE0
1830
2018
600C
4004
C006
8002
8002
8002
C006
4004
600C
3018
1FF0
0380
ENDCHAR
STARTCHAR 25CF
ENCODING 9679
SWIDTH 604 0
DWIDTH 21 0
BBX 15 15 3 2
BITMAP
0FE0
1FF0
3FF8
7FFC
7FFC
FFFE
FFFE
FFFE
FFFE
FFFE
7FFC
7FFC
3FF8
1FF0
0380
ENDCHAR
STARTCHAR 25D8
ENCODING 9688
SWIDTH 604 0
DWIDTH 21 0
BBX 17 17 2 0
BITMAP
FFFF80
FFFF80
FFFF80
FFFF80
FFFF80
FE3F80
FC1F80
F80F80
F80F80
F80F80
FC1F80
FE3F80
FFFF80
FFFF80
FFFF80
FFFF80
FFFF80
ENDCHAR
STARTCHAR 25D9
ENCODING 9689
SWIDTH 604 0
DWIDTH 21 0
BBX 19 20 1 0
BITMAP
FFFFE0
FFFFE0
FFFFE0
FC07E0
F9F3E0
F3FDE0
E7FCE0
EFFEE0
CFFE60
DFFF60
DFFF60
DFFF60
CFFE60
EFFEE0
E7FCE0
F3F9E0
FC03E0
FF1FE0
FFFFE0
FFFFE0
ENDCHAR
STARTCHAR 25E6
ENCODING 9702
SWIDTH 345 0
DWIDTH 12 0
BBX 8 9 2 7
BITMAP
18
7E
C3
81
81
81
C3
7E
1C
ENDCHAR
STARTCHAR 263A
ENCODING 9786
SWIDTH 1008 0
DWIDTH 35 0
BBX 22 22 7 -2
BITMAP
002000
03FE00
0F0380
1C00C0
300060
200030
600010
400018
C70308
C70308
C0000C
C0000C
C00008
C00008
C20218
630218
61FC30
30F830
1800E0
0E01C0
07FF00
01FC00
ENDCHAR
STARTCHAR 263B
ENCODING 9787
SWIDTH 1065 0
DWIDTH 37 0
BBX 22 22 7 -2
BITMAP
001000
01FF00
07FFC0
0FFFE0
1FFFF0
3FFFF0
3FFFF8
7FFFF8
7CFC7C
7CFC7C
FFFFFC
FFFFFC
7FFFFC
7FFFFC
7EFEFC
7EFCF8
3F01F8
3F83F0
1FFFE0
0FFFC0
03FF80
00FC00
ENDCHAR
STARTCHAR 263C
ENCODING 9788
SWIDTH 921 0
DWIDTH 32 0
BBX 32 31 0 -4
BITMAP
00018000
00018000
00018000
08018010
0C018030
0603C060
031FF8C0
01B00D80
00C00700
00800300
01800180
01000080
030000C0
020000C0
02000040
FE00007F
020000C0
030000C0
01000080
01000180
00800100
00C00300
00E00700
019C3980
0307E0C0
06018060
08018030
00018000
00018000
00018000
00018000
ENDCHAR
STARTCHAR 2640
ENCODING 9792
SWIDTH 748 0
DWIDTH 26 0
BBX 18 33 4 -7
BITMAP
00C000
073800
180600
300300
200100
400080
400080
800040
800040
800040
800040
800040
400080
400080
200100
100200
0C0400
03F800
008000
008000
008000
008000
008000
008000
008000
7FFF80
008000
008000
008000
008000
008000
008000
008000
ENDCHAR
STARTCHAR 2642
ENCODING 9794
SWIDTH 748 0
DWIDTH 26 0
BBX 22 31 2 -4
BITMAP
000060
0001B0
000650
001850
006090
000088
000108
000108
000208
000204
000404
000400
000800
000800
07F800
180C00
300200
600100
400080
800080
800080
800040
800040
800040
800080
800080
400080
600100
300200
180400
07F800
ENDCHAR
STARTCHAR 2660
ENCODING 9824
SWIDTH 518 0
DWIDTH 18 0
BBX 16 20 1 1
BITMAP
0080
0180
01C0
03C0
07E0
0FF0
1FF8
3FFC
7FFE
FFFF
FFFF
FFFF
FF7F
FEFF
7CBE
0080
0180
01C0
07E0
3FFE
ENDCHAR
STARTCHAR 2663
ENCODING 9827
SWIDTH 662 0
DWIDTH 23 0
BBX 21 21 1 0
BITMAP
00F000
01FC00
03FE00
03FE00
03FE00
03FE00
03FE00
3DFDE0
7FFFF0
FFFFF0
FFFFF8
FFFFF8
FFFFF8
FFFFF0
7FAFF0
3E27E0
006000
007000
00F800
01FC00
1FFF80
ENDCHAR
STARTCHAR 2665
ENCODING 9829
SWIDTH 604 0
DWIDTH 21 0
BBX 19 21 1 0
BITMAP
1C0F00
7F1F80
7F3FC0
FFBFC0
FFFFE0
FFFFC0
FFFFC0
7FFFC0
7FFF80
3FFF80
1FFF00
0FFE00
0FFC00
07FC00
03F800
03F000
01F000
00E000
00C000
004000
004000
ENDCHAR
STARTCHAR 2666
ENCODING 9830
SWIDTH 518 0
DWIDTH 18 0
BBX 15 20 1 1
BITMAP
0180
0380
03C0
07E0
0FE0
0FF0
1FF8
3FFC
7FFE
FFFE
7FFE
7FFC
3FF8
1FF8
0FF0
07E0
07C0
03C0
0180
0100
ENDCHAR
STARTCHAR 266A
ENCODING 9834
SWIDTH 489 0
DWIDTH 17 0
BBX 16 24 1 -1
BITMAP
01F8
01FC
01FE
01FE
018F
0183
0183
0183
0180
0180
0180
0180
0180
0180
0180
0180
7F80
FF80
FF80
FF80
FF80
FF00
7E00
1800
ENDCHAR
STARTCHAR 266B
ENCODING 9835
SWIDTH 748 0
DWIDTH 26 0
BBX 22 28 1 -2
BITMAP
000004
00003C
0003FC
001FFC
00FFFC
00FFEC
00FF0C
00F00C
00C00C
00C00C
00C00C
00C00C
00C00C
00C00C
00C00C
00C00C
00C00C
00C3FC
00C7FC
00C7FC
1ECFF8
3FCFF8
7FC7F8
7FC7F0
FFC1C0
7F8000
7F8000
3E0000
ENDCHAR
STARTCHAR E801
ENCODING 59393
SWIDTH 259 0
DWIDTH 9 0
BBX 8 23 1 0
BITMAP
E0
E0
40
00
10
3C
3F
3F
0F
07
02
02
02
06
04
04
0C
08
08
18
18
10
10
ENDCHAR
ENDFONT
